<svg width="73" height="16" viewBox="0 0 73 16" fill="none" xmlns="http://www.w3.org/2000/svg">
<path d="M11.7922 14.6407C9.92359 16.4531 6.86873 16.4531 5.00015 14.6407L1.54987 11.294C-0.318707 9.48155 -0.318707 6.51845 1.54987 4.70599L5.00015 1.35934C6.86873 -0.453114 9.92359 -0.453114 11.7922 1.35934L15.2424 4.70599C17.111 6.51845 17.111 9.48155 15.2424 11.294L11.7922 14.6407Z" fill="#303030"/>
<path d="M6.35238 12.9191C6.07713 12.9191 5.85616 12.7123 5.84453 12.4453C5.83678 12.3137 5.88717 12.1858 5.98022 12.0881C6.07326 11.9903 6.19731 11.9339 6.333 11.9301C6.61212 11.9188 6.85248 12.1294 6.86411 12.4039C6.87574 12.6747 6.65476 12.9078 6.37564 12.9191C6.36789 12.9191 6.36013 12.9191 6.35238 12.9191Z" fill="white"/>
<path d="M8.20717 3.77791C7.92805 3.77791 7.7032 3.86439 7.52099 4.03736C7.12944 4.41339 6.92398 5.19177 6.94336 6.22961C6.96662 7.5081 7.28063 10.0125 8.31572 11.306C8.48242 11.5166 8.66462 11.682 8.85071 11.8023C9.03291 11.9189 9.23838 12.0317 9.55627 12.0317C9.64156 12.0317 9.7346 12.0242 9.83152 12.0054C10.4247 11.8663 11.169 11.227 11.7234 10.3734C11.8086 10.2418 11.9521 10.1666 12.111 10.1666C12.1963 10.1666 12.2816 10.1892 12.3553 10.2343C12.4599 10.2982 12.5297 10.396 12.5569 10.5126C12.584 10.6291 12.5646 10.7457 12.4987 10.8472C11.797 11.9264 10.8744 12.686 10.0254 12.874C10.0254 12.874 10.0137 12.874 10.006 12.8778C9.8509 12.9041 9.69583 12.9192 9.55239 12.9192C9.00577 12.9192 8.6181 12.7161 8.34673 12.5394C8.07536 12.3664 7.8195 12.1333 7.59077 11.8475C6.13313 10.0313 6.03233 6.62444 6.02458 6.24089C6.00907 5.33466 6.14476 4.10505 6.87358 3.40188C7.23024 3.05969 7.67606 2.88672 8.19942 2.88672H8.2847C8.81194 2.88672 9.25776 3.05969 9.61442 3.40188C10.3432 4.10505 10.4789 5.33466 10.4634 6.24089C10.4479 7.18472 10.2696 9.01598 9.25776 10.6555C9.17635 10.7871 9.02516 10.8736 8.86621 10.8736C8.7848 10.8736 8.70339 10.851 8.63361 10.8096C8.41651 10.6855 8.34673 10.411 8.47466 10.2005C9.18023 9.05358 9.52138 7.79013 9.54852 6.22585C9.5679 5.18801 9.36243 4.40963 8.97088 4.0336C8.78868 3.85687 8.56771 3.77415 8.28858 3.77415H8.20717V3.77791Z" fill="white"/>
<path d="M33.125 11.3204V13.6826H21.6445V11.3204H33.125ZM32.8061 4.69045H21.9634V2.3125H32.8061V4.69045ZM31.2913 7.44636H32.8061V9.80856H21.9634V7.44636H23.4782L23.3507 5.27313H26.3483L26.4759 7.44636H28.2936L28.4212 5.27313H31.4189L31.2913 7.44636Z" fill="#2F3030"/>
<path d="M41.8157 8.94476H38.0367V11.1495H42.1346V13.5117H35.0391V6.58255H38.834V4.53531H35.0391V2.17311H41.8157V8.94476ZM46.2006 13.9841H43.203V2.01562H46.2006V13.9841Z" fill="#2F3030"/>
<path d="M48.1133 13.5276V2.15748H55.2248V13.5276H48.1133ZM52.2271 4.53543H51.111V11.1654H52.2271V4.53543ZM59.3068 2V14H56.3091V2L59.3068 2Z" fill="#2F3030"/>
<path d="M72.4136 2.01562V8.69279H69.4159V6.56681H68.2998C68.1191 7.28072 67.7258 7.8319 67.1252 8.20985C66.5246 8.59305 65.7539 8.78203 64.8025 8.78203C63.6757 8.78203 62.7934 8.51431 62.1662 7.97363C61.5337 7.43295 61.2148 6.68229 61.2148 5.71641V5.08649C61.2148 4.12061 61.5284 3.36996 62.1662 2.82927C62.7987 2.28859 63.6757 2.02087 64.8025 2.02087C65.7273 2.02087 66.4874 2.2046 67.0826 2.57206C67.6779 2.93951 68.0712 3.45919 68.2626 4.13111H69.4106V2.01562H72.4083H72.4136ZM61.5391 13.9841V9.25972H72.4136V13.9841H61.5391ZM65.3659 4.92901C65.3659 4.56156 65.1799 4.37783 64.8078 4.37783C64.6377 4.37783 64.4995 4.42507 64.4039 4.51956C64.3029 4.61405 64.2497 4.75053 64.2497 4.92901V5.87389C64.2497 6.04187 64.2976 6.17835 64.4039 6.27809C64.5102 6.37783 64.6377 6.42507 64.8078 6.42507C64.9885 6.42507 65.1267 6.37783 65.2224 6.27809C65.3181 6.17835 65.3659 6.04187 65.3659 5.87389V4.92901ZM64.5367 11.3227V11.9211H69.4159V11.3227H64.5367Z" fill="#2F3030"/>
</svg>
