<svg width="32" height="32" viewBox="0 0 32 32" fill="none" xmlns="http://www.w3.org/2000/svg">
<g id="icon_&#234;&#180;&#128;&#236;&#139;&#172;&#236;&#176;&#168;&#235;&#159;&#137;">
<path id="Vector 342" d="M25.6016 12.8L28.0016 12" stroke="#1A1A1A" stroke-width="1.5" stroke-linecap="round"/>
<path id="Vector 343" d="M6.39844 12.8L3.99844 12" stroke="#1A1A1A" stroke-width="1.5" stroke-linecap="round"/>
<path id="Rectangle 959130" d="M4.78662 16.1965L6.39441 13.1484H25.604L27.2118 16.1965C27.7618 17.2392 28.0492 18.4002 28.0492 19.579V22.0484H3.94922V19.579C3.94922 18.4002 4.23665 17.2392 4.78662 16.1965Z" fill="white" stroke="#1A1A1A" stroke-width="1.5"/>
<path id="Rectangle 959132" d="M22.3516 22.3516H28.0516V24.4016C28.0516 25.0919 27.4919 25.6516 26.8016 25.6516H23.6016C22.9112 25.6516 22.3516 25.0919 22.3516 24.4016V22.3516Z" fill="white" stroke="#1A1A1A" stroke-width="1.5"/>
<path id="Rectangle 959135" d="M3.94922 22.3516H9.64922V24.4016C9.64922 25.0919 9.08958 25.6516 8.39922 25.6516H5.19922C4.50886 25.6516 3.94922 25.0919 3.94922 24.4016V22.3516Z" fill="white" stroke="#1A1A1A" stroke-width="1.5"/>
<circle id="Ellipse 1276" cx="8.66536" cy="17.2005" r="1.33333" fill="#FF3333"/>
<circle id="Ellipse 1277" cx="23.3333" cy="17.2005" r="1.33333" fill="#FF3333"/>
<rect id="Rectangle 959133" x="12.668" y="16.5352" width="6.66667" height="1.33333" rx="0.666667" fill="#1A1A1A"/>
<path id="Rectangle 959134" d="M8.2412 7.90612C8.54246 6.97915 9.40632 6.35156 10.381 6.35156H21.6221C22.5968 6.35156 23.4607 6.97915 23.7619 7.90612L25.3692 12.8516H6.63393L8.2412 7.90612Z" fill="white" stroke="#1A1A1A" stroke-width="1.5"/>
</g>
</svg>
