<svg width="32" height="32" viewBox="0 0 32 32" fill="none" xmlns="http://www.w3.org/2000/svg">
<g id="heart">
<path id="Vector" d="M26.1494 7.76815C25.5629 7.20759 24.8667 6.76292 24.1003 6.45954C23.334 6.15615 22.5126 6 21.6831 6C20.8535 6 20.0321 6.15615 19.2658 6.45954C18.4994 6.76292 17.8032 7.20759 17.2167 7.76815L15.9997 8.93095L14.7826 7.76815C13.5981 6.6364 11.9915 6.00059 10.3163 6.00059C8.64114 6.00059 7.03455 6.6364 5.85001 7.76815C4.66547 8.89989 4 10.4349 4 12.0354C4 13.6359 4.66547 15.1709 5.85001 16.3027L7.06705 17.4655L15.9997 26L24.9323 17.4655L26.1494 16.3027C26.7361 15.7424 27.2015 15.0771 27.519 14.3449C27.8366 13.6128 28 12.828 28 12.0354C28 11.2429 27.8366 10.4581 27.519 9.72587C27.2015 8.99368 26.7361 8.32844 26.1494 7.76815Z" fill="white" stroke="#1A1A1A" stroke-width="2" stroke-linecap="round" stroke-linejoin="round"/>
</g>
</svg>
