<svg width="40" height="40" viewBox="0 0 40 40" fill="none" xmlns="http://www.w3.org/2000/svg">
<g id="icon_instagram">
<circle id="Ellipse 156" cx="20" cy="20" r="19.5" stroke="#E6E6E6"/>
<g id="icon_instagram_2">
<path id="Vector" fill-rule="evenodd" clip-rule="evenodd" d="M19.9989 10.8828C17.5219 10.8828 17.2117 10.8927 16.2386 10.938C15.2685 10.9823 14.6047 11.1359 14.0246 11.3615C13.4258 11.5949 12.9166 11.9071 12.4094 12.4133C11.9032 12.9205 11.591 13.4297 11.3576 14.0285C11.132 14.6096 10.9784 15.2724 10.9341 16.2425C10.8897 17.2156 10.8789 17.5258 10.8789 20.0028C10.8789 22.4798 10.8888 22.79 10.9341 23.7631C10.9784 24.7342 11.132 25.397 11.3576 25.9771C11.591 26.5769 11.9032 27.0851 12.4094 27.5923C12.9166 28.0995 13.4258 28.4107 14.0246 28.6442C14.6057 28.8697 15.2685 29.0233 16.2386 29.0677C17.2117 29.112 17.5219 29.1228 19.9989 29.1228C22.4759 29.1228 22.7861 29.113 23.7592 29.0677C24.7293 29.0233 25.3931 28.8697 25.9732 28.6442C26.572 28.4107 27.0812 28.0995 27.5884 27.5923C28.0946 27.0851 28.4068 26.5769 28.6402 25.9771C28.8658 25.396 29.0194 24.7342 29.0637 23.7631C29.1081 22.79 29.1189 22.4798 29.1189 20.0028C29.1189 17.5258 29.109 17.2156 29.0637 16.2425C29.0194 15.2724 28.8658 14.6086 28.6402 14.0285C28.4068 13.4297 28.0946 12.9205 27.5884 12.4133C27.0812 11.9071 26.572 11.5949 25.9732 11.3615C25.3921 11.1359 24.7293 10.9823 23.7592 10.938C22.7861 10.8927 22.4759 10.8828 19.9989 10.8828ZM19.9989 12.5266C22.4335 12.5266 22.7221 12.5364 23.6843 12.5798C24.5737 12.6192 25.0563 12.7689 25.3783 12.893C25.8028 13.0584 26.1071 13.2564 26.4262 13.5755C26.7453 13.8946 26.9433 14.1989 27.1088 14.6244C27.2328 14.9454 27.3816 15.428 27.4219 16.3184C27.4663 17.2796 27.4751 17.5682 27.4751 20.0028C27.4751 22.4384 27.4663 22.726 27.4219 23.6882C27.3826 24.5776 27.2328 25.0602 27.1088 25.3822C26.9433 25.8067 26.7443 26.111 26.4262 26.4301C26.1071 26.7492 25.8028 26.9472 25.3773 27.1127C25.0563 27.2368 24.5737 27.3855 23.6833 27.4259C22.7231 27.4702 22.4345 27.479 19.9989 27.479C17.5633 27.479 17.2747 27.4702 16.3135 27.4259C15.4241 27.3865 14.9415 27.2368 14.6195 27.1127C14.195 26.9472 13.8907 26.7483 13.5716 26.4301C13.2525 26.111 13.0545 25.8067 12.889 25.3812C12.765 25.0602 12.6162 24.5776 12.5759 23.6873C12.5315 22.726 12.5227 22.4384 12.5227 20.0028C12.5227 17.5682 12.5315 17.2796 12.5759 16.3174C12.6153 15.428 12.765 14.9454 12.889 14.6234C13.0545 14.1989 13.2535 13.8946 13.5716 13.5755C13.8907 13.2564 14.195 13.0584 14.6205 12.893C14.9415 12.7689 15.4241 12.6201 16.3145 12.5798C17.2757 12.5354 17.5643 12.5266 19.9989 12.5266Z" fill="#1A1A1A"/>
<path id="Vector_2" fill-rule="evenodd" clip-rule="evenodd" d="M19.9976 23.0336C18.3183 23.0336 16.9572 21.6725 16.9572 19.9932C16.9572 18.314 18.3183 16.9529 19.9976 16.9529C21.6768 16.9529 23.0379 18.314 23.0379 19.9932C23.0379 21.6725 21.6768 23.0336 19.9976 23.0336ZM19.9976 15.3101C17.4113 15.3101 15.3145 17.4069 15.3145 19.9932C15.3145 22.5795 17.4113 24.6763 19.9976 24.6763C22.5839 24.6763 24.6807 22.5795 24.6807 19.9932C24.6807 17.4069 22.5839 15.3101 19.9976 15.3101ZM25.96 15.125C25.96 15.7297 25.4705 16.2192 24.8658 16.2192C24.2611 16.2192 23.7716 15.7297 23.7716 15.1259C23.7716 14.5202 24.2611 14.0308 24.8648 14.0308C25.4705 14.0308 25.96 14.5202 25.96 15.125Z" fill="#1A1A1A"/>
</g>
</g>
</svg>
