<svg width="40" height="40" viewBox="0 0 40 40" fill="none" xmlns="http://www.w3.org/2000/svg">
<circle cx="20" cy="20" r="19.5" stroke="#E6E6E6"/>
<path d="M21.1468 16.45C21.1468 16.45 18.5979 16.45 17.7483 17.95V12C17.7483 12 14.2499 12.05 14 12V27.55H17.7483V26.65C17.7483 26.65 18.8478 28 20.8469 28C20.8469 28 25.9446 27.85 25.9946 22.85C25.9446 22.85 26.6443 17 21.1468 16.45ZM19.9973 24.55C18.7978 24.55 17.8483 23.6 17.8483 22.4C17.8483 21.2 18.7978 20.25 19.9973 20.25C21.1968 20.25 22.1463 21.2 22.1463 22.4C22.1463 23.55 21.1968 24.55 19.9973 24.55Z" fill="#1A1A1A"/>
</svg>
