<svg width="78" height="78" viewBox="0 0 78 78" fill="none" xmlns="http://www.w3.org/2000/svg">
<mask id="mask0_9168_16606" style="mask-type:luminance" maskUnits="userSpaceOnUse" x="0" y="0" width="78" height="78">
<path d="M2.1081 23.1895H0V25.2976H2.1081V23.1895Z" fill="white"/>
<path d="M2.1081 25.2974H0V27.4055H2.1081V25.2974Z" fill="white"/>
<path d="M2.1081 27.4053H0V29.5134H2.1081V27.4053Z" fill="white"/>
<path d="M2.1081 35.8379H0V37.946H2.1081V35.8379Z" fill="white"/>
<path d="M2.1081 37.9458H0V40.0539H2.1081V37.9458Z" fill="white"/>
<path d="M2.1081 40.0542H0V42.1623H2.1081V40.0542Z" fill="white"/>
<path d="M2.1081 42.1621H0V44.2702H2.1081V42.1621Z" fill="white"/>
<path d="M2.1081 52.7026H0V54.8107H2.1081V52.7026Z" fill="white"/>
<path d="M2.1081 54.8105H0V56.9187H2.1081V54.8105Z" fill="white"/>
<path d="M2.1081 56.9189H0V59.0271H2.1081V56.9189Z" fill="white"/>
<path d="M2.1081 59.0269H0V61.135H2.1081V59.0269Z" fill="white"/>
<path d="M4.21747 18.9727H2.10938V21.0808H4.21747V18.9727Z" fill="white"/>
<path d="M4.21747 21.0811H2.10938V23.1892H4.21747V21.0811Z" fill="white"/>
<path d="M4.21747 23.1895H2.10938V25.2976H4.21747V23.1895Z" fill="white"/>
<path d="M4.21747 35.8379H2.10938V37.946H4.21747V35.8379Z" fill="white"/>
<path d="M4.21747 48.4863H2.10938V50.5944H4.21747V48.4863Z" fill="white"/>
<path d="M4.21747 50.5947H2.10938V52.7028H4.21747V50.5947Z" fill="white"/>
<path d="M4.21747 52.7026H2.10938V54.8107H4.21747V52.7026Z" fill="white"/>
<path d="M4.21747 54.8105H2.10938V56.9187H4.21747V54.8105Z" fill="white"/>
<path d="M6.32685 16.8647H4.21875V18.9729H6.32685V16.8647Z" fill="white"/>
<path d="M6.32685 18.9727H4.21875V21.0808H6.32685V18.9727Z" fill="white"/>
<path d="M6.32685 23.1895H4.21875V25.2976H6.32685V23.1895Z" fill="white"/>
<path d="M6.32685 27.4053H4.21875V29.5134H6.32685V27.4053Z" fill="white"/>
<path d="M6.32685 33.73H4.21875V35.8381H6.32685V33.73Z" fill="white"/>
<path d="M6.32685 35.8379H4.21875V37.946H6.32685V35.8379Z" fill="white"/>
<path d="M6.32685 37.9458H4.21875V40.0539H6.32685V37.9458Z" fill="white"/>
<path d="M6.32685 40.0542H4.21875V42.1623H6.32685V40.0542Z" fill="white"/>
<path d="M6.32685 42.1621H4.21875V44.2702H6.32685V42.1621Z" fill="white"/>
<path d="M6.32685 44.27H4.21875V46.3781H6.32685V44.27Z" fill="white"/>
<path d="M6.32685 50.5947H4.21875V52.7028H6.32685V50.5947Z" fill="white"/>
<path d="M6.32685 54.8105H4.21875V56.9187H6.32685V54.8105Z" fill="white"/>
<path d="M6.32685 56.9189H4.21875V59.0271H6.32685V56.9189Z" fill="white"/>
<path d="M8.42841 18.9727H6.32031V21.0808H8.42841V18.9727Z" fill="white"/>
<path d="M8.42841 23.1895H6.32031V25.2976H8.42841V23.1895Z" fill="white"/>
<path d="M8.42841 27.4053H6.32031V29.5134H8.42841V27.4053Z" fill="white"/>
<path d="M8.42841 29.5137H6.32031V31.6218H8.42841V29.5137Z" fill="white"/>
<path d="M8.42841 52.7026H6.32031V54.8107H8.42841V52.7026Z" fill="white"/>
<path d="M8.42841 54.8105H6.32031V56.9187H8.42841V54.8105Z" fill="white"/>
<path d="M8.42841 56.9189H6.32031V59.0271H8.42841V56.9189Z" fill="white"/>
<path d="M8.42841 59.0269H6.32031V61.135H8.42841V59.0269Z" fill="white"/>
<path d="M10.5456 16.8647H8.4375V18.9729H10.5456V16.8647Z" fill="white"/>
<path d="M10.5456 21.0811H8.4375V23.1892H10.5456V21.0811Z" fill="white"/>
<path d="M10.5456 23.1895H8.4375V25.2976H10.5456V23.1895Z" fill="white"/>
<path d="M10.5456 27.4053H8.4375V29.5134H10.5456V27.4053Z" fill="white"/>
<path d="M10.5456 29.5137H8.4375V31.6218H10.5456V29.5137Z" fill="white"/>
<path d="M10.5456 33.73H8.4375V35.8381H10.5456V33.73Z" fill="white"/>
<path d="M10.5456 40.0542H8.4375V42.1623H10.5456V40.0542Z" fill="white"/>
<path d="M10.5456 42.1621H8.4375V44.2702H10.5456V42.1621Z" fill="white"/>
<path d="M10.5456 46.3784H8.4375V48.4865H10.5456V46.3784Z" fill="white"/>
<path d="M10.5456 48.4863H8.4375V50.5944H10.5456V48.4863Z" fill="white"/>
<path d="M10.5456 52.7026H8.4375V54.8107H10.5456V52.7026Z" fill="white"/>
<path d="M10.5456 56.9189H8.4375V59.0271H10.5456V56.9189Z" fill="white"/>
<path d="M12.6472 16.8647H10.5391V18.9729H12.6472V16.8647Z" fill="white"/>
<path d="M12.6472 18.9727H10.5391V21.0808H12.6472V18.9727Z" fill="white"/>
<path d="M12.6472 21.0811H10.5391V23.1892H12.6472V21.0811Z" fill="white"/>
<path d="M12.6472 25.2974H10.5391V27.4055H12.6472V25.2974Z" fill="white"/>
<path d="M12.6472 29.5137H10.5391V31.6218H12.6472V29.5137Z" fill="white"/>
<path d="M12.6472 31.6216H10.5391V33.7297H12.6472V31.6216Z" fill="white"/>
<path d="M12.6472 35.8379H10.5391V37.946H12.6472V35.8379Z" fill="white"/>
<path d="M12.6472 40.0542H10.5391V42.1623H12.6472V40.0542Z" fill="white"/>
<path d="M12.6472 42.1621H10.5391V44.2702H12.6472V42.1621Z" fill="white"/>
<path d="M12.6472 46.3784H10.5391V48.4865H12.6472V46.3784Z" fill="white"/>
<path d="M12.6472 52.7026H10.5391V54.8107H12.6472V52.7026Z" fill="white"/>
<path d="M12.6472 59.0269H10.5391V61.135H12.6472V59.0269Z" fill="white"/>
<path d="M14.7565 16.8647H12.6484V18.9729H14.7565V16.8647Z" fill="white"/>
<path d="M14.7565 21.0811H12.6484V23.1892H14.7565V21.0811Z" fill="white"/>
<path d="M14.7565 25.2974H12.6484V27.4055H14.7565V25.2974Z" fill="white"/>
<path d="M14.7565 29.5137H12.6484V31.6218H14.7565V29.5137Z" fill="white"/>
<path d="M14.7565 33.73H12.6484V35.8381H14.7565V33.73Z" fill="white"/>
<path d="M14.7565 37.9458H12.6484V40.0539H14.7565V37.9458Z" fill="white"/>
<path d="M14.7565 42.1621H12.6484V44.2702H14.7565V42.1621Z" fill="white"/>
<path d="M14.7565 46.3784H12.6484V48.4865H14.7565V46.3784Z" fill="white"/>
<path d="M14.7565 50.5947H12.6484V52.7028H14.7565V50.5947Z" fill="white"/>
<path d="M14.7565 54.8105H12.6484V56.9187H14.7565V54.8105Z" fill="white"/>
<path d="M14.7565 59.0269H12.6484V61.135H14.7565V59.0269Z" fill="white"/>
<path d="M16.8659 21.0811H14.7578V23.1892H16.8659V21.0811Z" fill="white"/>
<path d="M16.8659 25.2974H14.7578V27.4055H16.8659V25.2974Z" fill="white"/>
<path d="M16.8659 29.5137H14.7578V31.6218H16.8659V29.5137Z" fill="white"/>
<path d="M16.8659 40.0542H14.7578V42.1623H16.8659V40.0542Z" fill="white"/>
<path d="M16.8659 42.1621H14.7578V44.2702H16.8659V42.1621Z" fill="white"/>
<path d="M16.8659 44.27H14.7578V46.3781H16.8659V44.27Z" fill="white"/>
<path d="M16.8659 46.3784H14.7578V48.4865H16.8659V46.3784Z" fill="white"/>
<path d="M16.8659 48.4863H14.7578V50.5944H16.8659V48.4863Z" fill="white"/>
<path d="M18.9753 2.10791H16.8672V4.21602H18.9753V2.10791Z" fill="white"/>
<path d="M18.9753 8.43262H16.8672V10.5407H18.9753V8.43262Z" fill="white"/>
<path d="M18.9753 12.6484H16.8672V14.7565H18.9753V12.6484Z" fill="white"/>
<path d="M18.9753 16.8647H16.8672V18.9729H18.9753V16.8647Z" fill="white"/>
<path d="M18.9753 21.0811H16.8672V23.1892H18.9753V21.0811Z" fill="white"/>
<path d="M18.9753 25.2974H16.8672V27.4055H18.9753V25.2974Z" fill="white"/>
<path d="M18.9753 29.5137H16.8672V31.6218H18.9753V29.5137Z" fill="white"/>
<path d="M18.9753 31.6216H16.8672V33.7297H18.9753V31.6216Z" fill="white"/>
<path d="M18.9753 35.8379H16.8672V37.946H18.9753V35.8379Z" fill="white"/>
<path d="M18.9753 37.9458H16.8672V40.0539H18.9753V37.9458Z" fill="white"/>
<path d="M18.9753 44.27H16.8672V46.3781H18.9753V44.27Z" fill="white"/>
<path d="M18.9753 46.3784H16.8672V48.4865H18.9753V46.3784Z" fill="white"/>
<path d="M18.9753 56.9189H16.8672V59.0271H18.9753V56.9189Z" fill="white"/>
<path d="M18.9753 59.0269H16.8672V61.135H18.9753V59.0269Z" fill="white"/>
<path d="M18.9753 61.1353H16.8672V63.2434H18.9753V61.1353Z" fill="white"/>
<path d="M18.9753 65.3516H16.8672V67.4597H18.9753V65.3516Z" fill="white"/>
<path d="M18.9753 67.4595H16.8672V69.5676H18.9753V67.4595Z" fill="white"/>
<path d="M18.9753 71.6758H16.8672V73.7839H18.9753V71.6758Z" fill="white"/>
<path d="M21.0768 4.21631H18.9688V6.32442H21.0768V4.21631Z" fill="white"/>
<path d="M21.0768 6.32422H18.9688V8.43233H21.0768V6.32422Z" fill="white"/>
<path d="M21.0768 8.43262H18.9688V10.5407H21.0768V8.43262Z" fill="white"/>
<path d="M21.0768 16.8647H18.9688V18.9729H21.0768V16.8647Z" fill="white"/>
<path d="M21.0768 18.9727H18.9688V21.0808H21.0768V18.9727Z" fill="white"/>
<path d="M21.0768 29.5137H18.9688V31.6218H21.0768V29.5137Z" fill="white"/>
<path d="M21.0768 31.6216H18.9688V33.7297H21.0768V31.6216Z" fill="white"/>
<path d="M21.0768 35.8379H18.9688V37.946H21.0768V35.8379Z" fill="white"/>
<path d="M21.0768 40.0542H18.9688V42.1623H21.0768V40.0542Z" fill="white"/>
<path d="M21.0768 48.4863H18.9688V50.5944H21.0768V48.4863Z" fill="white"/>
<path d="M21.0768 54.8105H18.9688V56.9187H21.0768V54.8105Z" fill="white"/>
<path d="M21.0768 56.9189H18.9688V59.0271H21.0768V56.9189Z" fill="white"/>
<path d="M21.0768 59.0269H18.9688V61.135H21.0768V59.0269Z" fill="white"/>
<path d="M21.0768 65.3516H18.9688V67.4597H21.0768V65.3516Z" fill="white"/>
<path d="M21.0768 67.4595H18.9688V69.5676H21.0768V67.4595Z" fill="white"/>
<path d="M21.0768 69.5674H18.9688V71.6755H21.0768V69.5674Z" fill="white"/>
<path d="M21.0768 71.6758H18.9688V73.7839H21.0768V71.6758Z" fill="white"/>
<path d="M21.0768 73.7837H18.9688V75.8918H21.0768V73.7837Z" fill="white"/>
<path d="M23.1862 6.32422H21.0781V8.43233H23.1862V6.32422Z" fill="white"/>
<path d="M23.1862 8.43262H21.0781V10.5407H23.1862V8.43262Z" fill="white"/>
<path d="M23.1862 12.6484H21.0781V14.7565H23.1862V12.6484Z" fill="white"/>
<path d="M23.1862 14.7568H21.0781V16.8649H23.1862V14.7568Z" fill="white"/>
<path d="M23.1862 16.8647H21.0781V18.9729H23.1862V16.8647Z" fill="white"/>
<path d="M23.1862 25.2974H21.0781V27.4055H23.1862V25.2974Z" fill="white"/>
<path d="M23.1862 27.4053H21.0781V29.5134H23.1862V27.4053Z" fill="white"/>
<path d="M23.1862 35.8379H21.0781V37.946H23.1862V35.8379Z" fill="white"/>
<path d="M23.1862 40.0542H21.0781V42.1623H23.1862V40.0542Z" fill="white"/>
<path d="M23.1862 42.1621H21.0781V44.2702H23.1862V42.1621Z" fill="white"/>
<path d="M23.1862 48.4863H21.0781V50.5944H23.1862V48.4863Z" fill="white"/>
<path d="M23.1862 52.7026H21.0781V54.8107H23.1862V52.7026Z" fill="white"/>
<path d="M23.1862 54.8105H21.0781V56.9187H23.1862V54.8105Z" fill="white"/>
<path d="M23.1862 56.9189H21.0781V59.0271H23.1862V56.9189Z" fill="white"/>
<path d="M23.1862 61.1353H21.0781V63.2434H23.1862V61.1353Z" fill="white"/>
<path d="M23.1862 71.6758H21.0781V73.7839H23.1862V71.6758Z" fill="white"/>
<path d="M25.2956 8.43262H23.1875V10.5407H25.2956V8.43262Z" fill="white"/>
<path d="M25.2956 14.7568H23.1875V16.8649H25.2956V14.7568Z" fill="white"/>
<path d="M25.2956 16.8647H23.1875V18.9729H25.2956V16.8647Z" fill="white"/>
<path d="M25.2956 23.1895H23.1875V25.2976H25.2956V23.1895Z" fill="white"/>
<path d="M25.2956 25.2974H23.1875V27.4055H25.2956V25.2974Z" fill="white"/>
<path d="M25.2956 27.4053H23.1875V29.5134H25.2956V27.4053Z" fill="white"/>
<path d="M25.2956 29.5137H23.1875V31.6218H25.2956V29.5137Z" fill="white"/>
<path d="M25.2956 35.8379H23.1875V37.946H25.2956V35.8379Z" fill="white"/>
<path d="M25.2956 40.0542H23.1875V42.1623H25.2956V40.0542Z" fill="white"/>
<path d="M25.2956 44.27H23.1875V46.3781H25.2956V44.27Z" fill="white"/>
<path d="M25.2956 50.5947H23.1875V52.7028H25.2956V50.5947Z" fill="white"/>
<path d="M25.2956 54.8105H23.1875V56.9187H25.2956V54.8105Z" fill="white"/>
<path d="M25.2956 61.1353H23.1875V63.2434H25.2956V61.1353Z" fill="white"/>
<path d="M25.2956 65.3516H23.1875V67.4597H25.2956V65.3516Z" fill="white"/>
<path d="M25.2956 71.6758H23.1875V73.7839H25.2956V71.6758Z" fill="white"/>
<path d="M27.405 0H25.2969V2.10811H27.405V0Z" fill="white"/>
<path d="M27.405 4.21631H25.2969V6.32442H27.405V4.21631Z" fill="white"/>
<path d="M27.405 6.32422H25.2969V8.43233H27.405V6.32422Z" fill="white"/>
<path d="M27.405 10.5405H25.2969V12.6486H27.405V10.5405Z" fill="white"/>
<path d="M27.405 12.6484H25.2969V14.7565H27.405V12.6484Z" fill="white"/>
<path d="M27.405 18.9727H25.2969V21.0808H27.405V18.9727Z" fill="white"/>
<path d="M27.405 23.1895H25.2969V25.2976H27.405V23.1895Z" fill="white"/>
<path d="M27.405 25.2974H25.2969V27.4055H27.405V25.2974Z" fill="white"/>
<path d="M27.405 27.4053H25.2969V29.5134H27.405V27.4053Z" fill="white"/>
<path d="M27.405 31.6216H25.2969V33.7297H27.405V31.6216Z" fill="white"/>
<path d="M27.405 37.9458H25.2969V40.0539H27.405V37.9458Z" fill="white"/>
<path d="M27.405 44.27H25.2969V46.3781H27.405V44.27Z" fill="white"/>
<path d="M27.405 46.3784H25.2969V48.4865H27.405V46.3784Z" fill="white"/>
<path d="M27.405 48.4863H25.2969V50.5944H27.405V48.4863Z" fill="white"/>
<path d="M27.405 50.5947H25.2969V52.7028H27.405V50.5947Z" fill="white"/>
<path d="M27.405 56.9189H25.2969V59.0271H27.405V56.9189Z" fill="white"/>
<path d="M27.405 61.1353H25.2969V63.2434H27.405V61.1353Z" fill="white"/>
<path d="M27.405 63.2432H25.2969V65.3513H27.405V63.2432Z" fill="white"/>
<path d="M27.405 65.3516H25.2969V67.4597H27.405V65.3516Z" fill="white"/>
<path d="M27.405 71.6758H25.2969V73.7839H27.405V71.6758Z" fill="white"/>
<path d="M27.405 75.8921H25.2969V78.0002H27.405V75.8921Z" fill="white"/>
<path d="M29.5143 4.21631H27.4062V6.32442H29.5143V4.21631Z" fill="white"/>
<path d="M29.5143 16.8647H27.4062V18.9729H29.5143V16.8647Z" fill="white"/>
<path d="M29.5143 23.1895H27.4062V25.2976H29.5143V23.1895Z" fill="white"/>
<path d="M29.5143 29.5137H27.4062V31.6218H29.5143V29.5137Z" fill="white"/>
<path d="M29.5143 37.9458H27.4062V40.0539H29.5143V37.9458Z" fill="white"/>
<path d="M29.5143 40.0542H27.4062V42.1623H29.5143V40.0542Z" fill="white"/>
<path d="M29.5143 46.3784H27.4062V48.4865H29.5143V46.3784Z" fill="white"/>
<path d="M29.5143 48.4863H27.4062V50.5944H29.5143V48.4863Z" fill="white"/>
<path d="M29.5143 52.7026H27.4062V54.8107H29.5143V52.7026Z" fill="white"/>
<path d="M29.5143 54.8105H27.4062V56.9187H29.5143V54.8105Z" fill="white"/>
<path d="M29.5143 56.9189H27.4062V59.0271H29.5143V56.9189Z" fill="white"/>
<path d="M29.5143 59.0269H27.4062V61.135H29.5143V59.0269Z" fill="white"/>
<path d="M29.5143 61.1353H27.4062V63.2434H29.5143V61.1353Z" fill="white"/>
<path d="M29.5143 67.4595H27.4062V69.5676H29.5143V67.4595Z" fill="white"/>
<path d="M29.5143 71.6758H27.4062V73.7839H29.5143V71.6758Z" fill="white"/>
<path d="M29.5143 73.7837H27.4062V75.8918H29.5143V73.7837Z" fill="white"/>
<path d="M31.6237 0H29.5156V2.10811H31.6237V0Z" fill="white"/>
<path d="M31.6237 6.32422H29.5156V8.43233H31.6237V6.32422Z" fill="white"/>
<path d="M31.6237 8.43262H29.5156V10.5407H31.6237V8.43262Z" fill="white"/>
<path d="M31.6237 10.5405H29.5156V12.6486H31.6237V10.5405Z" fill="white"/>
<path d="M31.6237 12.6484H29.5156V14.7565H31.6237V12.6484Z" fill="white"/>
<path d="M31.6237 18.9727H29.5156V21.0808H31.6237V18.9727Z" fill="white"/>
<path d="M31.6237 21.0811H29.5156V23.1892H31.6237V21.0811Z" fill="white"/>
<path d="M31.6237 27.4053H29.5156V29.5134H31.6237V27.4053Z" fill="white"/>
<path d="M31.6237 29.5137H29.5156V31.6218H31.6237V29.5137Z" fill="white"/>
<path d="M31.6237 31.6216H29.5156V33.7297H31.6237V31.6216Z" fill="white"/>
<path d="M31.6237 44.27H29.5156V46.3781H31.6237V44.27Z" fill="white"/>
<path d="M31.6237 46.3784H29.5156V48.4865H31.6237V46.3784Z" fill="white"/>
<path d="M31.6237 48.4863H29.5156V50.5944H31.6237V48.4863Z" fill="white"/>
<path d="M31.6237 50.5947H29.5156V52.7028H31.6237V50.5947Z" fill="white"/>
<path d="M31.6237 54.8105H29.5156V56.9187H31.6237V54.8105Z" fill="white"/>
<path d="M31.6237 56.9189H29.5156V59.0271H31.6237V56.9189Z" fill="white"/>
<path d="M31.6237 63.2432H29.5156V65.3513H31.6237V63.2432Z" fill="white"/>
<path d="M31.6237 67.4595H29.5156V69.5676H31.6237V67.4595Z" fill="white"/>
<path d="M31.6237 69.5674H29.5156V71.6755H31.6237V69.5674Z" fill="white"/>
<path d="M31.6237 71.6758H29.5156V73.7839H31.6237V71.6758Z" fill="white"/>
<path d="M33.7331 6.32422H31.625V8.43233H33.7331V6.32422Z" fill="white"/>
<path d="M33.7331 10.5405H31.625V12.6486H33.7331V10.5405Z" fill="white"/>
<path d="M33.7331 14.7568H31.625V16.8649H33.7331V14.7568Z" fill="white"/>
<path d="M33.7331 16.8647H31.625V18.9729H33.7331V16.8647Z" fill="white"/>
<path d="M33.7331 21.0811H31.625V23.1892H33.7331V21.0811Z" fill="white"/>
<path d="M33.7331 23.1895H31.625V25.2976H33.7331V23.1895Z" fill="white"/>
<path d="M33.7331 25.2974H31.625V27.4055H33.7331V25.2974Z" fill="white"/>
<path d="M33.7331 27.4053H31.625V29.5134H33.7331V27.4053Z" fill="white"/>
<path d="M33.7331 29.5137H31.625V31.6218H33.7331V29.5137Z" fill="white"/>
<path d="M33.7331 33.73H31.625V35.8381H33.7331V33.73Z" fill="white"/>
<path d="M33.7331 42.1621H31.625V44.2702H33.7331V42.1621Z" fill="white"/>
<path d="M33.7331 44.27H31.625V46.3781H33.7331V44.27Z" fill="white"/>
<path d="M33.7331 54.8105H31.625V56.9187H33.7331V54.8105Z" fill="white"/>
<path d="M33.7331 61.1353H31.625V63.2434H33.7331V61.1353Z" fill="white"/>
<path d="M33.7331 65.3516H31.625V67.4597H33.7331V65.3516Z" fill="white"/>
<path d="M33.7331 67.4595H31.625V69.5676H33.7331V67.4595Z" fill="white"/>
<path d="M33.7331 71.6758H31.625V73.7839H33.7331V71.6758Z" fill="white"/>
<path d="M35.8347 2.10791H33.7266V4.21602H35.8347V2.10791Z" fill="white"/>
<path d="M35.8347 4.21631H33.7266V6.32442H35.8347V4.21631Z" fill="white"/>
<path d="M35.8347 10.5405H33.7266V12.6486H35.8347V10.5405Z" fill="white"/>
<path d="M35.8347 12.6484H33.7266V14.7565H35.8347V12.6484Z" fill="white"/>
<path d="M35.8347 14.7568H33.7266V16.8649H35.8347V14.7568Z" fill="white"/>
<path d="M35.8347 18.9727H33.7266V21.0808H35.8347V18.9727Z" fill="white"/>
<path d="M35.8347 21.0811H33.7266V23.1892H35.8347V21.0811Z" fill="white"/>
<path d="M35.8347 23.1895H33.7266V25.2976H35.8347V23.1895Z" fill="white"/>
<path d="M35.8347 25.2974H33.7266V27.4055H35.8347V25.2974Z" fill="white"/>
<path d="M35.8347 29.5137H33.7266V31.6218H35.8347V29.5137Z" fill="white"/>
<path d="M35.8347 31.6216H33.7266V33.7297H35.8347V31.6216Z" fill="white"/>
<path d="M35.8347 33.73H33.7266V35.8381H35.8347V33.73Z" fill="white"/>
<path d="M35.8347 40.0542H33.7266V42.1623H35.8347V40.0542Z" fill="white"/>
<path d="M35.8347 42.1621H33.7266V44.2702H35.8347V42.1621Z" fill="white"/>
<path d="M35.8347 50.5947H33.7266V52.7028H35.8347V50.5947Z" fill="white"/>
<path d="M35.8347 56.9189H33.7266V59.0271H35.8347V56.9189Z" fill="white"/>
<path d="M35.8347 59.0269H33.7266V61.135H35.8347V59.0269Z" fill="white"/>
<path d="M35.8347 61.1353H33.7266V63.2434H35.8347V61.1353Z" fill="white"/>
<path d="M35.8347 63.2432H33.7266V65.3513H35.8347V63.2432Z" fill="white"/>
<path d="M35.8347 65.3516H33.7266V67.4597H35.8347V65.3516Z" fill="white"/>
<path d="M35.8347 69.5674H33.7266V71.6755H35.8347V69.5674Z" fill="white"/>
<path d="M35.8347 71.6758H33.7266V73.7839H35.8347V71.6758Z" fill="white"/>
<path d="M35.8347 75.8921H33.7266V78.0002H35.8347V75.8921Z" fill="white"/>
<path d="M37.944 0H35.8359V2.10811H37.944V0Z" fill="white"/>
<path d="M37.944 2.10791H35.8359V4.21602H37.944V2.10791Z" fill="white"/>
<path d="M37.944 4.21631H35.8359V6.32442H37.944V4.21631Z" fill="white"/>
<path d="M37.944 6.32422H35.8359V8.43233H37.944V6.32422Z" fill="white"/>
<path d="M37.944 8.43262H35.8359V10.5407H37.944V8.43262Z" fill="white"/>
<path d="M37.944 18.9727H35.8359V21.0808H37.944V18.9727Z" fill="white"/>
<path d="M37.944 40.0542H35.8359V42.1623H37.944V40.0542Z" fill="white"/>
<path d="M37.944 42.1621H35.8359V44.2702H37.944V42.1621Z" fill="white"/>
<path d="M37.944 46.3784H35.8359V48.4865H37.944V46.3784Z" fill="white"/>
<path d="M37.944 50.5947H35.8359V52.7028H37.944V50.5947Z" fill="white"/>
<path d="M37.944 52.7026H35.8359V54.8107H37.944V52.7026Z" fill="white"/>
<path d="M37.944 56.9189H35.8359V59.0271H37.944V56.9189Z" fill="white"/>
<path d="M37.944 59.0269H35.8359V61.135H37.944V59.0269Z" fill="white"/>
<path d="M37.944 67.4595H35.8359V69.5676H37.944V67.4595Z" fill="white"/>
<path d="M37.944 69.5674H35.8359V71.6755H37.944V69.5674Z" fill="white"/>
<path d="M40.0534 2.10791H37.9453V4.21602H40.0534V2.10791Z" fill="white"/>
<path d="M40.0534 12.6484H37.9453V14.7565H40.0534V12.6484Z" fill="white"/>
<path d="M40.0534 16.8647H37.9453V18.9729H40.0534V16.8647Z" fill="white"/>
<path d="M40.0534 21.0811H37.9453V23.1892H40.0534V21.0811Z" fill="white"/>
<path d="M40.0534 27.4053H37.9453V29.5134H40.0534V27.4053Z" fill="white"/>
<path d="M40.0534 29.5137H37.9453V31.6218H40.0534V29.5137Z" fill="white"/>
<path d="M40.0534 31.6216H37.9453V33.7297H40.0534V31.6216Z" fill="white"/>
<path d="M40.0534 42.1621H37.9453V44.2702H40.0534V42.1621Z" fill="white"/>
<path d="M40.0534 46.3784H37.9453V48.4865H40.0534V46.3784Z" fill="white"/>
<path d="M40.0534 48.4863H37.9453V50.5944H40.0534V48.4863Z" fill="white"/>
<path d="M40.0534 50.5947H37.9453V52.7028H40.0534V50.5947Z" fill="white"/>
<path d="M40.0534 56.9189H37.9453V59.0271H40.0534V56.9189Z" fill="white"/>
<path d="M40.0534 59.0269H37.9453V61.135H40.0534V59.0269Z" fill="white"/>
<path d="M40.0534 67.4595H37.9453V69.5676H40.0534V67.4595Z" fill="white"/>
<path d="M40.0534 69.5674H37.9453V71.6755H40.0534V69.5674Z" fill="white"/>
<path d="M42.1628 4.21631H40.0547V6.32442H42.1628V4.21631Z" fill="white"/>
<path d="M42.1628 6.32422H40.0547V8.43233H42.1628V6.32422Z" fill="white"/>
<path d="M42.1628 10.5405H40.0547V12.6486H42.1628V10.5405Z" fill="white"/>
<path d="M42.1628 16.8647H40.0547V18.9729H42.1628V16.8647Z" fill="white"/>
<path d="M42.1628 18.9727H40.0547V21.0808H42.1628V18.9727Z" fill="white"/>
<path d="M42.1628 21.0811H40.0547V23.1892H42.1628V21.0811Z" fill="white"/>
<path d="M42.1628 27.4053H40.0547V29.5134H42.1628V27.4053Z" fill="white"/>
<path d="M42.1628 35.8379H40.0547V37.946H42.1628V35.8379Z" fill="white"/>
<path d="M42.1628 40.0542H40.0547V42.1623H42.1628V40.0542Z" fill="white"/>
<path d="M42.1628 44.27H40.0547V46.3781H42.1628V44.27Z" fill="white"/>
<path d="M42.1628 46.3784H40.0547V48.4865H42.1628V46.3784Z" fill="white"/>
<path d="M42.1628 48.4863H40.0547V50.5944H42.1628V48.4863Z" fill="white"/>
<path d="M42.1628 50.5947H40.0547V52.7028H42.1628V50.5947Z" fill="white"/>
<path d="M42.1628 56.9189H40.0547V59.0271H42.1628V56.9189Z" fill="white"/>
<path d="M42.1628 65.3516H40.0547V67.4597H42.1628V65.3516Z" fill="white"/>
<path d="M42.1628 67.4595H40.0547V69.5676H42.1628V67.4595Z" fill="white"/>
<path d="M42.1628 71.6758H40.0547V73.7839H42.1628V71.6758Z" fill="white"/>
<path d="M42.1628 73.7837H40.0547V75.8918H42.1628V73.7837Z" fill="white"/>
<path d="M44.2722 8.43262H42.1641V10.5407H44.2722V8.43262Z" fill="white"/>
<path d="M44.2722 12.6484H42.1641V14.7565H44.2722V12.6484Z" fill="white"/>
<path d="M44.2722 14.7568H42.1641V16.8649H44.2722V14.7568Z" fill="white"/>
<path d="M44.2722 18.9727H42.1641V21.0808H44.2722V18.9727Z" fill="white"/>
<path d="M44.2722 23.1895H42.1641V25.2976H44.2722V23.1895Z" fill="white"/>
<path d="M44.2722 27.4053H42.1641V29.5134H44.2722V27.4053Z" fill="white"/>
<path d="M44.2722 29.5137H42.1641V31.6218H44.2722V29.5137Z" fill="white"/>
<path d="M44.2722 31.6216H42.1641V33.7297H44.2722V31.6216Z" fill="white"/>
<path d="M44.2722 44.27H42.1641V46.3781H44.2722V44.27Z" fill="white"/>
<path d="M44.2722 46.3784H42.1641V48.4865H44.2722V46.3784Z" fill="white"/>
<path d="M44.2722 50.5947H42.1641V52.7028H44.2722V50.5947Z" fill="white"/>
<path d="M44.2722 61.1353H42.1641V63.2434H44.2722V61.1353Z" fill="white"/>
<path d="M44.2722 63.2432H42.1641V65.3513H44.2722V63.2432Z" fill="white"/>
<path d="M44.2722 71.6758H42.1641V73.7839H44.2722V71.6758Z" fill="white"/>
<path d="M46.3815 2.10791H44.2734V4.21602H46.3815V2.10791Z" fill="white"/>
<path d="M46.3815 10.5405H44.2734V12.6486H46.3815V10.5405Z" fill="white"/>
<path d="M46.3815 16.8647H44.2734V18.9729H46.3815V16.8647Z" fill="white"/>
<path d="M46.3815 29.5137H44.2734V31.6218H46.3815V29.5137Z" fill="white"/>
<path d="M46.3815 31.6216H44.2734V33.7297H46.3815V31.6216Z" fill="white"/>
<path d="M46.3815 33.73H44.2734V35.8381H46.3815V33.73Z" fill="white"/>
<path d="M46.3815 35.8379H44.2734V37.946H46.3815V35.8379Z" fill="white"/>
<path d="M46.3815 46.3784H44.2734V48.4865H46.3815V46.3784Z" fill="white"/>
<path d="M46.3815 48.4863H44.2734V50.5944H46.3815V48.4863Z" fill="white"/>
<path d="M46.3815 56.9189H44.2734V59.0271H46.3815V56.9189Z" fill="white"/>
<path d="M46.3815 61.1353H44.2734V63.2434H46.3815V61.1353Z" fill="white"/>
<path d="M46.3815 67.4595H44.2734V69.5676H46.3815V67.4595Z" fill="white"/>
<path d="M48.4831 4.21631H46.375V6.32442H48.4831V4.21631Z" fill="white"/>
<path d="M48.4831 6.32422H46.375V8.43233H48.4831V6.32422Z" fill="white"/>
<path d="M48.4831 8.43262H46.375V10.5407H48.4831V8.43262Z" fill="white"/>
<path d="M48.4831 12.6484H46.375V14.7565H48.4831V12.6484Z" fill="white"/>
<path d="M48.4831 14.7568H46.375V16.8649H48.4831V14.7568Z" fill="white"/>
<path d="M48.4831 16.8647H46.375V18.9729H48.4831V16.8647Z" fill="white"/>
<path d="M48.4831 18.9727H46.375V21.0808H48.4831V18.9727Z" fill="white"/>
<path d="M48.4831 25.2974H46.375V27.4055H48.4831V25.2974Z" fill="white"/>
<path d="M48.4831 27.4053H46.375V29.5134H48.4831V27.4053Z" fill="white"/>
<path d="M48.4831 37.9458H46.375V40.0539H48.4831V37.9458Z" fill="white"/>
<path d="M48.4831 44.27H46.375V46.3781H48.4831V44.27Z" fill="white"/>
<path d="M48.4831 46.3784H46.375V48.4865H48.4831V46.3784Z" fill="white"/>
<path d="M48.4831 48.4863H46.375V50.5944H48.4831V48.4863Z" fill="white"/>
<path d="M48.4831 50.5947H46.375V52.7028H48.4831V50.5947Z" fill="white"/>
<path d="M48.4831 56.9189H46.375V59.0271H48.4831V56.9189Z" fill="white"/>
<path d="M48.4831 59.0269H46.375V61.135H48.4831V59.0269Z" fill="white"/>
<path d="M48.4831 63.2432H46.375V65.3513H48.4831V63.2432Z" fill="white"/>
<path d="M48.4831 69.5674H46.375V71.6755H48.4831V69.5674Z" fill="white"/>
<path d="M50.5925 0H48.4844V2.10811H50.5925V0Z" fill="white"/>
<path d="M50.5925 2.10791H48.4844V4.21602H50.5925V2.10791Z" fill="white"/>
<path d="M50.5925 4.21631H48.4844V6.32442H50.5925V4.21631Z" fill="white"/>
<path d="M50.5925 6.32422H48.4844V8.43233H50.5925V6.32422Z" fill="white"/>
<path d="M50.5925 27.4053H48.4844V29.5134H50.5925V27.4053Z" fill="white"/>
<path d="M50.5925 29.5137H48.4844V31.6218H50.5925V29.5137Z" fill="white"/>
<path d="M50.5925 37.9458H48.4844V40.0539H50.5925V37.9458Z" fill="white"/>
<path d="M50.5925 42.1621H48.4844V44.2702H50.5925V42.1621Z" fill="white"/>
<path d="M50.5925 44.27H48.4844V46.3781H50.5925V44.27Z" fill="white"/>
<path d="M50.5925 50.5947H48.4844V52.7028H50.5925V50.5947Z" fill="white"/>
<path d="M50.5925 54.8105H48.4844V56.9187H50.5925V54.8105Z" fill="white"/>
<path d="M50.5925 59.0269H48.4844V61.135H50.5925V59.0269Z" fill="white"/>
<path d="M50.5925 63.2432H48.4844V65.3513H50.5925V63.2432Z" fill="white"/>
<path d="M50.5925 65.3516H48.4844V67.4597H50.5925V65.3516Z" fill="white"/>
<path d="M50.5925 69.5674H48.4844V71.6755H50.5925V69.5674Z" fill="white"/>
<path d="M50.5925 71.6758H48.4844V73.7839H50.5925V71.6758Z" fill="white"/>
<path d="M52.7018 0H50.5938V2.10811H52.7018V0Z" fill="white"/>
<path d="M52.7018 8.43262H50.5938V10.5407H52.7018V8.43262Z" fill="white"/>
<path d="M52.7018 12.6484H50.5938V14.7565H52.7018V12.6484Z" fill="white"/>
<path d="M52.7018 14.7568H50.5938V16.8649H52.7018V14.7568Z" fill="white"/>
<path d="M52.7018 16.8647H50.5938V18.9729H52.7018V16.8647Z" fill="white"/>
<path d="M52.7018 18.9727H50.5938V21.0808H52.7018V18.9727Z" fill="white"/>
<path d="M52.7018 27.4053H50.5938V29.5134H52.7018V27.4053Z" fill="white"/>
<path d="M52.7018 31.6216H50.5938V33.7297H52.7018V31.6216Z" fill="white"/>
<path d="M52.7018 35.8379H50.5938V37.946H52.7018V35.8379Z" fill="white"/>
<path d="M52.7018 37.9458H50.5938V40.0539H52.7018V37.9458Z" fill="white"/>
<path d="M52.7018 42.1621H50.5938V44.2702H52.7018V42.1621Z" fill="white"/>
<path d="M52.7018 44.27H50.5938V46.3781H52.7018V44.27Z" fill="white"/>
<path d="M52.7018 46.3784H50.5938V48.4865H52.7018V46.3784Z" fill="white"/>
<path d="M52.7018 48.4863H50.5938V50.5944H52.7018V48.4863Z" fill="white"/>
<path d="M52.7018 50.5947H50.5938V52.7028H52.7018V50.5947Z" fill="white"/>
<path d="M52.7018 56.9189H50.5938V59.0271H52.7018V56.9189Z" fill="white"/>
<path d="M52.7018 61.1353H50.5938V63.2434H52.7018V61.1353Z" fill="white"/>
<path d="M52.7018 63.2432H50.5938V65.3513H52.7018V63.2432Z" fill="white"/>
<path d="M52.7018 71.6758H50.5938V73.7839H52.7018V71.6758Z" fill="white"/>
<path d="M52.7018 73.7837H50.5938V75.8918H52.7018V73.7837Z" fill="white"/>
<path d="M52.7018 75.8921H50.5938V78.0002H52.7018V75.8921Z" fill="white"/>
<path d="M54.8112 0H52.7031V2.10811H54.8112V0Z" fill="white"/>
<path d="M54.8112 4.21631H52.7031V6.32442H54.8112V4.21631Z" fill="white"/>
<path d="M54.8112 8.43262H52.7031V10.5407H54.8112V8.43262Z" fill="white"/>
<path d="M54.8112 14.7568H52.7031V16.8649H54.8112V14.7568Z" fill="white"/>
<path d="M54.8112 16.8647H52.7031V18.9729H54.8112V16.8647Z" fill="white"/>
<path d="M54.8112 18.9727H52.7031V21.0808H54.8112V18.9727Z" fill="white"/>
<path d="M54.8112 21.0811H52.7031V23.1892H54.8112V21.0811Z" fill="white"/>
<path d="M54.8112 23.1895H52.7031V25.2976H54.8112V23.1895Z" fill="white"/>
<path d="M54.8112 25.2974H52.7031V27.4055H54.8112V25.2974Z" fill="white"/>
<path d="M54.8112 31.6216H52.7031V33.7297H54.8112V31.6216Z" fill="white"/>
<path d="M54.8112 40.0542H52.7031V42.1623H54.8112V40.0542Z" fill="white"/>
<path d="M54.8112 48.4863H52.7031V50.5944H54.8112V48.4863Z" fill="white"/>
<path d="M54.8112 54.8105H52.7031V56.9187H54.8112V54.8105Z" fill="white"/>
<path d="M54.8112 56.9189H52.7031V59.0271H54.8112V56.9189Z" fill="white"/>
<path d="M54.8112 59.0269H52.7031V61.135H54.8112V59.0269Z" fill="white"/>
<path d="M54.8112 67.4595H52.7031V69.5676H54.8112V67.4595Z" fill="white"/>
<path d="M54.8112 69.5674H52.7031V71.6755H54.8112V69.5674Z" fill="white"/>
<path d="M56.9206 4.21631H54.8125V6.32442H56.9206V4.21631Z" fill="white"/>
<path d="M56.9206 12.6484H54.8125V14.7565H56.9206V12.6484Z" fill="white"/>
<path d="M56.9206 16.8647H54.8125V18.9729H56.9206V16.8647Z" fill="white"/>
<path d="M56.9206 21.0811H54.8125V23.1892H56.9206V21.0811Z" fill="white"/>
<path d="M56.9206 25.2974H54.8125V27.4055H56.9206V25.2974Z" fill="white"/>
<path d="M56.9206 27.4053H54.8125V29.5134H56.9206V27.4053Z" fill="white"/>
<path d="M56.9206 33.73H54.8125V35.8381H56.9206V33.73Z" fill="white"/>
<path d="M56.9206 35.8379H54.8125V37.946H56.9206V35.8379Z" fill="white"/>
<path d="M56.9206 37.9458H54.8125V40.0539H56.9206V37.9458Z" fill="white"/>
<path d="M56.9206 46.3784H54.8125V48.4865H56.9206V46.3784Z" fill="white"/>
<path d="M56.9206 48.4863H54.8125V50.5944H56.9206V48.4863Z" fill="white"/>
<path d="M56.9206 50.5947H54.8125V52.7028H56.9206V50.5947Z" fill="white"/>
<path d="M56.9206 54.8105H54.8125V56.9187H56.9206V54.8105Z" fill="white"/>
<path d="M56.9206 56.9189H54.8125V59.0271H56.9206V56.9189Z" fill="white"/>
<path d="M56.9206 59.0269H54.8125V61.135H56.9206V59.0269Z" fill="white"/>
<path d="M56.9206 61.1353H54.8125V63.2434H56.9206V61.1353Z" fill="white"/>
<path d="M56.9206 67.4595H54.8125V69.5676H56.9206V67.4595Z" fill="white"/>
<path d="M56.9206 71.6758H54.8125V73.7839H56.9206V71.6758Z" fill="white"/>
<path d="M59.03 8.43262H56.9219V10.5407H59.03V8.43262Z" fill="white"/>
<path d="M59.03 10.5405H56.9219V12.6486H59.03V10.5405Z" fill="white"/>
<path d="M59.03 18.9727H56.9219V21.0808H59.03V18.9727Z" fill="white"/>
<path d="M59.03 23.1895H56.9219V25.2976H59.03V23.1895Z" fill="white"/>
<path d="M59.03 31.6216H56.9219V33.7297H59.03V31.6216Z" fill="white"/>
<path d="M59.03 35.8379H56.9219V37.946H59.03V35.8379Z" fill="white"/>
<path d="M59.03 40.0542H56.9219V42.1623H59.03V40.0542Z" fill="white"/>
<path d="M59.03 44.27H56.9219V46.3781H59.03V44.27Z" fill="white"/>
<path d="M59.03 46.3784H56.9219V48.4865H59.03V46.3784Z" fill="white"/>
<path d="M59.03 48.4863H56.9219V50.5944H59.03V48.4863Z" fill="white"/>
<path d="M59.03 50.5947H56.9219V52.7028H59.03V50.5947Z" fill="white"/>
<path d="M59.03 54.8105H56.9219V56.9187H59.03V54.8105Z" fill="white"/>
<path d="M59.03 63.2432H56.9219V65.3513H59.03V63.2432Z" fill="white"/>
<path d="M59.03 65.3516H56.9219V67.4597H59.03V65.3516Z" fill="white"/>
<path d="M59.03 67.4595H56.9219V69.5676H59.03V67.4595Z" fill="white"/>
<path d="M59.03 71.6758H56.9219V73.7839H59.03V71.6758Z" fill="white"/>
<path d="M59.03 75.8921H56.9219V78.0002H59.03V75.8921Z" fill="white"/>
<path d="M61.1393 0H59.0312V2.10811H61.1393V0Z" fill="white"/>
<path d="M61.1393 2.10791H59.0312V4.21602H61.1393V2.10791Z" fill="white"/>
<path d="M61.1393 8.43262H59.0312V10.5407H61.1393V8.43262Z" fill="white"/>
<path d="M61.1393 12.6484H59.0312V14.7565H61.1393V12.6484Z" fill="white"/>
<path d="M61.1393 14.7568H59.0312V16.8649H61.1393V14.7568Z" fill="white"/>
<path d="M61.1393 18.9727H59.0312V21.0808H61.1393V18.9727Z" fill="white"/>
<path d="M61.1393 23.1895H59.0312V25.2976H61.1393V23.1895Z" fill="white"/>
<path d="M61.1393 27.4053H59.0312V29.5134H61.1393V27.4053Z" fill="white"/>
<path d="M61.1393 42.1621H59.0312V44.2702H61.1393V42.1621Z" fill="white"/>
<path d="M61.1393 44.27H59.0312V46.3781H61.1393V44.27Z" fill="white"/>
<path d="M61.1393 46.3784H59.0312V48.4865H61.1393V46.3784Z" fill="white"/>
<path d="M61.1393 50.5947H59.0312V52.7028H61.1393V50.5947Z" fill="white"/>
<path d="M61.1393 56.9189H59.0312V59.0271H61.1393V56.9189Z" fill="white"/>
<path d="M61.1393 59.0269H59.0312V61.135H61.1393V59.0269Z" fill="white"/>
<path d="M61.1393 61.1353H59.0312V63.2434H61.1393V61.1353Z" fill="white"/>
<path d="M61.1393 63.2432H59.0312V65.3513H61.1393V63.2432Z" fill="white"/>
<path d="M61.1393 65.3516H59.0312V67.4597H61.1393V65.3516Z" fill="white"/>
<path d="M61.1393 67.4595H59.0312V69.5676H61.1393V67.4595Z" fill="white"/>
<path d="M61.1393 71.6758H59.0312V73.7839H61.1393V71.6758Z" fill="white"/>
<path d="M61.1393 75.8921H59.0312V78.0002H61.1393V75.8921Z" fill="white"/>
<path d="M63.2409 16.8647H61.1328V18.9729H63.2409V16.8647Z" fill="white"/>
<path d="M63.2409 18.9727H61.1328V21.0808H63.2409V18.9727Z" fill="white"/>
<path d="M63.2409 21.0811H61.1328V23.1892H63.2409V21.0811Z" fill="white"/>
<path d="M63.2409 27.4053H61.1328V29.5134H63.2409V27.4053Z" fill="white"/>
<path d="M63.2409 29.5137H61.1328V31.6218H63.2409V29.5137Z" fill="white"/>
<path d="M63.2409 31.6216H61.1328V33.7297H63.2409V31.6216Z" fill="white"/>
<path d="M63.2409 33.73H61.1328V35.8381H63.2409V33.73Z" fill="white"/>
<path d="M63.2409 40.0542H61.1328V42.1623H63.2409V40.0542Z" fill="white"/>
<path d="M63.2409 44.27H61.1328V46.3781H63.2409V44.27Z" fill="white"/>
<path d="M63.2409 48.4863H61.1328V50.5944H63.2409V48.4863Z" fill="white"/>
<path d="M63.2409 52.7026H61.1328V54.8107H63.2409V52.7026Z" fill="white"/>
<path d="M63.2409 59.0269H61.1328V61.135H63.2409V59.0269Z" fill="white"/>
<path d="M63.2409 67.4595H61.1328V69.5676H63.2409V67.4595Z" fill="white"/>
<path d="M63.2409 69.5674H61.1328V71.6755H63.2409V69.5674Z" fill="white"/>
<path d="M65.3503 18.9727H63.2422V21.0808H65.3503V18.9727Z" fill="white"/>
<path d="M65.3503 21.0811H63.2422V23.1892H65.3503V21.0811Z" fill="white"/>
<path d="M65.3503 31.6216H63.2422V33.7297H65.3503V31.6216Z" fill="white"/>
<path d="M65.3503 35.8379H63.2422V37.946H65.3503V35.8379Z" fill="white"/>
<path d="M65.3503 37.9458H63.2422V40.0539H65.3503V37.9458Z" fill="white"/>
<path d="M65.3503 40.0542H63.2422V42.1623H65.3503V40.0542Z" fill="white"/>
<path d="M65.3503 42.1621H63.2422V44.2702H65.3503V42.1621Z" fill="white"/>
<path d="M65.3503 48.4863H63.2422V50.5944H65.3503V48.4863Z" fill="white"/>
<path d="M65.3503 50.5947H63.2422V52.7028H65.3503V50.5947Z" fill="white"/>
<path d="M65.3503 52.7026H63.2422V54.8107H65.3503V52.7026Z" fill="white"/>
<path d="M65.3503 59.0269H63.2422V61.135H65.3503V59.0269Z" fill="white"/>
<path d="M65.3503 63.2432H63.2422V65.3513H65.3503V63.2432Z" fill="white"/>
<path d="M65.3503 67.4595H63.2422V69.5676H65.3503V67.4595Z" fill="white"/>
<path d="M65.3503 69.5674H63.2422V71.6755H65.3503V69.5674Z" fill="white"/>
<path d="M65.3503 71.6758H63.2422V73.7839H65.3503V71.6758Z" fill="white"/>
<path d="M67.4597 18.9727H65.3516V21.0808H67.4597V18.9727Z" fill="white"/>
<path d="M67.4597 23.1895H65.3516V25.2976H67.4597V23.1895Z" fill="white"/>
<path d="M67.4597 25.2974H65.3516V27.4055H67.4597V25.2974Z" fill="white"/>
<path d="M67.4597 27.4053H65.3516V29.5134H67.4597V27.4053Z" fill="white"/>
<path d="M67.4597 29.5137H65.3516V31.6218H67.4597V29.5137Z" fill="white"/>
<path d="M67.4597 46.3784H65.3516V48.4865H67.4597V46.3784Z" fill="white"/>
<path d="M67.4597 48.4863H65.3516V50.5944H67.4597V48.4863Z" fill="white"/>
<path d="M67.4597 56.9189H65.3516V59.0271H67.4597V56.9189Z" fill="white"/>
<path d="M67.4597 59.0269H65.3516V61.135H67.4597V59.0269Z" fill="white"/>
<path d="M67.4597 67.4595H65.3516V69.5676H67.4597V67.4595Z" fill="white"/>
<path d="M67.4597 71.6758H65.3516V73.7839H67.4597V71.6758Z" fill="white"/>
<path d="M67.4597 75.8921H65.3516V78.0002H67.4597V75.8921Z" fill="white"/>
<path d="M69.569 16.8647H67.4609V18.9729H69.569V16.8647Z" fill="white"/>
<path d="M69.569 18.9727H67.4609V21.0808H69.569V18.9727Z" fill="white"/>
<path d="M69.569 29.5137H67.4609V31.6218H69.569V29.5137Z" fill="white"/>
<path d="M69.569 31.6216H67.4609V33.7297H69.569V31.6216Z" fill="white"/>
<path d="M69.569 35.8379H67.4609V37.946H69.569V35.8379Z" fill="white"/>
<path d="M69.569 37.9458H67.4609V40.0539H69.569V37.9458Z" fill="white"/>
<path d="M69.569 46.3784H67.4609V48.4865H69.569V46.3784Z" fill="white"/>
<path d="M69.569 48.4863H67.4609V50.5944H69.569V48.4863Z" fill="white"/>
<path d="M69.569 50.5947H67.4609V52.7028H69.569V50.5947Z" fill="white"/>
<path d="M69.569 59.0269H67.4609V61.135H69.569V59.0269Z" fill="white"/>
<path d="M69.569 61.1353H67.4609V63.2434H69.569V61.1353Z" fill="white"/>
<path d="M69.569 63.2432H67.4609V65.3513H69.569V63.2432Z" fill="white"/>
<path d="M69.569 65.3516H67.4609V67.4597H69.569V65.3516Z" fill="white"/>
<path d="M69.569 67.4595H67.4609V69.5676H69.569V67.4595Z" fill="white"/>
<path d="M69.569 69.5674H67.4609V71.6755H69.569V69.5674Z" fill="white"/>
<path d="M69.569 71.6758H67.4609V73.7839H69.569V71.6758Z" fill="white"/>
<path d="M69.569 75.8921H67.4609V78.0002H69.569V75.8921Z" fill="white"/>
<path d="M71.6706 23.1895H69.5625V25.2976H71.6706V23.1895Z" fill="white"/>
<path d="M71.6706 25.2974H69.5625V27.4055H71.6706V25.2974Z" fill="white"/>
<path d="M71.6706 27.4053H69.5625V29.5134H71.6706V27.4053Z" fill="white"/>
<path d="M71.6706 33.73H69.5625V35.8381H71.6706V33.73Z" fill="white"/>
<path d="M71.6706 37.9458H69.5625V40.0539H71.6706V37.9458Z" fill="white"/>
<path d="M71.6706 40.0542H69.5625V42.1623H71.6706V40.0542Z" fill="white"/>
<path d="M71.6706 42.1621H69.5625V44.2702H71.6706V42.1621Z" fill="white"/>
<path d="M71.6706 48.4863H69.5625V50.5944H71.6706V48.4863Z" fill="white"/>
<path d="M71.6706 52.7026H69.5625V54.8107H71.6706V52.7026Z" fill="white"/>
<path d="M71.6706 54.8105H69.5625V56.9187H71.6706V54.8105Z" fill="white"/>
<path d="M71.6706 63.2432H69.5625V65.3513H71.6706V63.2432Z" fill="white"/>
<path d="M71.6706 65.3516H69.5625V67.4597H71.6706V65.3516Z" fill="white"/>
<path d="M71.6706 69.5674H69.5625V71.6755H71.6706V69.5674Z" fill="white"/>
<path d="M71.6706 73.7837H69.5625V75.8918H71.6706V73.7837Z" fill="white"/>
<path d="M73.7878 21.0811H71.6797V23.1892H73.7878V21.0811Z" fill="white"/>
<path d="M73.7878 23.1895H71.6797V25.2976H73.7878V23.1895Z" fill="white"/>
<path d="M73.7878 29.5137H71.6797V31.6218H73.7878V29.5137Z" fill="white"/>
<path d="M73.7878 35.8379H71.6797V37.946H73.7878V35.8379Z" fill="white"/>
<path d="M73.7878 37.9458H71.6797V40.0539H73.7878V37.9458Z" fill="white"/>
<path d="M73.7878 42.1621H71.6797V44.2702H73.7878V42.1621Z" fill="white"/>
<path d="M73.7878 44.27H71.6797V46.3781H73.7878V44.27Z" fill="white"/>
<path d="M73.7878 48.4863H71.6797V50.5944H73.7878V48.4863Z" fill="white"/>
<path d="M73.7878 50.5947H71.6797V52.7028H73.7878V50.5947Z" fill="white"/>
<path d="M73.7878 59.0269H71.6797V61.135H73.7878V59.0269Z" fill="white"/>
<path d="M73.7878 63.2432H71.6797V65.3513H73.7878V63.2432Z" fill="white"/>
<path d="M73.7878 65.3516H71.6797V67.4597H73.7878V65.3516Z" fill="white"/>
<path d="M73.7878 71.6758H71.6797V73.7839H73.7878V71.6758Z" fill="white"/>
<path d="M73.7878 73.7837H71.6797V75.8918H73.7878V73.7837Z" fill="white"/>
<path d="M75.8893 16.8647H73.7812V18.9729H75.8893V16.8647Z" fill="white"/>
<path d="M75.8893 18.9727H73.7812V21.0808H75.8893V18.9727Z" fill="white"/>
<path d="M75.8893 23.1895H73.7812V25.2976H75.8893V23.1895Z" fill="white"/>
<path d="M75.8893 25.2974H73.7812V27.4055H75.8893V25.2974Z" fill="white"/>
<path d="M75.8893 27.4053H73.7812V29.5134H75.8893V27.4053Z" fill="white"/>
<path d="M75.8893 33.73H73.7812V35.8381H75.8893V33.73Z" fill="white"/>
<path d="M75.8893 35.8379H73.7812V37.946H75.8893V35.8379Z" fill="white"/>
<path d="M75.8893 37.9458H73.7812V40.0539H75.8893V37.9458Z" fill="white"/>
<path d="M75.8893 44.27H73.7812V46.3781H75.8893V44.27Z" fill="white"/>
<path d="M75.8893 63.2432H73.7812V65.3513H75.8893V63.2432Z" fill="white"/>
<path d="M75.8893 67.4595H73.7812V69.5676H75.8893V67.4595Z" fill="white"/>
<path d="M75.8893 69.5674H73.7812V71.6755H75.8893V69.5674Z" fill="white"/>
<path d="M75.8893 71.6758H73.7812V73.7839H75.8893V71.6758Z" fill="white"/>
<path d="M75.8893 73.7837H73.7812V75.8918H75.8893V73.7837Z" fill="white"/>
<path d="M77.9987 18.9727H75.8906V21.0808H77.9987V18.9727Z" fill="white"/>
<path d="M77.9987 21.0811H75.8906V23.1892H77.9987V21.0811Z" fill="white"/>
<path d="M77.9987 23.1895H75.8906V25.2976H77.9987V23.1895Z" fill="white"/>
<path d="M77.9987 31.6216H75.8906V33.7297H77.9987V31.6216Z" fill="white"/>
<path d="M77.9987 33.73H75.8906V35.8381H77.9987V33.73Z" fill="white"/>
<path d="M77.9987 35.8379H75.8906V37.946H77.9987V35.8379Z" fill="white"/>
<path d="M77.9987 40.0542H75.8906V42.1623H77.9987V40.0542Z" fill="white"/>
<path d="M77.9987 42.1621H75.8906V44.2702H77.9987V42.1621Z" fill="white"/>
<path d="M77.9987 44.27H75.8906V46.3781H77.9987V44.27Z" fill="white"/>
<path d="M77.9987 46.3784H75.8906V48.4865H77.9987V46.3784Z" fill="white"/>
<path d="M77.9987 50.5947H75.8906V52.7028H77.9987V50.5947Z" fill="white"/>
<path d="M77.9987 54.8105H75.8906V56.9187H77.9987V54.8105Z" fill="white"/>
<path d="M77.9987 56.9189H75.8906V59.0271H77.9987V56.9189Z" fill="white"/>
<path d="M77.9987 61.1353H75.8906V63.2434H77.9987V61.1353Z" fill="white"/>
<path d="M77.9987 71.6758H75.8906V73.7839H77.9987V71.6758Z" fill="white"/>
<path d="M77.9987 73.7837H75.8906V75.8918H77.9987V73.7837Z" fill="white"/>
<path d="M77.9987 75.8921H75.8906V78.0002H77.9987V75.8921Z" fill="white"/>
</mask>
<g mask="url(#mask0_9168_16606)">
<path d="M82.9156 -4.91895H-4.92188V82.9189H82.9156V-4.91895Z" fill="black"/>
</g>
<mask id="mask1_9168_16606" style="mask-type:luminance" maskUnits="userSpaceOnUse" x="0" y="0" width="15" height="15">
<path fill-rule="evenodd" clip-rule="evenodd" d="M0 0V14.7568H14.7567V0H0ZM2.1081 2.10811H12.6486V12.6486H2.1081V2.10811Z" fill="white"/>
</mask>
<g mask="url(#mask1_9168_16606)">
<path d="M14.7567 0H0V14.7568H14.7567V0Z" fill="black"/>
</g>
<mask id="mask2_9168_16606" style="mask-type:luminance" maskUnits="userSpaceOnUse" x="4" y="4" width="7" height="7">
<path d="M10.543 4.21631H4.21875V10.5406H10.543V4.21631Z" fill="white"/>
</mask>
<g mask="url(#mask2_9168_16606)">
<path d="M10.543 4.21631H4.21875V10.5406H10.543V4.21631Z" fill="black"/>
</g>
<mask id="mask3_9168_16606" style="mask-type:luminance" maskUnits="userSpaceOnUse" x="63" y="0" width="15" height="15">
<path fill-rule="evenodd" clip-rule="evenodd" d="M78 0L63.2433 0V14.7568L78 14.7568V0ZM75.8919 2.10811V12.6486H65.3514V2.10811L75.8919 2.10811Z" fill="white"/>
</mask>
<g mask="url(#mask3_9168_16606)">
<path d="M77.9989 0H63.2422V14.7568H77.9989V0Z" fill="black"/>
</g>
<mask id="mask4_9168_16606" style="mask-type:luminance" maskUnits="userSpaceOnUse" x="67" y="4" width="7" height="7">
<path d="M73.7891 10.5406V4.21631H67.4648V10.5406H73.7891Z" fill="white"/>
</mask>
<g mask="url(#mask4_9168_16606)">
<path d="M73.7852 4.21631H67.4609V10.5406H73.7852V4.21631Z" fill="black"/>
</g>
<mask id="mask5_9168_16606" style="mask-type:luminance" maskUnits="userSpaceOnUse" x="0" y="63" width="15" height="15">
<path fill-rule="evenodd" clip-rule="evenodd" d="M0 78H14.7567L14.7567 63.2432H0L0 78ZM2.1081 75.8919L2.1081 65.3514H12.6486L12.6486 75.8919H2.1081Z" fill="white"/>
</mask>
<g mask="url(#mask5_9168_16606)">
<path d="M14.7567 63.2432H0V77.9999H14.7567V63.2432Z" fill="black"/>
</g>
<mask id="mask6_9168_16606" style="mask-type:luminance" maskUnits="userSpaceOnUse" x="4" y="67" width="7" height="7">
<path d="M4.21875 67.4594V73.7837H10.543V67.4594H4.21875Z" fill="white"/>
</mask>
<g mask="url(#mask6_9168_16606)">
<path d="M10.543 67.4595H4.21875V73.7838H10.543V67.4595Z" fill="black"/>
</g>
</svg>
