<svg width="80" height="80" viewBox="0 0 80 80" fill="none" xmlns="http://www.w3.org/2000/svg">
<rect x="20.75" y="11.8613" width="35.1667" height="58.5" rx="7.25" fill="white" stroke="#1A1A1A" stroke-width="1.5"/>
<path d="M34 16.25H43" stroke="#1A1A1A" stroke-width="1.5" stroke-linecap="round" stroke-linejoin="round"/>
<g clip-path="url(#clip0_2899_10005)">
<path d="M73.332 23.2227H33.332V63.2227H73.332V23.2227Z" fill="#FF3333"/>
<path d="M41.8731 37.4648C39.6336 37.4648 38.7246 37.4818 38.7246 37.4818V49.0787H40.5302V45.5374H42.1504C42.1504 45.5374 44.6621 45.5139 44.6621 43.0258V39.9823C44.6621 39.9823 44.9283 37.4648 41.8731 37.4648ZM42.9263 42.6323C42.9263 43.7547 41.8959 43.6627 41.8959 43.6627H40.5302V39.2417C40.5302 39.2417 40.8773 39.2587 41.9018 39.2587C42.9263 39.2587 42.9263 40.2832 42.9263 40.2832V42.6323Z" fill="white"/>
<path d="M50.444 37.4648H47.6837L45.6465 49.0787H47.5911L47.961 47.0187H50.166L50.536 49.0787H52.4805L50.444 37.4648ZM48.1464 45.2829L49.0638 39.8642L49.9813 45.2829H48.147H48.1464Z" fill="white"/>
<path d="M58.1407 40.9313H60.0449C59.9385 40.1627 60.5858 37.6099 57.267 37.3665C53.3642 37.285 53.1886 41.1062 54.8826 42.8296C55.6696 43.732 58.0775 44.7043 58.1003 46.0701C58.2686 48.0453 55.8928 47.8143 55.8549 46.4042V45.6303H53.9103C53.9332 46.2685 53.8164 47.0685 54.1583 47.6336C54.3821 48.0023 54.929 49.0789 56.3874 49.1488C58.5401 49.4222 60.1532 48.2156 60.0455 46.211C59.9652 45.3921 60.36 45.1422 58.7254 43.5004C57.3825 42.3199 55.8321 41.6948 55.8321 40.3525C55.8275 38.5887 58.0429 38.607 58.1238 40.098L58.1414 40.9313H58.1407Z" fill="white"/>
<path d="M66.1036 40.9313H68.0077C67.9014 40.1627 68.5487 37.6099 65.2299 37.3665C61.3271 37.285 61.1515 41.1062 62.8455 42.8296C63.6325 43.732 66.0403 44.7043 66.0632 46.0701C66.2315 48.0453 63.8556 47.8143 63.8178 46.4042V45.6303H61.8732C61.8961 46.2685 61.7793 47.0685 62.1212 47.6336C62.345 48.0023 62.8918 49.0789 64.3503 49.1488C66.503 49.4222 68.1161 48.2156 68.0084 46.211C67.9281 45.3921 68.3229 45.1422 66.6883 43.5004C65.3454 42.3199 63.795 41.6948 63.795 40.3525C63.7904 38.5887 66.0058 38.607 66.0867 40.098L66.1043 40.9313H66.1036Z" fill="white"/>
</g>
<defs>
<clipPath id="clip0_2899_10005">
<rect x="33.332" y="23.2227" width="40" height="40" rx="8" fill="white"/>
</clipPath>
</defs>
</svg>
