<svg width="56" height="56" viewBox="0 0 56 56" fill="none" xmlns="http://www.w3.org/2000/svg">
<g id="icon_kakaotalk">
<path id="Rectangle 11" d="M0 28C0 12.536 12.536 0 28 0C43.464 0 56 12.536 56 28C56 43.464 43.464 56 28 56C12.536 56 0 43.464 0 28Z" fill="#FFF200"/>
<path id="Vector" d="M27.9991 16.3335C20.9109 16.3335 15.167 21.0237 15.167 26.8131C15.167 30.5371 17.5475 33.7994 21.122 35.664L19.9087 40.3316C19.8907 40.3891 19.8861 40.4501 19.8953 40.5098C19.9045 40.5694 19.9271 40.626 19.9614 40.6749C19.9957 40.7238 20.0407 40.7637 20.0926 40.7912C20.1446 40.8188 20.2021 40.8333 20.2605 40.8335C20.344 40.8295 20.424 40.7979 20.4886 40.7432L25.6865 37.1119C26.4517 37.2257 27.2236 37.2836 27.9967 37.2851C35.0825 37.2851 40.8337 32.5974 40.8337 26.803C40.8337 21.0086 35.0874 16.3335 27.9991 16.3335Z" fill="#392020"/>
</g>
</svg>
