<svg width="32" height="32" viewBox="0 0 32 32" fill="none" xmlns="http://www.w3.org/2000/svg">
<g id="icon">
<path id="Rectangle 3518" d="M10.8723 5.92087C10.5508 5.5021 9.99836 5.47573 9.63843 5.86197L7.55317 8.09964C7.19324 8.48587 7.16209 9.13845 7.48359 9.55722L8.172 10.4539L11.5607 6.81754L10.8723 5.92087Z" fill="white" stroke="#1A1A1A" stroke-width="1.5"/>
<path id="Rectangle 3517" d="M24.0498 8.53345V24.4666C24.0498 26.0038 22.8036 27.25 21.2664 27.25H9.33325C7.796 27.25 6.5498 26.0038 6.5498 24.4666V12.6511C6.5498 11.9263 6.83252 11.2301 7.33784 10.7105L11.3424 6.59285C11.8664 6.054 12.5861 5.75 13.3378 5.75H21.2664C22.8036 5.75 24.0498 6.99619 24.0498 8.53345Z" fill="white" stroke="#1A1A1A" stroke-width="1.5"/>
<path id="Rectangle 3517_2" d="M11.0217 10.3683C11.5835 9.64716 12.4318 9.20683 13.3449 9.16239L19.79 8.8487C20.4757 8.81533 21.0498 9.36222 21.0498 10.0486C21.0498 10.7121 20.5119 11.25 19.8484 11.25H11.4525C10.9979 11.25 10.7423 10.7269 11.0217 10.3683Z" fill="white" stroke="#1A1A1A" stroke-width="1.5"/>
<path id="Ellipse 170" d="M18.7998 19.5621C18.7998 20.9085 17.4567 22 15.7998 22C14.143 22 12.7998 20.9085 12.7998 19.5621C12.7998 18.2157 15.7998 15 15.7998 15C15.7998 15 18.7998 18.2157 18.7998 19.5621Z" fill="white" stroke="#FF3333" stroke-width="1.5" stroke-linejoin="round"/>
</g>
</svg>
