<svg width="25" height="24" viewBox="0 0 25 24" fill="none" xmlns="http://www.w3.org/2000/svg">
<g id="doc-search-two" clip-path="url(#clip0_4269_1126)">
<path id="Vector" d="M19.5 13.35V3.9C19.5 3.40294 19.1083 3 18.625 3H6.375C5.89175 3 5.5 3.40294 5.5 3.9V20.1C5.5 20.5971 5.89175 21 6.375 21L13.1565 21" stroke="#666666" stroke-width="1.5" stroke-linecap="round" stroke-linejoin="round"/>
<path id="Vector_2" d="M8.5 7H16.5" stroke="#666666" stroke-width="1.5" stroke-linecap="round" stroke-linejoin="round"/>
<path id="Vector_3" d="M8.5 10H16.5" stroke="#666666" stroke-width="1.5" stroke-linecap="round" stroke-linejoin="round"/>
<path id="Vector_4" d="M8.5 13H11.5" stroke="#666666" stroke-width="1.5" stroke-linecap="round" stroke-linejoin="round"/>
<path id="Vector_5" d="M20.5 21L19.0565 19.5565L20.5 21ZM19.0565 19.5565C19.4335 19.1795 19.6667 18.6586 19.6667 18.0833C19.6667 16.9327 18.7339 16 17.5833 16C16.4327 16 15.5 16.9327 15.5 18.0833C15.5 19.2339 16.4327 20.1667 17.5833 20.1667C18.1586 20.1667 18.6795 19.9335 19.0565 19.5565Z" stroke="#666666" stroke-width="1.5" stroke-linecap="round" stroke-linejoin="round"/>
</g>
<defs>
<clipPath id="clip0_4269_1126">
<rect width="24" height="24" fill="white" transform="translate(0.5)"/>
</clipPath>
</defs>
</svg>
