<svg width="56" height="56" viewBox="0 0 56 56" fill="none" xmlns="http://www.w3.org/2000/svg">
<g id="logo_pass">
<g clip-path="url(#clip0_4462_4715)">
<path id="Vector" d="M56 0H0V56H56V0Z" fill="#FF3A4A"/>
<path id="Vector_2" d="M11.9587 19.9392C8.82336 19.9392 7.55078 19.963 7.55078 19.963V36.1987H10.0786V31.2408H12.3469C12.3469 31.2408 15.8632 31.2079 15.8632 27.7245V23.4637C15.8632 23.4637 16.2359 19.9392 11.9587 19.9392ZM13.4332 27.1737C13.4332 28.745 11.9907 28.6162 11.9907 28.6162H10.0786V22.4268C10.0786 22.4268 10.5646 22.4506 11.9989 22.4506C13.4332 22.4506 13.4332 23.8849 13.4332 23.8849V27.1737Z" fill="white"/>
<path id="Vector_3" d="M23.9567 19.9392H20.0924L17.2402 36.1987H19.9626L20.4806 33.3146H23.5675L24.0855 36.1987H26.8079L23.9567 19.9392ZM20.7401 30.8845L22.0245 23.2984L23.309 30.8845H20.741H20.7401Z" fill="white"/>
<path id="Vector_4" d="M34.7326 24.7921H37.3983C37.2494 23.7159 38.1557 20.1421 33.5093 19.8014C28.0454 19.6872 27.7996 25.0369 30.1712 27.4496C31.273 28.7131 34.644 30.0743 34.676 31.9864C34.9117 34.7517 31.5854 34.4283 31.5324 32.4541V31.3706H28.81C28.842 32.2641 28.6785 33.3841 29.1572 34.1752C29.4705 34.6914 30.2361 36.1988 32.2779 36.2965C35.2917 36.6793 37.55 34.9901 37.3993 32.1837C37.2869 31.0372 37.8396 30.6873 35.5511 28.3888C33.671 26.7362 31.5004 25.861 31.5004 23.9818C31.494 21.5124 34.5956 21.538 34.7088 23.6255L34.7335 24.7921H34.7326Z" fill="white"/>
<path id="Vector_5" d="M45.881 24.7921H48.5468C48.3979 23.7159 49.3041 20.1421 44.6578 19.8014C39.1938 19.6872 38.9481 25.0369 41.3197 27.4496C42.4214 28.7131 45.7924 30.0743 45.8244 31.9864C46.0601 34.7517 42.7338 34.4283 42.6809 32.4541V31.3706H39.9585C39.9904 32.2641 39.8269 33.3841 40.3056 34.1752C40.619 34.6914 41.3845 36.1988 43.4263 36.2965C46.4401 36.6793 48.6984 34.9901 48.5477 32.1837C48.4353 31.0372 48.988 30.6873 46.6996 28.3888C44.8195 26.7362 42.6489 25.861 42.6489 23.9818C42.6425 21.5124 45.744 21.538 45.8573 23.6255L45.8819 24.7921H45.881Z" fill="white"/>
</g>
</g>
<defs>
<clipPath id="clip0_4462_4715">
<rect width="56" height="56" rx="12" fill="white"/>
</clipPath>
</defs>
</svg>
