<svg width="94" height="18" viewBox="0 0 94 18" fill="none" xmlns="http://www.w3.org/2000/svg">
<g id="logo_Lpoint" clip-path="url(#clip0_4462_4758)">
<g id="Group">
<path id="Vector" d="M43.5765 17.9577C38.3763 17.9577 34.7812 14.0635 34.7812 8.96296C34.7812 3.86243 38.3814 0 43.5765 0C48.7716 0 52.3515 3.87302 52.3515 8.96825C52.3515 14.0635 48.9033 17.963 43.5765 17.963V17.9577ZM43.5765 3.7672C40.6498 3.7672 38.832 6.1164 38.832 8.96825C38.832 11.8201 40.6498 14.2381 43.5765 14.2381C46.5032 14.2381 48.2957 11.8413 48.2957 8.96825C48.2957 6.09524 46.564 3.7672 43.5765 3.7672Z" fill="#009BFA"/>
<path id="Vector_2" d="M27.1001 0.174645H21.3176C20.8771 0.174645 20.5176 0.550306 20.5176 1.01062V14.3651C20.5176 14.8254 20.7708 15.4656 21.0796 15.7884L22.3151 17.0794C22.624 17.4022 23.2367 17.6667 23.6772 17.6667H23.7835C24.224 17.6667 24.5836 17.291 24.5836 16.8307V11.9524C24.5836 11.4921 24.9431 11.1164 25.3785 11.1164H27.3634C30.6142 11.1164 33.3383 8.68787 33.3383 5.3757C33.3383 2.43919 31.2724 0.164062 27.095 0.164062L27.1001 0.174645ZM26.5482 7.7884H25.3836C24.9431 7.7884 24.5886 7.41274 24.5886 6.95242V4.19052C24.5886 3.7302 24.9481 3.35454 25.3836 3.35454H26.5279C28.5584 3.35454 29.2774 4.22226 29.2774 5.40216C29.2774 6.8466 28.5736 7.7884 26.5482 7.7884Z" fill="#009BFA"/>
<path id="Vector_3" d="M55.7188 0.158691C55.2783 0.158691 54.9238 0.534353 54.9238 0.99467V14.365C54.9238 14.8254 55.177 15.4656 55.4859 15.7883L56.7011 17.0582C57.015 17.3809 57.6277 17.6508 58.0632 17.6508H58.1898C58.6303 17.6508 58.9898 17.2751 58.9898 16.8148V0.99467C58.9898 0.534353 58.6303 0.158691 58.1898 0.158691H55.7188Z" fill="#009BFA"/>
<path id="Vector_4" d="M74.5806 0.174582C74.1401 0.174582 73.7806 0.550243 73.7806 1.01056V8.66665C73.7806 9.12696 73.5072 9.25924 73.178 8.95765C73.178 8.95765 63.8106 0.53437 63.4815 0.232783C63.1473 -0.0688046 62.8789 0.0634705 62.8789 0.523788V14.3651C62.8789 14.8254 63.1321 15.4656 63.441 15.7883L64.6764 17.0793C64.9853 17.4021 65.6031 17.6666 66.0385 17.6666H66.1651C66.6056 17.6666 66.9651 17.291 66.9651 16.8307V9.12167C66.9651 8.66135 67.2284 8.52908 67.5677 8.83596C67.9069 9.14284 76.9149 17.2381 77.244 17.5397C77.5731 17.8412 77.8466 17.7143 77.8466 17.2539V1.01056C77.8466 0.555534 77.487 0.174582 77.0516 0.174582H74.5806Z" fill="#009BFA"/>
<path id="Vector_5" d="M80.6409 0.174561C80.2003 0.174561 79.8408 0.550222 79.8408 1.01054V2.52377C79.8408 2.98408 80.2003 3.35975 80.6409 3.35975H83.7954C84.2359 3.35975 84.5954 3.73541 84.5954 4.19572V14.3703C84.5954 14.8306 84.8486 15.4709 85.1625 15.7936L86.398 17.0846C86.7069 17.4074 87.3196 17.6719 87.7601 17.6719H87.8664C88.307 17.6719 88.6665 17.2963 88.6665 16.8359V4.19572C88.6665 3.73541 89.026 3.35975 89.4614 3.35975H92.621C93.0616 3.35975 93.4211 2.98408 93.4211 2.52377V1.01054C93.4211 0.555513 93.0616 0.174561 92.621 0.174561H80.6409Z" fill="#009BFA"/>
</g>
<path id="Vector_6" d="M4.86094 14.1587C4.42042 14.1587 4.06091 13.783 4.06091 13.3227V1.01054C4.06091 0.555513 3.7014 0.174561 3.26594 0.174561H0.80003C0.359507 0.174561 0 0.555513 0 1.01054V14.365C0 14.8254 0.253174 15.4656 0.56711 15.7883L1.8026 17.0793C2.11147 17.4021 2.72415 17.6666 3.16467 17.6666H11.6916C12.1321 17.6666 12.4916 17.291 12.4916 16.8306V14.9841C12.4916 14.5238 12.1321 14.1481 11.6916 14.1481H4.86094V14.1587Z" fill="#009BFA"/>
<path id="Vector_7" d="M16.4358 18C16.1522 18 15.9446 17.9259 15.7876 17.8518C15.7421 17.8307 15.3066 17.6296 15.0636 17.5132L14.9066 17.4391C14.7395 17.3598 14.623 17.1693 14.623 16.9788V14.7566C14.623 14.5926 14.699 14.4656 14.8408 14.3968C14.8509 14.3968 15.9345 13.8466 16.0104 13.8095C16.137 13.746 16.2788 13.709 16.4307 13.709C16.5826 13.709 16.7295 13.746 16.8611 13.8095C16.9421 13.8518 18.0257 14.3968 18.0308 14.3968C18.1725 14.4656 18.2485 14.5979 18.2485 14.7566V16.9788C18.2485 17.1693 18.127 17.3598 17.9649 17.4391L17.8687 17.4868C17.651 17.5873 17.1396 17.8307 17.0839 17.8518C16.9219 17.9259 16.7244 18 16.4358 18Z" fill="#009BFA"/>
</g>
<defs>
<clipPath id="clip0_4462_4758">
<rect width="93.4161" height="18" fill="white"/>
</clipPath>
</defs>
</svg>
