<svg width="14" height="14" viewBox="0 0 14 14" fill="none" xmlns="http://www.w3.org/2000/svg">
<path d="M12.6531 7C12.6531 10.3082 9.93808 13 6.57656 13C3.21503 13 0.5 10.3082 0.5 7C0.5 3.69179 3.21503 1 6.57656 1C9.93808 1 12.6531 3.69179 12.6531 7Z" stroke="#999999"/>
<path d="M6.23276 8.385H6.92576L7.06976 4.785L7.10576 3.714H6.06176L6.08876 4.785L6.23276 8.385ZM6.57476 10.617C6.97076 10.617 7.27676 10.32 7.27676 9.897C7.27676 9.465 6.97076 9.159 6.57476 9.159C6.18776 9.159 5.89076 9.465 5.89076 9.897C5.89076 10.32 6.18776 10.617 6.57476 10.617Z" fill="#999999"/>
</svg>
