<svg width="50" height="50" viewBox="0 0 50 50" fill="none" xmlns="http://www.w3.org/2000/svg">
<circle cx="25" cy="25" r="24.5" stroke="#E9E9E9"/>
<path fill-rule="evenodd" clip-rule="evenodd" d="M17.5 25C17.5 26.3807 16.3807 27.5 15 27.5C13.6193 27.5 12.5 26.3807 12.5 25C12.5 23.6193 13.6193 22.5 15 22.5C16.3807 22.5 17.5 23.6193 17.5 25ZM27.5 25C27.5 26.3807 26.3807 27.5 25 27.5C23.6193 27.5 22.5 26.3807 22.5 25C22.5 23.6193 23.6193 22.5 25 22.5C26.3807 22.5 27.5 23.6193 27.5 25ZM35 27.5C36.3807 27.5 37.5 26.3807 37.5 25C37.5 23.6193 36.3807 22.5 35 22.5C33.6193 22.5 32.5 23.6193 32.5 25C32.5 26.3807 33.6193 27.5 35 27.5Z" fill="#DDDDDD"/>
</svg>
