<svg width="18" height="16" viewBox="0 0 18 16" fill="none" xmlns="http://www.w3.org/2000/svg">
<mask id="path-1-inside-1_347_1151" fill="white">
<rect y="6.13281" width="17.7333" height="6.53333" rx="1"/>
</mask>
<rect y="6.13281" width="17.7333" height="6.53333" rx="1" stroke="#303030" stroke-width="3" mask="url(#path-1-inside-1_347_1151)"/>
<path d="M16.3334 6.6L15.1505 3.05132C14.7421 1.82629 13.5957 1 12.3044 1H5.42897C4.13768 1 2.99126 1.82629 2.58292 3.05132L1.40002 6.6" stroke="#303030" stroke-width="1.5"/>
<path d="M1.8667 12.1992V13.3659C1.8667 14.2679 2.59797 14.9992 3.50003 14.9992H3.73337C4.50656 14.9992 5.13337 14.3724 5.13337 13.5992V13.5992V12.1992" stroke="#303030" stroke-width="1.5"/>
<path d="M12.6 12.1992V13.3659C12.6 14.2679 13.3312 14.9992 14.2333 14.9992H14.4666C15.2398 14.9992 15.8666 14.3724 15.8666 13.5992V13.5992V12.1992" stroke="#303030" stroke-width="1.5"/>
<line x1="12.4587" y1="3.71166" x2="9.19203" y2="6.51166" stroke="#303030"/>
</svg>
