<svg width="31" height="30" viewBox="0 0 31 30" fill="none" xmlns="http://www.w3.org/2000/svg">
<rect x="0.5" y="3.5" width="30" height="26" rx="7.5" fill="#303030" stroke="#D0D0D0"/>
<rect x="0.5" y="0.5" width="30" height="24" rx="7.5" fill="#303030" stroke="#D0D0D0"/>
<path d="M7.78921 15H11.9742V13.884H9.12121V12.111H11.4522V10.986H9.12121V9.447H11.8752V8.34H7.78921V15ZM15.3153 15.126C16.8453 15.126 17.7543 14.199 17.7543 13.11C17.7543 12.156 17.2233 11.634 16.4223 11.301L15.5493 10.941C14.9823 10.716 14.5053 10.536 14.5053 10.059C14.5053 9.627 14.8743 9.366 15.4593 9.366C16.0083 9.366 16.4493 9.564 16.8813 9.915L17.5473 9.078C17.0073 8.529 16.2333 8.223 15.4593 8.223C14.1183 8.223 13.1553 9.06 13.1553 10.149C13.1553 11.112 13.8393 11.661 14.5053 11.931L15.3963 12.309C15.9903 12.561 16.3953 12.723 16.3953 13.218C16.3953 13.677 16.0353 13.974 15.3423 13.974C14.7573 13.974 14.1183 13.686 13.6503 13.245L12.8853 14.163C13.5333 14.784 14.4153 15.126 15.3153 15.126ZM21.6515 15.126C22.5155 15.126 23.2265 14.793 23.7755 14.154L23.0735 13.317C22.7225 13.704 22.2725 13.974 21.7055 13.974C20.6435 13.974 19.9685 13.11 19.9685 11.652C19.9685 10.23 20.7245 9.366 21.7235 9.366C22.2365 9.366 22.6145 9.591 22.9565 9.924L23.6585 9.069C23.2265 8.619 22.5515 8.223 21.7055 8.223C20.0135 8.223 18.6095 9.501 18.6095 11.697C18.6095 13.92 19.9685 15.126 21.6515 15.126Z" fill="#D0D0D0"/>
</svg>
