<svg width="31" height="18" viewBox="0 0 31 18" fill="none" xmlns="http://www.w3.org/2000/svg">
<path d="M6.49021 0.548999C7.12519 0.548999 7.66559 0.69003 8.10872 0.974754C8.55184 1.25948 8.88689 1.62137 9.11656 2.06575C9.34623 2.51013 9.47593 3.00773 9.50565 3.56122C9.53537 4.1147 9.46512 4.66286 9.2949 5.20836C9.12467 5.75385 8.85447 6.2621 8.487 6.73575C8.11682 7.2094 7.65208 7.58992 7.09006 7.87997L6.71448 8.07688L7.06844 8.42547C7.23056 8.6144 7.39809 8.87251 7.56561 9.19981C7.73584 9.52711 7.85743 9.83578 7.93038 10.1258C8.07899 10.7804 8.07359 11.4164 7.91957 12.0337C7.76556 12.6511 7.49806 13.2126 7.12248 13.7128C6.7469 14.2157 6.29027 14.6335 5.76067 14.9688C5.22838 15.3041 4.66096 15.5223 4.05571 15.6234C3.45046 15.7245 2.8344 15.6819 2.20484 15.493C1.57797 15.3041 0.988934 14.9342 0.443129 14.3807C0.31073 14.2503 0.20265 14.1253 0.12159 14.0108C0.0405301 13.8938 0 13.8139 0 13.7714C0.016212 13.5957 0.140504 13.5398 0.375579 13.5957C0.610653 13.6543 0.878151 13.8139 1.17267 14.0747C1.4834 14.3355 1.7482 14.5111 1.96976 14.5989C2.19133 14.6867 2.48584 14.7293 2.85602 14.7293C3.12081 14.7293 3.32076 14.7187 3.45316 14.6974C3.58556 14.6761 3.75579 14.6149 3.96384 14.5111C4.68798 14.1625 5.30674 13.5212 5.82552 12.5899C6.20921 11.8927 6.43888 11.2674 6.51183 10.7139C6.58478 10.1604 6.51994 9.6096 6.31188 9.05612C6.20921 8.80865 6.08762 8.64633 5.94711 8.56384C5.80661 8.48401 5.56613 8.44409 5.22568 8.44409C4.93116 8.44409 4.69608 8.40418 4.52856 8.32435C4.35833 8.24452 4.16919 8.08752 3.96384 7.85602C3.75579 7.62452 3.67202 7.48082 3.70985 7.43026C3.74768 7.37971 3.95033 7.36906 4.3178 7.39833C4.59881 7.4276 4.80146 7.43027 4.92575 7.40898C5.05005 7.38769 5.21757 7.32649 5.42292 7.22271C5.58504 7.15086 5.75797 7.04176 5.94441 6.89541C6.12815 6.74906 6.3308 6.57609 6.55236 6.3712C6.96577 5.97738 7.29811 5.5463 7.5494 5.07265C7.80069 4.59899 7.97091 4.14131 8.06008 3.69692C8.14925 3.25254 8.16005 2.8534 8.0925 2.49683C8.02495 2.14026 7.88445 1.88481 7.67099 1.73313C7.45753 1.58145 7.16842 1.55484 6.80635 1.65596C6.44428 1.75708 6.02007 2.0418 5.5337 2.50747C5.29593 2.74164 5.10949 2.95185 4.96899 3.14078C4.82848 3.32971 4.65555 3.59847 4.4475 3.94706C4.34482 4.15195 4.25836 4.32225 4.19351 4.46062C4.12596 4.59899 4.06381 4.73736 4.00437 4.87573C3.94493 5.01411 3.89089 5.17376 3.83685 5.35471C3.78551 5.53566 3.72877 5.75918 3.66932 6.01995C3.58016 6.35523 3.48829 6.73043 3.39102 7.14288C3.29374 7.55799 3.20187 7.97576 3.11541 8.3962C3.02624 8.81929 2.93708 9.23174 2.85061 9.63887C2.76145 10.046 2.68849 10.4106 2.62905 10.7299C2.53988 11.2248 2.46693 11.6106 2.40749 11.8874C2.34804 12.1641 2.29941 12.3743 2.26428 12.5207C2.22645 12.6671 2.19133 12.7655 2.1535 12.8161C2.11567 12.8666 2.07514 12.9225 2.03191 12.9784C1.97246 13.0369 1.91842 13.0662 1.86708 13.0662C1.81575 13.0662 1.69416 13.0289 1.50231 12.9571C1.25103 12.8693 1.06999 12.7762 0.959212 12.6724C0.848429 12.5713 0.775475 12.4542 0.737647 12.3238C0.699819 12.1934 0.689011 12.0391 0.705223 11.8661C0.718733 11.6905 0.743051 11.4723 0.772773 11.2115C0.816005 10.7911 0.875449 10.352 0.951106 9.90231C1.02406 9.4526 1.12944 8.95766 1.26184 8.41748C1.39423 7.87997 1.55365 7.27593 1.73739 6.60536C1.92113 5.93746 2.14809 5.16578 2.41289 4.29298C2.57501 3.78474 2.72362 3.29778 2.85602 2.83211C2.98842 2.36644 3.07758 2.06043 3.12082 1.91674C3.18026 1.64 3.2316 1.42446 3.27483 1.27278C3.31806 1.12111 3.35859 1.00669 3.39642 0.934839C3.43425 0.862993 3.46937 0.817756 3.5072 0.804452C3.54503 0.791147 3.59907 0.783164 3.67473 0.783164C3.80712 0.783164 3.99897 0.870976 4.25025 1.04394L4.60422 1.32866L5.00411 1.04394C5.28512 0.839044 5.5283 0.705996 5.73635 0.639471C5.94171 0.572947 6.19299 0.541016 6.49021 0.541016V0.548999Z" fill="#D71718"/>
<path d="M16.7893 10.2578C17.0406 10.4042 17.1216 10.5958 17.0325 10.8353C16.9433 11.0748 16.6623 11.4713 16.1894 12.0247C15.5383 12.6793 14.9168 13.1583 14.317 13.4643C13.7171 13.7703 13.1794 13.922 12.6985 13.922C12.2175 13.922 11.8122 13.7916 11.4798 13.5282C11.1475 13.2674 10.9124 12.9002 10.7719 12.4265C10.6314 11.9529 10.6044 11.3888 10.6936 10.7368C10.7827 10.0849 11.0178 9.3611 11.4015 8.57612C11.8014 7.73259 12.2337 7.10726 12.6985 6.70013C13.1632 6.29301 13.6117 6.04553 14.0386 5.95772C14.4656 5.86991 14.8547 5.91515 15.2032 6.08811C15.5491 6.26373 15.8085 6.5112 15.9787 6.83052C16.1489 7.14984 16.203 7.51705 16.1435 7.93216C16.0841 8.34727 15.8706 8.75174 15.5004 9.1429C15.2194 9.43295 14.8574 9.61656 14.4142 9.6884C13.9711 9.76025 13.5415 9.70969 13.1281 9.53673L12.7525 9.3611L12.5742 9.86403C12.3661 10.4894 12.2229 11.0748 12.1418 11.6203C12.0608 12.1658 12.0554 12.541 12.131 12.7432C12.1608 12.815 12.2526 12.8523 12.4093 12.8523C12.5661 12.8523 12.7525 12.815 12.9741 12.7432C13.1659 12.6847 13.4064 12.5649 13.6955 12.384C13.9846 12.203 14.271 11.9981 14.5601 11.7719C14.8492 11.5458 15.1167 11.3143 15.368 11.0748C15.6193 10.8353 15.8112 10.6144 15.9436 10.4095C16.076 10.2206 16.1975 10.1195 16.3083 10.1035C16.4191 10.0902 16.5785 10.1408 16.7839 10.2552L16.7893 10.2578ZM13.3334 8.29405C13.2605 8.42444 13.2037 8.53886 13.1686 8.632C13.1308 8.72779 13.12 8.78899 13.1362 8.81827C13.1956 8.87681 13.3388 8.89011 13.5685 8.86084C13.7982 8.83157 13.9927 8.78101 14.1548 8.70917C14.3034 8.63732 14.4385 8.52822 14.5655 8.38187C14.6898 8.23551 14.7952 8.08118 14.8763 7.91354C14.9573 7.74589 15.0114 7.58358 15.0438 7.42392C15.0735 7.26426 15.0573 7.12589 15.0006 7.00881C14.9411 6.87842 14.8492 6.81722 14.7223 6.82254C14.598 6.83052 14.4575 6.89172 14.3007 7.00881C14.1467 7.12589 13.9819 7.29353 13.8144 7.51173C13.6442 7.72993 13.4847 7.9907 13.3388 8.29672L13.3334 8.29405Z" fill="#D71718"/>
<path d="M24.965 3.21061C25.1137 3.28246 25.2758 3.4155 25.4514 3.60443C25.6297 3.79336 25.7108 3.93972 25.6946 4.04083C25.6946 4.14195 25.6378 4.21646 25.5271 4.25903C25.4163 4.30161 25.2866 4.30161 25.1407 4.25903C25.0515 4.22976 24.8678 4.2271 24.5868 4.24839C24.3058 4.26968 23.9788 4.30427 23.6005 4.34684C23.225 4.38942 22.8224 4.44796 22.3927 4.52247C21.9631 4.59431 21.5659 4.67414 21.1957 4.76196C21.0931 4.77526 21.0039 4.88436 20.931 5.08925C20.858 5.30745 20.7472 5.7199 20.5986 6.32128C20.45 6.92532 20.2852 7.60919 20.1014 8.37289C19.9177 9.13659 19.7286 9.93222 19.5367 10.7624C19.3449 11.5927 19.1746 12.3404 19.026 13.011C18.9369 13.4341 18.8477 13.8412 18.7612 14.2323C18.6748 14.6235 18.5937 14.9748 18.5289 15.2808C18.464 15.5868 18.4073 15.8343 18.3613 16.0232C18.3181 16.2121 18.2884 16.3292 18.2722 16.3718C18.2425 16.4436 18.2208 16.5314 18.2046 16.6325C18.1884 16.7337 18.183 16.8215 18.183 16.8933C18.1668 17.1541 18.0641 17.2978 17.8723 17.3191C17.6804 17.3404 17.4589 17.2286 17.2076 16.9811C17.1049 16.8933 17.0157 16.8028 16.9428 16.7097C16.8698 16.6139 16.8239 16.5527 16.8104 16.5234C16.7969 16.4809 16.8185 16.276 16.8779 15.9114C16.9374 15.5469 17.0157 15.1105 17.1103 14.6022C17.2076 14.094 17.313 13.5538 17.4319 12.987C17.5507 12.4202 17.6615 11.9173 17.7642 11.4809C17.8074 11.3053 17.8642 11.0738 17.9317 10.7837C17.9993 10.4937 18.0749 10.177 18.1641 9.83376C18.2533 9.49316 18.3478 9.13925 18.4532 8.7747C18.5559 8.41014 18.6532 8.06156 18.7423 7.72628C18.8315 7.39099 18.9153 7.07434 18.9963 6.77631C19.0774 6.47828 19.1476 6.21751 19.2071 5.99132C19.2665 5.76514 19.3152 5.58153 19.3503 5.43518C19.3881 5.28883 19.407 5.209 19.407 5.19569C19.4367 5.12385 19.3773 5.10256 19.2287 5.12917C19.0801 5.17174 18.8801 5.21698 18.6315 5.25956C18.3803 5.30213 18.129 5.34471 17.8777 5.3793C17.6264 5.41655 17.4021 5.44582 17.2022 5.46711C17.0022 5.4884 16.8806 5.49372 16.8374 5.47776C16.7185 5.44849 16.578 5.36866 16.4159 5.23827C16.2673 5.10788 16.1943 4.94822 16.1943 4.75929C16.1943 4.58367 16.2078 4.49852 16.2376 4.49852C16.2511 4.49852 16.3484 4.47989 16.5267 4.4453C16.705 4.40805 16.9266 4.35749 17.1914 4.29362C17.4562 4.2271 17.7426 4.16324 18.0452 4.09671C18.3478 4.03019 18.6315 3.96633 18.899 3.8998C19.1638 3.83328 19.4746 3.75877 19.8285 3.67096C19.842 3.65765 19.8718 3.5725 19.9177 3.42083C19.9609 3.26915 20.0204 3.08288 20.096 2.86468C20.1987 2.5161 20.3014 2.18614 20.4068 1.87214C20.5094 1.56081 20.6067 1.28407 20.6959 1.04192C20.785 0.802433 20.858 0.613504 20.9174 0.475134C20.9769 0.336763 21.0201 0.267578 21.0498 0.267578C21.1093 0.267578 21.2309 0.323458 21.4146 0.429897C21.5983 0.538997 21.7497 0.650758 21.8685 0.76784C21.928 0.826382 21.9685 0.884923 21.9901 0.943464C22.0118 1.00201 22.0199 1.08183 22.0118 1.18295C22.0036 1.28407 21.9739 1.42776 21.9226 1.60871C21.8712 1.78965 21.801 2.02648 21.7118 2.31919C21.6227 2.59593 21.5524 2.83275 21.5011 3.02966C21.4497 3.22658 21.4308 3.33301 21.4443 3.34632C21.4578 3.36229 21.5659 3.35696 21.7659 3.33568C21.9658 3.31439 22.2117 3.2798 22.5089 3.23722C23.7789 3.04829 24.6003 3.04031 24.9677 3.21593L24.965 3.21061Z" fill="#D71718"/>
<path d="M29.5759 10.4314C29.6948 10.112 29.8488 9.9444 30.0407 9.92843C30.2325 9.91512 30.4244 10.0535 30.6162 10.3435C30.6756 10.4314 30.7 10.5085 30.6946 10.5724C30.6864 10.6389 30.6459 10.7879 30.573 11.0194C30.3649 11.5862 30.1136 12.1424 29.8191 12.6879C29.5246 13.2334 29.2571 13.6298 29.022 13.8773C28.8004 14.1248 28.5384 14.3031 28.2357 14.4122C27.9331 14.5213 27.6494 14.5505 27.3819 14.5C27.1171 14.4494 26.8901 14.3057 26.7064 14.0742C26.5227 13.8401 26.4308 13.4915 26.4308 13.0258V12.6985L26.0984 13.0923C25.7148 13.5154 25.3014 13.7735 24.8582 13.8667C24.4151 13.9598 24.0098 13.9252 23.6396 13.7576C23.2694 13.5899 22.9668 13.3185 22.7317 12.9406C22.494 12.5628 22.3913 12.0971 22.421 11.5436C22.4345 11.1072 22.5048 10.6575 22.6318 10.1919C22.7561 9.7262 22.9209 9.27117 23.1181 8.82945C23.3181 8.38507 23.5532 7.96729 23.8261 7.57347C24.099 7.17965 24.3989 6.83106 24.7231 6.52505C25.0933 6.17646 25.5472 5.98753 26.0849 5.95826C26.6253 5.92899 27.1441 5.99019 27.6467 6.14453C28.1493 6.29621 28.5654 6.51973 28.8977 6.80977C29.2301 7.09982 29.3733 7.38454 29.33 7.66128C29.3165 7.7491 29.2706 7.92206 29.1976 8.18549C29.1247 8.44627 29.0382 8.74962 28.9437 9.09022C28.8464 9.43349 28.7437 9.78474 28.6329 10.1493C28.5221 10.5138 28.4222 10.8332 28.333 11.1099C28.2736 11.3148 28.2222 11.4957 28.179 11.6554C28.1358 11.8151 28.0925 11.9721 28.0574 12.1237C28.0196 12.2754 27.9844 12.4377 27.9466 12.6027C27.9088 12.7703 27.8683 12.9619 27.825 13.1801C27.8088 13.2679 27.8223 13.2999 27.8574 13.2786C27.8926 13.2573 27.9871 13.1668 28.1358 13.0045C28.2249 12.9034 28.3357 12.7464 28.4681 12.5362C28.6005 12.326 28.7383 12.0971 28.8788 11.8496C29.0193 11.6022 29.1517 11.352 29.2787 11.0966C29.403 10.8411 29.503 10.6203 29.5786 10.4314H29.5759ZM26.5632 9.60113C26.6659 9.4122 26.7848 9.1807 26.9172 8.90396C27.0495 8.62722 27.1765 8.35846 27.2927 8.09768C27.4089 7.83691 27.5116 7.61339 27.5927 7.43244C27.6737 7.25149 27.7142 7.14506 27.7142 7.11578C27.6845 7.11578 27.6467 7.1078 27.6035 7.0945C27.5737 7.0945 27.5008 7.08119 27.3819 7.05192C26.9982 6.99338 26.6497 7.06257 26.3416 7.25948C26.0309 7.45639 25.6607 7.8236 25.2338 8.36112C24.8204 8.9146 24.4826 9.52928 24.226 10.2052C23.9666 10.8811 23.8153 11.5463 23.772 12.2009C23.7423 12.5788 23.7504 12.797 23.7936 12.8555C23.8369 12.914 23.9855 12.8848 24.2368 12.7677C24.7988 12.5362 25.5743 11.4798 26.5632 9.60379V9.60113Z" fill="#D71718"/>
</svg>
