<svg width="94" height="18" viewBox="0 0 94 18" fill="none" xmlns="http://www.w3.org/2000/svg">
<g id="logo_Lpoint" clip-path="url(#clip0_2434_52657)">
<g id="Group">
<path id="Vector" d="M43.8486 17.9577C38.616 17.9577 34.9984 14.0635 34.9984 8.96296C34.9984 3.86243 38.621 0 43.8486 0C49.0762 0 52.6785 3.87302 52.6785 8.96825C52.6785 14.0635 49.2087 17.963 43.8486 17.963V17.9577ZM43.8486 3.7672C40.9037 3.7672 39.0745 6.1164 39.0745 8.96825C39.0745 11.8201 40.9037 14.2381 43.8486 14.2381C46.7936 14.2381 48.5973 11.8413 48.5973 8.96825C48.5973 6.09524 46.8548 3.7672 43.8486 3.7672Z" fill="#009BFA"/>
<path id="Vector_2" d="M27.2691 0.174583H21.4505C21.0072 0.174583 20.6454 0.550245 20.6454 1.01056V14.3651C20.6454 14.8254 20.9002 15.4656 21.211 15.7883L22.4542 17.0793C22.765 17.4021 23.3815 17.6666 23.8248 17.6666H23.9318C24.3751 17.6666 24.7368 17.291 24.7368 16.8307V11.9524C24.7368 11.492 25.0986 11.1164 25.5368 11.1164H27.5341C30.8051 11.1164 33.5463 8.68781 33.5463 5.37564C33.5463 2.43913 31.4675 0.164001 27.264 0.164001L27.2691 0.174583ZM26.7137 7.78834H25.5419C25.0986 7.78834 24.7419 7.41268 24.7419 6.95236V4.19046C24.7419 3.73014 25.1037 3.35448 25.5419 3.35448H26.6934C28.7365 3.35448 29.46 4.2222 29.46 5.4021C29.46 6.84654 28.7518 7.78834 26.7137 7.78834Z" fill="#009BFA"/>
<path id="Vector_3" d="M56.0668 0.158752C55.6235 0.158752 55.2668 0.534414 55.2668 0.994731V14.3651C55.2668 14.8254 55.5216 15.4656 55.8324 15.7884L57.0552 17.0582C57.3711 17.381 57.9876 17.6508 58.4258 17.6508H58.5532C58.9965 17.6508 59.3582 17.2752 59.3582 16.8148V0.994731C59.3582 0.534414 58.9965 0.158752 58.5532 0.158752H56.0668Z" fill="#009BFA"/>
<path id="Vector_4" d="M75.0461 0.174582C74.6028 0.174582 74.2411 0.550243 74.2411 1.01056V8.66665C74.2411 9.12696 73.9659 9.25924 73.6348 8.95765C73.6348 8.95765 64.2088 0.53437 63.8776 0.232783C63.5413 -0.0688046 63.2713 0.0634705 63.2713 0.523788V14.3651C63.2713 14.8254 63.526 15.4656 63.8368 15.7883L65.08 17.0793C65.3908 17.4021 66.0124 17.6666 66.4506 17.6666H66.578C67.0213 17.6666 67.383 17.291 67.383 16.8307V9.12167C67.383 8.66135 67.648 8.52908 67.9894 8.83596C68.3307 9.14284 77.395 17.2381 77.7261 17.5397C78.0573 17.8412 78.3325 17.7143 78.3325 17.2539V1.01056C78.3325 0.555534 77.9707 0.174582 77.5325 0.174582H75.0461Z" fill="#009BFA"/>
<path id="Vector_5" d="M81.145 0.174622C80.7017 0.174622 80.3399 0.550283 80.3399 1.0106V2.52383C80.3399 2.98415 80.7017 3.35981 81.145 3.35981H84.3192C84.7625 3.35981 85.1243 3.73547 85.1243 4.19579V14.3704C85.1243 14.8307 85.379 15.4709 85.6949 15.7937L86.9381 17.0847C87.2489 17.4074 87.8654 17.672 88.3087 17.672H88.4157C88.859 17.672 89.2207 17.2963 89.2207 16.836V4.19579C89.2207 3.73547 89.5825 3.35981 90.0207 3.35981H93.2C93.6433 3.35981 94.0051 2.98415 94.0051 2.52383V1.0106C94.0051 0.555574 93.6433 0.174622 93.2 0.174622H81.145Z" fill="#009BFA"/>
</g>
<path id="Vector_6" d="M4.89132 14.1587C4.44805 14.1587 4.08629 13.7831 4.08629 13.3228V1.0106C4.08629 0.555574 3.72454 0.174622 3.28636 0.174622H0.80503C0.361754 0.174622 0 0.555574 0 1.0106V14.3651C0 14.8254 0.254756 15.4656 0.570654 15.7884L1.81387 17.0794C2.12467 17.4021 2.74118 17.6667 3.18445 17.6667H11.7646C12.2079 17.6667 12.5697 17.291 12.5697 16.8307V14.9841C12.5697 14.5238 12.2079 14.1482 11.7646 14.1482H4.89132V14.1587Z" fill="#009BFA"/>
<path id="Vector_7" d="M16.5388 18C16.2535 18 16.0446 17.9259 15.8866 17.8518C15.8407 17.8307 15.4026 17.6296 15.158 17.5132L15 17.4391C14.8319 17.3598 14.7147 17.1693 14.7147 16.9788V14.7566C14.7147 14.5926 14.7911 14.4656 14.9338 14.3968C14.944 14.3968 16.0344 13.8466 16.1108 13.8095C16.2382 13.746 16.3808 13.709 16.5337 13.709C16.6865 13.709 16.8343 13.746 16.9668 13.8095C17.0483 13.8518 18.1386 14.3968 18.1437 14.3968C18.2864 14.4656 18.3628 14.5979 18.3628 14.7566V16.9788C18.3628 17.1693 18.2405 17.3598 18.0775 17.4391L17.9807 17.4868C17.7616 17.5873 17.247 17.8307 17.191 17.8518C17.0279 17.9259 16.8292 18 16.5388 18Z" fill="#009BFA"/>
</g>
<defs>
<clipPath id="clip0_2434_52657">
<rect width="94" height="18" fill="white"/>
</clipPath>
</defs>
</svg>
