<svg width="24" height="24" viewBox="0 0 24 24" fill="none" xmlns="http://www.w3.org/2000/svg">
<g clip-path="url(#clip0_2535_63174)">
<path d="M13.5 12.5357C13.5 13.4825 12.8284 14.25 12 14.25C11.1716 14.25 10.5 13.4825 10.5 12.5357C10.5 11.5889 12 8.25 12 8.25C12 8.25 13.5 11.5889 13.5 12.5357Z" fill="#FF3333"/>
<path fill-rule="evenodd" clip-rule="evenodd" d="M10.5 3.9079C10.5 3.40648 10.9065 3 11.4079 3H12.5921C13.0935 3 13.5 3.40648 13.5 3.9079C13.5 4.3397 13.8062 4.70604 14.2188 4.83361C14.6436 4.965 15.0523 5.13312 15.4412 5.33428C15.8442 5.54276 16.3435 5.4975 16.6643 5.17664C17.038 4.80294 17.6439 4.80294 18.0176 5.17664L18.7921 5.95113C19.1623 6.32126 19.1623 6.92138 18.7921 7.29151C18.4725 7.61113 18.4291 8.10921 18.6398 8.50911C18.8524 8.91281 19.0294 9.33825 19.1664 9.78125C19.294 10.1938 19.6603 10.5 20.0921 10.5C20.5935 10.5 21 10.9065 21 11.4079V12.5921C21 13.0935 20.5935 13.5 20.0921 13.5C19.6603 13.5 19.294 13.8062 19.1664 14.2188C19.031 14.6565 18.8566 15.0772 18.6473 15.4766C18.4403 15.8715 18.4841 16.3625 18.7993 16.6778C19.1655 17.0439 19.1655 17.6376 18.7993 18.0037L18.0039 18.7991C17.6378 19.1653 17.0442 19.1653 16.678 18.7991C16.3628 18.4839 15.8718 18.4401 15.4769 18.6471C15.0774 18.8565 14.6566 19.031 14.2188 19.1664C13.8062 19.294 13.5 19.6603 13.5 20.0921C13.5 20.5935 13.0935 21 12.5921 21H11.4079C10.9065 21 10.5 20.5935 10.5 20.0921C10.5 19.6603 10.1938 19.294 9.78125 19.1664C9.33825 19.0294 8.91281 18.8524 8.50911 18.6398C8.10921 18.4291 7.61113 18.4725 7.29151 18.7921C6.92138 19.1623 6.32126 19.1623 5.95113 18.7921L5.17664 18.0176C4.80294 17.6439 4.80294 17.038 5.17664 16.6643C5.4975 16.3435 5.54276 15.8442 5.33428 15.4412C5.13312 15.0523 4.965 14.6436 4.83361 14.2188C4.70604 13.8062 4.3397 13.5 3.9079 13.5C3.40648 13.5 3 13.0935 3 12.5921V11.4079C3 10.9065 3.40648 10.5 3.9079 10.5C4.3397 10.5 4.70604 10.1938 4.83361 9.78125C4.96662 9.35117 5.13727 8.93762 5.34173 8.54447C5.55391 8.13646 5.50899 7.63009 5.18381 7.3049C4.80615 6.92724 4.80615 6.31494 5.18381 5.93729L5.93747 5.18362C6.31515 4.80594 6.92749 4.80594 7.30517 5.18362C7.63036 5.50882 8.13674 5.55374 8.54477 5.34157C8.93783 5.13719 9.35127 4.96658 9.78125 4.83361C10.1938 4.70604 10.5 4.3397 10.5 3.9079Z" fill="white"/>
<path d="M8.54477 5.34157L8.3141 4.89796L8.54477 5.34157ZM5.18381 5.93729L4.83025 5.58373L5.18381 5.93729ZM5.34173 8.54447L4.89813 8.31378L5.34173 8.54447ZM4.83361 14.2188L4.35594 14.3665L4.83361 14.2188ZM5.17664 18.0176L4.82309 18.3712L5.17664 18.0176ZM5.95113 18.7921L6.30468 18.4386L5.95113 18.7921ZM14.2188 19.1664L14.071 18.6887L14.2188 19.1664ZM15.4769 18.6471L15.709 19.09L15.4769 18.6471ZM18.0039 18.7991L18.3575 19.1527L18.0039 18.7991ZM18.7993 18.0037L18.4458 17.6502L18.7993 18.0037ZM18.6473 15.4766L18.2044 15.2445L18.6473 15.4766ZM19.1664 14.2188L18.6887 14.071L19.1664 14.2188ZM19.1664 9.78125L19.6441 9.63352L19.1664 9.78125ZM18.6398 8.50911L18.1974 8.74217L18.6398 8.50911ZM18.7921 5.95113L18.4386 6.30468L18.7921 5.95113ZM18.0176 5.17664L17.6641 5.5302L18.0176 5.17664ZM15.4412 5.33428L15.6709 4.89018L15.4412 5.33428ZM12.5921 2.5H11.4079V3.5H12.5921V2.5ZM15.6709 4.89018C15.256 4.67557 14.8199 4.49616 14.3665 4.35594L14.071 5.31129C14.4673 5.43384 14.8486 5.59068 15.2114 5.77838L15.6709 4.89018ZM17.6641 5.5302L18.4386 6.30468L19.1457 5.59757L18.3712 4.82309L17.6641 5.5302ZM19.6441 9.63352C19.4979 9.16074 19.309 8.70675 19.0821 8.27606L18.1974 8.74217C18.3959 9.11886 18.5609 9.51577 18.6887 9.92897L19.6441 9.63352ZM21.5 12.5921V11.4079H20.5V12.5921H21.5ZM19.0901 15.7087C19.3135 15.2826 19.4996 14.8337 19.6441 14.3665L18.6887 14.071C18.5624 14.4794 18.3997 14.8718 18.2044 15.2445L19.0901 15.7087ZM18.3575 19.1527L19.1529 18.3573L18.4458 17.6502L17.6504 18.4456L18.3575 19.1527ZM14.3665 19.6441C14.8338 19.4995 15.2828 19.3134 15.709 19.09L15.2448 18.2043C14.872 18.3997 14.4795 18.5624 14.071 18.6887L14.3665 19.6441ZM11.4079 21.5H12.5921V20.5H11.4079V21.5ZM8.27606 19.0821C8.70675 19.309 9.16074 19.4979 9.63352 19.6441L9.92897 18.6887C9.51577 18.5609 9.11886 18.3959 8.74217 18.1974L8.27606 19.0821ZM4.82309 18.3712L5.59757 19.1457L6.30468 18.4386L5.5302 17.6641L4.82309 18.3712ZM4.35594 14.3665C4.49616 14.8199 4.67557 15.256 4.89018 15.6709L5.77838 15.2114C5.59068 14.8486 5.43384 14.4673 5.31129 14.071L4.35594 14.3665ZM3.5 12.5921V11.4079H2.5V12.5921H3.5ZM4.89813 8.31378C4.68 8.73323 4.49788 9.17452 4.35593 9.63352L5.31129 9.92897C5.43535 9.52781 5.59455 9.14202 5.78533 8.77516L4.89813 8.31378ZM5.53736 6.29084L6.29103 5.53717L5.58392 4.83007L4.83025 5.58373L5.53736 6.29084ZM9.63352 4.35593C9.17464 4.49785 8.73346 4.6799 8.3141 4.89796L8.77544 5.78518C9.14221 5.59447 9.52791 5.43532 9.92897 5.31129L9.63352 4.35593ZM9.92897 5.31129C10.5224 5.12776 11 4.5874 11 3.9079H10C10 4.092 9.86512 4.28431 9.63352 4.35593L9.92897 5.31129ZM6.95161 5.53717C7.45228 6.03784 8.20189 6.08342 8.77544 5.78518L8.3141 4.89796C8.07159 5.02406 7.80845 4.97979 7.65872 4.83007L6.95161 5.53717ZM6.29103 5.53717C6.47344 5.35476 6.7692 5.35476 6.95161 5.53717L7.65872 4.83007C7.08578 4.25713 6.15686 4.25713 5.58392 4.83007L6.29103 5.53717ZM5.53736 6.95135C5.35497 6.76895 5.35497 6.47323 5.53736 6.29084L4.83025 5.58373C4.25733 6.15665 4.25734 7.08554 4.83025 7.65845L5.53736 6.95135ZM5.78533 8.77516C6.08359 8.20163 6.03802 7.45201 5.53736 6.95135L4.83025 7.65845C4.97997 7.80817 5.02423 8.0713 4.89813 8.31378L5.78533 8.77516ZM3.9079 11C4.58741 11 5.12776 10.5224 5.31129 9.92897L4.35593 9.63352C4.28431 9.86512 4.092 10 3.9079 10V11ZM3.5 11.4079C3.5 11.1826 3.68262 11 3.9079 11V10C3.13034 10 2.5 10.6303 2.5 11.4079H3.5ZM3.9079 13C3.68262 13 3.5 12.8174 3.5 12.5921H2.5C2.5 13.3697 3.13034 14 3.9079 14V13ZM5.31129 14.071C5.12777 13.4776 4.58741 13 3.9079 13V14C4.092 14 4.28431 14.1349 4.35594 14.3665L5.31129 14.071ZM5.5302 17.0179C6.02594 16.5222 6.07261 15.7802 5.77838 15.2114L4.89018 15.6709C5.01291 15.9081 4.96906 16.1648 4.82309 16.3108L5.5302 17.0179ZM5.5302 17.6641C5.35176 17.4856 5.35176 17.1963 5.5302 17.0179L4.82309 16.3108C4.25413 16.8798 4.25413 17.8022 4.82309 18.3712L5.5302 17.6641ZM6.93796 18.4386C6.76308 18.6134 6.47956 18.6134 6.30468 18.4386L5.59757 19.1457C6.16297 19.7111 7.07967 19.7111 7.64507 19.1457L6.93796 18.4386ZM8.74217 18.1974C8.17589 17.8991 7.43344 17.9431 6.93796 18.4386L7.64507 19.1457C7.78882 19.0019 8.04252 18.9591 8.27606 19.0821L8.74217 18.1974ZM11 20.0921C11 19.4126 10.5224 18.8722 9.92897 18.6887L9.63352 19.6441C9.86512 19.7157 10 19.908 10 20.0921H11ZM11.4079 20.5C11.1826 20.5 11 20.3174 11 20.0921H10C10 20.8697 10.6303 21.5 11.4079 21.5V20.5ZM13 20.0921C13 20.3174 12.8174 20.5 12.5921 20.5V21.5C13.3697 21.5 14 20.8697 14 20.0921H13ZM14.071 18.6887C13.4776 18.8722 13 19.4126 13 20.0921H14C14 19.908 14.1349 19.7157 14.3665 19.6441L14.071 18.6887ZM17.0316 18.4456C16.541 17.955 15.8063 17.9099 15.2448 18.2043L15.709 19.09C15.9373 18.9703 16.1845 19.0127 16.3245 19.1527L17.0316 18.4456ZM17.6504 18.4456C17.4795 18.6165 17.2025 18.6165 17.0316 18.4456L16.3245 19.1527C16.8859 19.7141 17.7961 19.7141 18.3575 19.1527L17.6504 18.4456ZM18.4458 17.0313C18.6167 17.2022 18.6167 17.4793 18.4458 17.6502L19.1529 18.3573C19.7143 17.7959 19.7143 16.8856 19.1529 16.3242L18.4458 17.0313ZM18.2044 15.2445C17.9101 15.806 17.9552 16.5408 18.4458 17.0313L19.1529 16.3242C19.0129 16.1842 18.9705 15.937 19.0901 15.7087L18.2044 15.2445ZM20.0921 13C19.4126 13 18.8722 13.4776 18.6887 14.071L19.6441 14.3665C19.7157 14.1349 19.908 14 20.0921 14V13ZM20.5 12.5921C20.5 12.8174 20.3174 13 20.0921 13V14C20.8697 14 21.5 13.3697 21.5 12.5921H20.5ZM20.0921 11C20.3174 11 20.5 11.1826 20.5 11.4079H21.5C21.5 10.6303 20.8697 10 20.0921 10V11ZM18.6887 9.92897C18.8722 10.5224 19.4126 11 20.0921 11V10C19.908 10 19.7157 9.86512 19.6441 9.63352L18.6887 9.92897ZM18.4386 6.93796C17.9431 7.43344 17.8991 8.17589 18.1974 8.74217L19.0821 8.27606C18.9591 8.04252 19.0019 7.78882 19.1457 7.64507L18.4386 6.93796ZM18.4386 6.30468C18.6134 6.47956 18.6134 6.76309 18.4386 6.93796L19.1457 7.64507C19.7111 7.07967 19.7111 6.16297 19.1457 5.59757L18.4386 6.30468ZM17.0179 5.5302C17.1963 5.35176 17.4856 5.35176 17.6641 5.5302L18.3712 4.82309C17.8022 4.25413 16.8798 4.25413 16.3108 4.82309L17.0179 5.5302ZM15.2114 5.77838C15.7802 6.07261 16.5222 6.02594 17.0179 5.5302L16.3108 4.82309C16.1648 4.96906 15.9081 5.01291 15.6709 4.89018L15.2114 5.77838ZM13 3.9079C13 4.58741 13.4776 5.12777 14.071 5.31129L14.3665 4.35594C14.1349 4.28431 14 4.092 14 3.9079H13ZM11.4079 2.5C10.6303 2.5 10 3.13034 10 3.9079H11C11 3.68262 11.1826 3.5 11.4079 3.5V2.5ZM12.5921 3.5C12.8174 3.5 13 3.68262 13 3.9079H14C14 3.13034 13.3697 2.5 12.5921 2.5V3.5Z" fill="#1A1A1A"/>
<path d="M8.25 11.983L10.6041 14.25L15.75 9" stroke="#FF3333" stroke-linecap="round"/>
</g>
<defs>
<clipPath id="clip0_2535_63174">
<rect width="24" height="24" fill="white"/>
</clipPath>
</defs>
</svg>
