<svg width="24" height="24" viewBox="0 0 24 24" fill="none" xmlns="http://www.w3.org/2000/svg">
<path d="M4.61844 4.78141L11.8684 2.80414C11.9546 2.78065 12.0454 2.78065 12.1316 2.80414L19.3816 4.78141C19.5997 4.84091 19.75 5.03788 19.75 5.26272V13.5C19.75 15.242 18.6414 16.7682 17.0749 18.077C15.5182 19.3776 13.6032 20.3846 12.1792 21.101C12.0492 21.1663 11.9078 21.1692 11.7866 21.1157C10.3924 20.4995 8.48053 19.4338 6.92652 18.0791C5.35545 16.7096 4.25 15.1332 4.25 13.5V5.26271C4.25 5.03788 4.40029 4.84091 4.61844 4.78141Z" fill="white" stroke="#1A1A1A"/>
<path d="M8.25 11.983L10.6041 14.25L15.75 9" stroke="#FF3333" stroke-linecap="round"/>
</svg>
