<svg width="24" height="24" viewBox="0 0 24 24" fill="none" xmlns="http://www.w3.org/2000/svg">
<path d="M19 10L21 9" stroke="#1A1A1A" stroke-linecap="round"/>
<path d="M5 10L3 9" stroke="#1A1A1A" stroke-linecap="round"/>
<path d="M3.3889 11.4662L4.44223 9.5H19.5578L20.6111 11.4662C21.1946 12.5555 21.5 13.7721 21.5 15.0079V16.5H2.5V15.0079C2.5 13.7721 2.80535 12.5555 3.3889 11.4662Z" fill="white" stroke="#1A1A1A"/>
<path d="M16.5 16.5H21.5V18C21.5 18.8284 20.8284 19.5 20 19.5H18C17.1716 19.5 16.5 18.8284 16.5 18V16.5Z" fill="white" stroke="#1A1A1A"/>
<path d="M2.5 16.5H7.5V18C7.5 18.8284 6.82843 19.5 6 19.5H4C3.17157 19.5 2.5 18.8284 2.5 18V16.5Z" fill="white" stroke="#1A1A1A"/>
<circle cx="6.5" cy="12.8999" r="1" fill="#FF3333"/>
<circle cx="17.5" cy="12.9" r="1" fill="#FF3333"/>
<rect x="9.5" y="12.3999" width="5" height="1" rx="0.5" fill="#1A1A1A"/>
<path d="M5.58933 6.6873C5.93635 5.6778 6.88607 5 7.95355 5H16.0465C17.1139 5 18.0637 5.6778 18.4107 6.6873L19.5494 10H4.45059L5.58933 6.6873Z" fill="white" stroke="#1A1A1A"/>
</svg>
