<svg width="24" height="24" viewBox="0 0 24 24" fill="none" xmlns="http://www.w3.org/2000/svg">
<g clip-path="url(#clip0_2535_63188)">
<path fill-rule="evenodd" clip-rule="evenodd" d="M12 21C16.9706 21 21 16.9706 21 12C21 7.02943 16.9706 3 12 3C7.02943 3 3 7.02943 3 12C3 16.9706 7.02943 21 12 21Z" fill="white" stroke="#1A1A1A" stroke-linecap="round" stroke-linejoin="round"/>
<path d="M18 12C18 8.68629 15.3137 6 12 6C8.68629 6 6 8.68629 6 12" stroke="#1A1A1A" stroke-linecap="round" stroke-linejoin="round"/>
<path d="M13.5 12.5357C13.5 13.4825 12.8284 14.25 12 14.25C11.1716 14.25 10.5 13.4825 10.5 12.5357C10.5 11.5889 12 8.25 12 8.25C12 8.25 13.5 11.5889 13.5 12.5357Z" fill="#FF3333"/>
</g>
<defs>
<clipPath id="clip0_2535_63188">
<rect width="24" height="24" fill="white"/>
</clipPath>
</defs>
</svg>
