<svg width="40" height="40" viewBox="0 0 40 40" fill="none" xmlns="http://www.w3.org/2000/svg">
<g id="1">
<circle id="Ellipse 156" cx="20" cy="20" r="19.5" stroke="#DDDDDD"/>
<g id="icon_instagram">
<path id="Vector" fill-rule="evenodd" clip-rule="evenodd" d="M20.0009 10.8831C17.5239 10.8831 17.2136 10.8929 16.2406 10.9382C15.2705 10.9825 14.6067 11.1362 14.0266 11.3617C13.4278 11.5951 12.9186 11.9073 12.4114 12.4136C11.9051 12.9208 11.5929 13.43 11.3595 14.0288C11.134 14.6098 10.9803 15.2727 10.936 16.2428C10.8917 17.2158 10.8809 17.5261 10.8809 20.0031C10.8809 22.48 10.8907 22.7903 10.936 23.7633C10.9803 24.7344 11.134 25.3973 11.3595 25.9773C11.5929 26.5771 11.9051 27.0853 12.4114 27.5926C12.9186 28.0998 13.4278 28.411 14.0266 28.6444C14.6076 28.8699 15.2705 29.0236 16.2406 29.0679C17.2136 29.1122 17.5239 29.1231 20.0009 29.1231C22.4778 29.1231 22.7881 29.1132 23.7611 29.0679C24.7312 29.0236 25.395 28.8699 25.9751 28.6444C26.5739 28.411 27.0831 28.0998 27.5903 27.5926C28.0966 27.0853 28.4088 26.5771 28.6422 25.9773C28.8677 25.3963 29.0214 24.7344 29.0657 23.7633C29.11 22.7903 29.1208 22.48 29.1208 20.0031C29.1208 17.5261 29.111 17.2158 29.0657 16.2428C29.0214 15.2727 28.8677 14.6089 28.6422 14.0288C28.4088 13.43 28.0966 12.9208 27.5903 12.4136C27.0831 11.9073 26.5739 11.5951 25.9751 11.3617C25.3941 11.1362 24.7312 10.9825 23.7611 10.9382C22.7881 10.8929 22.4778 10.8831 20.0009 10.8831ZM20.0009 12.5268C22.4355 12.5268 22.724 12.5367 23.6863 12.58C24.5756 12.6194 25.0582 12.7691 25.3803 12.8932C25.8048 13.0587 26.1091 13.2566 26.4282 13.5757C26.7473 13.8948 26.9452 14.1992 27.1107 14.6246C27.2348 14.9457 27.3835 15.4283 27.4239 16.3186C27.4682 17.2799 27.4771 17.5684 27.4771 20.0031C27.4771 22.4387 27.4682 22.7263 27.4239 23.6885C27.3845 24.5778 27.2348 25.0604 27.1107 25.3825C26.9452 25.807 26.7463 26.1113 26.4282 26.4304C26.1091 26.7495 25.8048 26.9475 25.3793 27.1129C25.0582 27.237 24.5756 27.3857 23.6853 27.4261C22.725 27.4704 22.4365 27.4793 20.0009 27.4793C17.5652 27.4793 17.2767 27.4704 16.3154 27.4261C15.4261 27.3867 14.9435 27.237 14.6214 27.1129C14.197 26.9475 13.8926 26.7485 13.5735 26.4304C13.2544 26.1113 13.0565 25.807 12.891 25.3815C12.7669 25.0604 12.6182 24.5778 12.5778 23.6875C12.5335 22.7263 12.5246 22.4387 12.5246 20.0031C12.5246 17.5684 12.5335 17.2799 12.5778 16.3176C12.6172 15.4283 12.7669 14.9457 12.891 14.6236C13.0565 14.1992 13.2554 13.8948 13.5735 13.5757C13.8926 13.2566 14.197 13.0587 14.6224 12.8932C14.9435 12.7691 15.4261 12.6204 16.3164 12.58C17.2777 12.5357 17.5662 12.5268 20.0009 12.5268Z" fill="#1A1A1A"/>
<path id="Vector_2" fill-rule="evenodd" clip-rule="evenodd" d="M19.9995 23.0336C18.3203 23.0336 16.9592 21.6725 16.9592 19.9932C16.9592 18.314 18.3203 16.9529 19.9995 16.9529C21.6787 16.9529 23.0398 18.314 23.0398 19.9932C23.0398 21.6725 21.6787 23.0336 19.9995 23.0336ZM19.9995 15.3101C17.4132 15.3101 15.3164 17.4069 15.3164 19.9932C15.3164 22.5795 17.4132 24.6763 19.9995 24.6763C22.5858 24.6763 24.6826 22.5795 24.6826 19.9932C24.6826 17.4069 22.5858 15.3101 19.9995 15.3101ZM25.962 15.125C25.962 15.7297 25.4725 16.2192 24.8678 16.2192C24.2631 16.2192 23.7736 15.7297 23.7736 15.1259C23.7736 14.5202 24.2631 14.0308 24.8668 14.0308C25.4725 14.0308 25.962 14.5202 25.962 15.125Z" fill="#1A1A1A"/>
</g>
</g>
</svg>
