<svg width="20" height="20" viewBox="0 0 20 20" fill="none" xmlns="http://www.w3.org/2000/svg">
<g id="icon">
<g id="icon_?">
<circle id="Ellipse 37" cx="10" cy="10" r="7.5" stroke="#999999"/>
<path id="Union" fill-rule="evenodd" clip-rule="evenodd" d="M10.8434 10.3738C11.5596 9.94793 12.3837 9.10608 12.3651 8.02969C12.3405 6.60311 11.4474 5.71365 9.84678 5.74597C8.7717 5.76768 7.92366 6.3561 7.67347 7.09232C7.433 7.76251 8.37098 8.48414 8.92544 7.75354C9.1442 7.46229 9.46363 7.21369 9.80461 7.20681C10.4279 7.19422 10.7461 7.50283 10.7574 8.15854C10.7671 8.72024 10.2006 9.2583 9.71708 9.5643C9.29376 9.83616 8.97001 10.3388 8.98168 11.0156L8.99425 11.7442C9.00936 12.6208 10.4028 12.5386 10.3886 11.716L10.3795 11.1872C10.3734 10.8371 10.4757 10.5928 10.8434 10.3738ZM9.68286 13.2591C10.152 13.2496 10.5278 13.6228 10.5357 14.0817C10.5436 14.5407 10.1788 14.9288 9.71181 14.9382C9.24486 14.9476 8.86705 14.5832 8.85899 14.1156C8.85093 13.648 9.2159 13.2685 9.68286 13.2591Z" fill="#999999"/>
</g>
</g>
</svg>
