<svg width="64" height="64" viewBox="0 0 64 64" fill="none" xmlns="http://www.w3.org/2000/svg">
<g id="icon_!">
<g id="emoji_&#236;&#163;&#188;&#236;&#157;&#152;">
<circle id="Ellipse 1" cx="28" cy="32" r="23" fill="white" stroke="#1A1A1A" stroke-width="2"/>
<path id="&#235;&#136;&#136;" d="M24.2002 34C24.2002 35.1046 23.3048 36 22.2002 36C21.0956 36 20.2002 35.1046 20.2002 34C20.2002 32.8954 21.0956 32 22.2002 32C23.3048 32 24.2002 32.8954 24.2002 34Z" fill="#1A1A1A"/>
<path id="&#235;&#136;&#136;_2" d="M35 34C35 35.1046 34.1046 36 33 36C31.8954 36 31 35.1046 31 34C31 32.8954 31.8954 32 33 32C34.1046 32 35 32.8954 35 34Z" fill="#1A1A1A"/>
<path id="Ellipse 1389" d="M31 43C31 44.5494 29.547 46 27.5 46C25.453 46 24 44.5494 24 43C24 41.4506 25.453 40 27.5 40C29.547 40 31 41.4506 31 43Z" stroke="#1A1A1A" stroke-width="2"/>
</g>
<rect id="Rectangle 959175" x="34" y="3" width="26" height="26" rx="13" fill="#FF3333"/>
<rect id="Rectangle 3510" x="46" y="10" width="2" height="8" rx="1" fill="white"/>
<circle id="Ellipse 1251" cx="1" cy="1" r="1" transform="matrix(-1 -5.18986e-09 -5.18986e-09 1 48 20)" fill="white"/>
</g>
</svg>
