<svg width="16" height="16" viewBox="0 0 16 16" fill="none" xmlns="http://www.w3.org/2000/svg">
<g id="doc-search-two" clip-path="url(#clip0_763_3371)">
<path id="Vector" d="M13.3337 8.99998V1.99998C13.3337 1.63179 13.0352 1.33331 12.667 1.33331H3.33366C2.96547 1.33331 2.66699 1.63179 2.66699 1.99998V14C2.66699 14.3682 2.96547 14.6666 3.33366 14.6666L8.50049 14.6666" stroke="#1A1A1A" stroke-linecap="round" stroke-linejoin="round"/>
<path id="Vector_2" d="M5.66699 4H10.3337" stroke="#1A1A1A" stroke-linecap="round" stroke-linejoin="round"/>
<path id="Vector_3" d="M5.66699 6.66669H10.3337" stroke="#1A1A1A" stroke-linecap="round" stroke-linejoin="round"/>
<path id="Vector_4" d="M5.66699 9.33331H7.66699" stroke="#1A1A1A" stroke-linecap="round" stroke-linejoin="round"/>
<path id="Vector_5" d="M14 14.6667L12.8452 13.5119L14 14.6667ZM12.8452 13.5119C13.1468 13.2103 13.3333 12.7936 13.3333 12.3334C13.3333 11.4129 12.5871 10.6667 11.6667 10.6667C10.7462 10.6667 10 11.4129 10 12.3334C10 13.2538 10.7462 14 11.6667 14C12.1269 14 12.5436 13.8135 12.8452 13.5119Z" stroke="#1A1A1A" stroke-linecap="round" stroke-linejoin="round"/>
</g>
<defs>
<clipPath id="clip0_763_3371">
<rect width="16" height="16" fill="white"/>
</clipPath>
</defs>
</svg>
