<svg width="32" height="32" viewBox="0 0 32 32" fill="none" xmlns="http://www.w3.org/2000/svg">
<g id="Frame 1000003064">
<path id="Vector 342" d="M25.5996 12.8L27.9996 12" stroke="#1A1A1A" stroke-width="1.5" stroke-linecap="round"/>
<path id="Vector 343" d="M6.40039 12.8L4.00039 12" stroke="#1A1A1A" stroke-width="1.5" stroke-linecap="round"/>
<path id="Rectangle 959130" d="M4.7876 16.1981L6.39539 13.15H25.605L27.2128 16.1981C27.7628 17.2408 28.0502 18.4018 28.0502 19.5806V22.05H3.9502V19.5806C3.9502 18.4018 4.23763 17.2408 4.7876 16.1981Z" fill="white" stroke="#1A1A1A" stroke-width="1.5"/>
<path id="Rectangle 959132" d="M22.3496 22.3501H28.0496V24.4001C28.0496 25.0905 27.49 25.6501 26.7996 25.6501H23.5996C22.9093 25.6501 22.3496 25.0905 22.3496 24.4001V22.3501Z" fill="white" stroke="#1A1A1A" stroke-width="1.5"/>
<path id="Rectangle 959135" d="M3.9502 22.35H9.6502V24.4C9.6502 25.0903 9.09055 25.65 8.4002 25.65H5.2002C4.50984 25.65 3.9502 25.0903 3.9502 24.4V22.35Z" fill="white" stroke="#1A1A1A" stroke-width="1.5"/>
<circle id="Ellipse 1276" cx="8.66634" cy="17.2" r="1.33333" fill="#FF3333"/>
<circle id="Ellipse 1277" cx="23.3333" cy="17.2" r="1.33333" fill="#FF3333"/>
<rect id="Rectangle 959133" x="12.667" y="16.5332" width="6.66667" height="1.33333" rx="0.666667" fill="#1A1A1A"/>
<path id="Rectangle 959134" d="M8.23924 7.90453C8.54051 6.97756 9.40437 6.34998 10.3791 6.34998H21.6201C22.5948 6.34998 23.4587 6.97756 23.76 7.90453L25.3672 12.85H6.63197L8.23924 7.90453Z" fill="white" stroke="#1A1A1A" stroke-width="1.5"/>
</g>
</svg>
