<svg width="40" height="18" viewBox="0 0 40 18" fill="none" xmlns="http://www.w3.org/2000/svg">
<path d="M27.3664 13.4158H24.1221C23.5327 13.4158 22.9727 13.6442 22.56 14.0568L21.3 15.3021C20.7253 15.8695 19.7895 15.8695 19.2148 15.3021L17.9548 14.0568C17.5422 13.6442 16.9748 13.4158 16.3927 13.4158H12.1558C10.9327 13.4158 9.94531 12.4358 9.94531 11.2274V4.1884C9.94531 2.97998 10.9327 2 12.1558 2H27.3664C28.5895 2 29.5769 2.97998 29.5769 4.1884V11.2274C29.5769 12.4284 28.5895 13.4158 27.3664 13.4158Z" stroke="#999999" stroke-width="1.5" stroke-miterlimit="10" stroke-linecap="round" stroke-linejoin="round"/>
<path d="M12.9469 5.3218H14.7949C15.0702 5.3218 15.3175 5.38246 15.5369 5.5038C15.7562 5.62513 15.9265 5.79313 16.0479 6.0078C16.1692 6.22246 16.2299 6.46746 16.2299 6.7428C16.2299 6.90146 16.1925 7.06713 16.1179 7.2398C16.0432 7.41246 15.9429 7.56413 15.8169 7.6948C15.9102 7.7508 15.9755 7.7928 16.0129 7.8208C16.2042 7.9468 16.3605 8.12413 16.4819 8.3528C16.6079 8.58146 16.6709 8.81246 16.6709 9.0458C16.6709 9.33513 16.6102 9.59646 16.4889 9.8298C16.3675 10.0585 16.1972 10.2381 15.9779 10.3688C15.7585 10.4948 15.5112 10.5578 15.2359 10.5578H12.9469V5.3218ZM15.0959 9.7738C15.3012 9.7738 15.4645 9.70846 15.5859 9.5778C15.7119 9.44246 15.7749 9.26513 15.7749 9.0458C15.7749 8.8078 15.7119 8.61646 15.5859 8.4718C15.4645 8.32713 15.3012 8.2548 15.0959 8.2548H13.8499V9.7738H15.0959ZM14.7319 7.4778C14.9139 7.46846 15.0585 7.40546 15.1659 7.2888C15.2779 7.16746 15.3339 7.0088 15.3339 6.8128C15.3339 6.59346 15.2755 6.4208 15.1589 6.2948C15.0422 6.16413 14.8835 6.0988 14.6829 6.0988H13.8499V7.4778H14.7319ZM19.1666 10.6068C18.7466 10.6068 18.3826 10.5158 18.0746 10.3338C17.7666 10.1518 17.5309 9.8998 17.3676 9.5778C17.2043 9.2558 17.1226 8.8848 17.1226 8.4648V5.3218H18.0256V8.4578C18.0256 8.8638 18.1213 9.18346 18.3126 9.4168C18.5039 9.65013 18.7886 9.7668 19.1666 9.7668C19.5446 9.7668 19.8293 9.65013 20.0206 9.4168C20.2166 9.18346 20.3146 8.8638 20.3146 8.4578V5.3218H21.2176V8.4648C21.2176 8.8848 21.1359 9.2558 20.9726 9.5778C20.8093 9.8998 20.5713 10.1518 20.2586 10.3338C19.9506 10.5158 19.5866 10.6068 19.1666 10.6068ZM24.5242 8.5138V10.5578H23.6212V8.5138L21.7802 5.3218H22.8232L24.0762 7.5338L25.3222 5.3218H26.3722L24.5242 8.5138Z" fill="#999999"/>
</svg>
