<svg width="14" height="15" viewBox="0 0 14 15" fill="none" xmlns="http://www.w3.org/2000/svg">
<path fill-rule="evenodd" clip-rule="evenodd" d="M5.89156 3.07981L3.10394 0.292939C2.82541 0.0144873 2.42357 -0.0654829 2.07428 0.053153C2.08083 0.0376226 2.0875 0.0223736 2.09429 0.00740781C2.07448 0.0272117 2.05432 0.0473657 2.03384 0.0678727C1.90847 0.116599 1.79094 0.191562 1.68971 0.292768L1.34624 0.636151C1.03828 0.944023 0.662617 1.45497 0.487202 2.07968C-0.396886 3.86953 -0.4371 6.57863 3.49496 10.5096C9.44781 16.4609 12.5993 13.3102 14 11.9099C13.9195 11.9465 13.8308 11.9795 13.7342 12.0081C13.9691 11.6232 13.9199 11.1139 13.5869 10.781L10.7993 7.99411C10.4087 7.60364 9.7756 7.60347 9.38502 7.99394L9.04155 8.33732C8.65858 8.72019 8.17091 9.41709 8.09385 10.2563C7.35934 9.72855 6.5778 9.06761 5.75758 8.24762C4.88873 7.379 4.19841 6.55377 3.65586 5.78186C4.48319 5.69695 5.16942 5.21578 5.54825 4.83704L5.89169 4.4937C6.28226 4.10323 6.28213 3.47028 5.89156 3.07981Z" fill="#DA291C"/>
</svg>
