<svg width="21" height="18" viewBox="0 0 21 18" fill="none" xmlns="http://www.w3.org/2000/svg">
<g clip-path="url(#clip0_10196_28120)">
<path d="M18.6796 2.30441L18.6799 2.30473C19.0996 2.71694 19.4316 3.20542 19.6577 3.74179C19.8838 4.27813 20 4.85237 20 5.43187C20 6.01136 19.8838 6.58561 19.6577 7.12194C19.4316 7.65832 19.0996 8.14679 18.6799 8.559L18.6798 8.55917L17.6149 9.60569L10.4997 16.5979L3.38459 9.60569L2.31968 8.55917C1.47262 7.72673 1 6.60146 1 5.43187C1 4.26228 1.47262 3.137 2.31968 2.30457C3.16733 1.47156 4.32064 1.00053 5.52679 1.00053C6.73293 1.00053 7.88624 1.47156 8.7339 2.30457L9.79881 3.35109L10.4997 4.03991L11.2007 3.35109L12.2656 2.30457L12.2657 2.3044C12.6852 1.89197 13.1842 1.56389 13.7347 1.33974C14.2852 1.11559 14.8758 1 15.4727 1C16.0695 1 16.6602 1.11559 17.2107 1.33974C17.7611 1.56389 18.2601 1.89197 18.6796 2.30441Z" stroke="#E6E6E6" stroke-width="2" stroke-linecap="round"/>
</g>
<defs>
<clipPath id="clip0_10196_28120">
<rect width="21" height="18" fill="white"/>
</clipPath>
</defs>
</svg>
