<svg width="12" height="11" viewBox="0 0 12 11" fill="none" xmlns="http://www.w3.org/2000/svg">
<path d="M10.7078 7.9074V4.80558C10.7078 2.42761 8.62233 0.5 6.04967 0.5H5.95003C3.37767 0.5 1.29224 2.42761 1.29224 4.80558V7.9074H0.5V10.9211H11.5V7.9074H10.7078ZM6.59527 8.49126C6.59527 8.6042 6.52397 8.69602 6.43591 8.69602H5.48931C5.40125 8.69602 5.32994 8.60448 5.32994 8.49126V7.83614C5.32994 7.7232 5.40125 7.63138 5.48931 7.63138H6.37814C6.4662 7.63138 6.59527 7.72292 6.59527 7.83614V8.49126ZM6.85928 3.39476L6.60515 6.46756C6.59418 6.59853 6.49576 6.6988 6.37814 6.6988H5.59656C5.47864 6.6988 5.38022 6.59825 5.36956 6.46728L5.12091 3.39504V3.33702C5.12091 3.18972 5.22787 3.0703 5.35981 3.0703C5.49175 3.0703 6.62069 3.0703 6.62069 3.0703C6.75263 3.0703 6.85958 3.18972 6.85958 3.33702L6.85928 3.39476Z" fill="#BBBBBB"/>
</svg>
