<svg width="21" height="18" viewBox="0 0 21 18" fill="none" xmlns="http://www.w3.org/2000/svg">
<path d="M18 3.5C18 4.88071 16.8807 6 15.5 6C14.1193 6 13 4.88071 13 3.5C13 2.11929 14.1193 1 15.5 1C16.8807 1 18 2.11929 18 3.5Z" stroke="#E6E6E6" stroke-width="2" stroke-linecap="round" stroke-linejoin="round"/>
<path d="M7 9C7 10.3807 5.88071 11.5 4.5 11.5C3.11929 11.5 2 10.3807 2 9C2 7.61929 3.11929 6.5 4.5 6.5C5.88071 6.5 7 7.61929 7 9Z" stroke="#E6E6E6" stroke-width="2" stroke-linecap="round" stroke-linejoin="round"/>
<path d="M18 14.5C18 15.8807 16.8807 17 15.5 17C14.1193 17 13 15.8807 13 14.5C13 13.1193 14.1193 12 15.5 12C16.8807 12 18 13.1193 18 14.5Z" stroke="#E6E6E6" stroke-width="2" stroke-linecap="round" stroke-linejoin="round"/>
<path d="M13 4L6.5 7" stroke="#E6E6E6" stroke-width="2" stroke-linecap="round" stroke-linejoin="round"/>
<path d="M13 13.5L6.5 10.5" stroke="#E6E6E6" stroke-width="2" stroke-linecap="round" stroke-linejoin="round"/>
</svg>
