<svg width="24" height="24" viewBox="0 0 24 24" fill="none" xmlns="http://www.w3.org/2000/svg">
<path d="M21 19L15 19M15 19C15 17.8954 14.1046 17 13 17C11.8954 17 11 17.8954 11 19M15 19C15 20.1046 14.1046 21 13 21C11.8954 21 11 20.1046 11 19M11 19H3M21 12L11 12M11 12C11 10.8954 10.1046 10 9 10C7.89543 10 7 10.8954 7 12M11 12C11 13.1046 10.1046 14 9 14C7.89543 14 7 13.1046 7 12M7 12H3M21 5H17M17 5C17 3.89543 16.1046 3 15 3C13.8954 3 13 3.89543 13 5C13 6.10457 13.8954 7 15 7C16.1046 7 17 6.10457 17 5ZM13 5H3" stroke="#303030" stroke-width="1.5" stroke-linecap="round" stroke-linejoin="round"/>
</svg>
