<svg width="25" height="25" viewBox="0 0 25 25" fill="none" xmlns="http://www.w3.org/2000/svg">
<path d="M9.42831 21.0469V13.9365C9.42831 13.3983 9.42831 13.1293 9.53089 12.9237C9.62112 12.7429 9.76511 12.5959 9.9422 12.5038C10.1435 12.3991 10.4071 12.3991 10.9342 12.3991H13.5695C14.0966 12.3991 14.3601 12.3991 14.5615 12.5038C14.7386 12.5959 14.8826 12.7429 14.9728 12.9237C15.0754 13.1293 15.0754 13.3983 15.0754 13.9365V21.0469M11.3273 3.52457L4.94397 8.59325C4.51727 8.93207 4.30392 9.10148 4.15022 9.31364C4.01406 9.50157 3.91264 9.71329 3.85092 9.93839C3.78125 10.1925 3.78125 10.4684 3.78125 11.0203V17.9721C3.78125 19.0484 3.78125 19.5865 3.98641 19.9976C4.16688 20.3592 4.45485 20.6532 4.80903 20.8374C5.21169 21.0469 5.7388 21.0469 6.79301 21.0469H17.7107C18.7649 21.0469 19.292 21.0469 19.6946 20.8374C20.0488 20.6532 20.3368 20.3592 20.5173 19.9976C20.7224 19.5865 20.7224 19.0484 20.7224 17.9721V11.0203C20.7224 10.4684 20.7224 10.1925 20.6528 9.93839C20.591 9.71329 20.4896 9.50157 20.3535 9.31364C20.1998 9.10148 19.9864 8.93207 19.5597 8.59325L13.1764 3.52457C12.8457 3.26201 12.6804 3.13073 12.4978 3.08027C12.3367 3.03574 12.1669 3.03574 12.0059 3.08027C11.8233 3.13073 11.658 3.26201 11.3273 3.52457Z" stroke="#303030" stroke-width="1.5" stroke-linecap="round" stroke-linejoin="round"/>
</svg>
