<svg width="18" height="19" viewBox="0 0 18 19" fill="none" xmlns="http://www.w3.org/2000/svg">
<path fill-rule="evenodd" clip-rule="evenodd" d="M4.84088 4.12397C4.54798 3.83107 4.07311 3.83107 3.78022 4.12397C3.48732 4.41686 3.48732 4.89173 3.78022 5.18463L7.85721 9.26162L3.78022 13.3386C3.48732 13.6315 3.48732 14.1064 3.78022 14.3993C4.07311 14.6922 4.54798 14.6922 4.84088 14.3993L8.91787 10.3223L12.9793 14.3837C13.2722 14.6766 13.747 14.6766 14.0399 14.3837C14.3328 14.0908 14.3328 13.6159 14.0399 13.323L9.97853 9.26162L14.0399 5.20021C14.3328 4.90731 14.3328 4.43244 14.0399 4.13955C13.747 3.84665 13.2722 3.84665 12.9793 4.13955L8.91787 8.20096L4.84088 4.12397Z" fill="black"/>
</svg>
