<svg width="17" height="17" viewBox="0 0 17 17" fill="none" xmlns="http://www.w3.org/2000/svg">
<circle cx="8.14844" cy="8.37891" r="7.5" stroke="#999999"/>
<path d="M7.54515 10.5142C7.54157 10.3853 7.53978 10.2886 7.53978 10.2241C7.53978 9.84456 7.59349 9.51693 7.70091 9.24121C7.77968 9.03353 7.9068 8.82406 8.08226 8.61279C8.21116 8.45882 8.44212 8.23503 8.77513 7.94141C9.11172 7.64421 9.33014 7.40788 9.4304 7.23242C9.53066 7.05697 9.58079 6.8654 9.58079 6.65771C9.58079 6.28174 9.43398 5.95231 9.14036 5.66943C8.84674 5.38298 8.48688 5.23975 8.06077 5.23975C7.64899 5.23975 7.30524 5.36865 7.02952 5.62646C6.75381 5.88428 6.57298 6.28711 6.48704 6.83496L5.49339 6.7168C5.58291 5.98275 5.84788 5.42057 6.28831 5.03027C6.73232 4.63997 7.31777 4.44482 8.04466 4.44482C8.81452 4.44482 9.42861 4.6543 9.88694 5.07324C10.3453 5.49219 10.5744 5.99886 10.5744 6.59326C10.5744 6.93701 10.4939 7.25391 10.3327 7.54395C10.1716 7.83398 9.85651 8.18669 9.38743 8.60205C9.07233 8.88135 8.86644 9.08724 8.76976 9.21973C8.67308 9.35221 8.60146 9.50439 8.55491 9.67627C8.50836 9.84814 8.48151 10.1274 8.47435 10.5142H7.54515ZM7.48606 12.4531V11.3521H8.58714V12.4531H7.48606Z" fill="#666666"/>
</svg>
