<svg width="19" height="19" viewBox="0 0 19 19" fill="none" xmlns="http://www.w3.org/2000/svg">
<circle cx="9.5" cy="9.5" r="9.5" fill="#303030"/>
<path d="M10.4766 13.0469H8.48438C8.47917 12.7604 8.47656 12.5859 8.47656 12.5234C8.47656 11.8776 8.58333 11.3464 8.79688 10.9297C9.01042 10.513 9.4375 10.0443 10.0781 9.52344C10.7188 9.0026 11.1016 8.66146 11.2266 8.5C11.4193 8.24479 11.5156 7.96354 11.5156 7.65625C11.5156 7.22917 11.3438 6.86458 11 6.5625C10.6615 6.25521 10.2031 6.10156 9.625 6.10156C9.06771 6.10156 8.60156 6.26042 8.22656 6.57812C7.85156 6.89583 7.59375 7.38021 7.45312 8.03125L5.4375 7.78125C5.49479 6.84896 5.89062 6.05729 6.625 5.40625C7.36458 4.75521 8.33333 4.42969 9.53125 4.42969C10.7917 4.42969 11.7943 4.76042 12.5391 5.42188C13.2839 6.07812 13.6562 6.84375 13.6562 7.71875C13.6562 8.20312 13.5182 8.66146 13.2422 9.09375C12.9714 9.52604 12.388 10.1146 11.4922 10.8594C11.0286 11.2448 10.7396 11.5547 10.625 11.7891C10.5156 12.0234 10.4661 12.4427 10.4766 13.0469ZM8.48438 16V13.8047H10.6797V16H8.48438Z" fill="#F9F9F9"/>
</svg>
