<svg width="17" height="18" viewBox="0 0 17 18" fill="none" xmlns="http://www.w3.org/2000/svg">
<path d="M12.1177 8.00447C12.1177 10.7513 9.89338 12.9769 7.15104 12.9769C4.4087 12.9769 2.18437 10.7513 2.18437 8.00447C2.18437 5.2576 4.4087 3.03203 7.15104 3.03203C9.89338 3.03203 12.1177 5.2576 12.1177 8.00447Z" stroke="white" stroke-width="1.4"/>
<path d="M11.2994 11.1727L10.8047 10.6775L9.81524 11.668L10.31 12.1632L11.2994 11.1727ZM13.6098 15.4664C13.883 15.7399 14.326 15.7399 14.5992 15.4664C14.8725 15.1929 14.8725 14.7494 14.5992 14.4759L13.6098 15.4664ZM10.31 12.1632L13.6098 15.4664L14.5992 14.4759L11.2994 11.1727L10.31 12.1632Z" fill="white"/>
</svg>
