<svg width="24" height="24" viewBox="0 0 24 24" fill="none" xmlns="http://www.w3.org/2000/svg">
<circle cx="6.04167" cy="14.7487" r="1.79167" fill="#F9F9F9" stroke="#E60012"/>
<path d="M2.41406 13.1439V9.93685L16.0807 6.23546V16.8453L2.41406 13.1439Z" fill="#F9F9F9" stroke="#E60012"/>
<rect x="5.8151" y="9.47917" width="0.458333" height="4.125" stroke="#E60012" stroke-width="0.458333"/>
<rect x="19.185" y="14.4739" width="2.10677" height="0.5" transform="rotate(22 19.185 14.4739)" stroke="#E60012" stroke-width="0.5"/>
<rect x="19.5859" y="11.332" width="2.25" height="0.5" stroke="#E60012" stroke-width="0.5"/>
<mask id="path-6-inside-1_4535_2244" fill="white">
<path d="M18.5508 8.19141L20.9677 7.21489L21.3423 8.14208L18.9254 9.11859L18.5508 8.19141Z"/>
</mask>
<path d="M18.5508 8.19141L18.1762 7.26422L17.249 7.63883L17.6236 8.56601L18.5508 8.19141ZM20.9677 7.21489L21.8949 6.84029L21.5203 5.9131L20.5931 6.28771L20.9677 7.21489ZM21.3423 8.14208L21.717 9.06926L22.6441 8.69465L22.2695 7.76747L21.3423 8.14208ZM18.9254 9.11859L17.9982 9.4932L18.3728 10.4204L19.3 10.0458L18.9254 9.11859ZM18.9254 9.11859L21.3423 8.14208L20.5931 6.28771L18.1762 7.26422L18.9254 9.11859ZM20.0406 7.5895L20.4152 8.51668L22.2695 7.76747L21.8949 6.84029L20.0406 7.5895ZM20.9677 7.21489L18.5508 8.19141L19.3 10.0458L21.717 9.06926L20.9677 7.21489ZM19.8526 8.74398L19.478 7.8168L17.6236 8.56601L17.9982 9.4932L19.8526 8.74398Z" fill="#E60012" mask="url(#path-6-inside-1_4535_2244)"/>
</svg>
