<svg width="17" height="18" viewBox="0 0 17 18" fill="none" xmlns="http://www.w3.org/2000/svg">
<circle cx="8.5" cy="8.73047" r="8" fill="white" stroke="#CCCCCC"/>
<path d="M9.61841 8.15847C9.61841 8.49447 9.51041 9.07447 9.29441 9.89847C9.07841 10.7145 8.97041 11.2505 8.97041 11.5065C8.97041 11.7545 9.00641 11.8785 9.07841 11.8785C9.12641 11.8785 9.31041 11.8025 9.63041 11.6505L9.77441 11.5785L9.97841 11.9985C9.90641 12.0625 9.81041 12.1425 9.69041 12.2385C9.57041 12.3345 9.34641 12.4665 9.01841 12.6345C8.69041 12.7945 8.38641 12.8745 8.10641 12.8745C7.82641 12.8745 7.60641 12.7905 7.44641 12.6225C7.28641 12.4465 7.20641 12.2145 7.20641 11.9265C7.20641 11.6305 7.30641 11.1105 7.50641 10.3665C7.70641 9.61447 7.80641 9.12647 7.80641 8.90247C7.80641 8.56647 7.70241 8.25047 7.49441 7.95447L7.38641 7.81047L7.39841 7.65447C7.82241 7.53447 8.51041 7.47447 9.46241 7.47447C9.56641 7.59447 9.61841 7.82247 9.61841 8.15847ZM8.25041 6.16647C8.09041 6.00647 8.01041 5.79447 8.01041 5.53047C8.01041 5.26647 8.11841 5.03447 8.33441 4.83447C8.55841 4.63447 8.81441 4.53447 9.10241 4.53447C9.39041 4.53447 9.61441 4.61447 9.77441 4.77447C9.93441 4.93447 10.0144 5.14647 10.0144 5.41047C10.0144 5.66647 9.89841 5.89447 9.66641 6.09447C9.44241 6.29447 9.19041 6.39447 8.91041 6.39447C8.63041 6.39447 8.41041 6.31847 8.25041 6.16647Z" fill="#666666"/>
</svg>
