<svg width="80" height="80" viewBox="0 0 80 80" fill="none" xmlns="http://www.w3.org/2000/svg">
<rect x="20.75" y="11.8613" width="35.1667" height="58.5" rx="7.25" fill="white" stroke="#1A1A1A" stroke-width="1.5"/>
<path d="M34 16.25H43" stroke="#1A1A1A" stroke-width="1.5" stroke-linecap="round" stroke-linejoin="round"/>
<g clip-path="url(#clip0_2148_10564)">
<path d="M73.333 23.2227H33.333V63.2227H73.333V23.2227Z" fill="#FF3A4A"/>
<path d="M41.8751 37.4648C39.6355 37.4648 38.7266 37.4818 38.7266 37.4818V49.0787H40.5321V45.5374H42.1524C42.1524 45.5374 44.664 45.5139 44.664 43.0258V39.9823C44.664 39.9823 44.9303 37.4648 41.8751 37.4648ZM42.9283 42.6323C42.9283 43.7547 41.8979 43.6627 41.8979 43.6627H40.5321V39.2417C40.5321 39.2417 40.8793 39.2587 41.9038 39.2587C42.9283 39.2587 42.9283 40.2832 42.9283 40.2832V42.6323Z" fill="white"/>
<path d="M50.4449 37.4648H47.6847L45.6475 49.0787H47.592L47.962 47.0187H50.1669L50.5369 49.0787H52.4815L50.4449 37.4648ZM48.1473 45.2829L49.0648 39.8642L49.9823 45.2829H48.148H48.1473Z" fill="white"/>
<path d="M58.1417 40.9313H60.0458C59.9395 40.1627 60.5868 37.6099 57.268 37.3665C53.3651 37.285 53.1896 41.1062 54.8836 42.8296C55.6706 43.732 58.0784 44.7043 58.1013 46.0701C58.2696 48.0453 55.8937 47.8143 55.8559 46.4042V45.6303H53.9113C53.9342 46.2685 53.8173 47.0685 54.1593 47.6336C54.3831 48.0023 54.9299 49.0789 56.3884 49.1488C58.5411 49.4222 60.1542 48.2156 60.0465 46.211C59.9662 45.3921 60.361 45.1422 58.7264 43.5004C57.3835 42.3199 55.833 41.6948 55.833 40.3525C55.8285 38.5887 58.0438 38.607 58.1248 40.098L58.1424 40.9313H58.1417Z" fill="white"/>
<path d="M66.1056 40.9313H68.0097C67.9033 40.1627 68.5507 37.6099 65.2318 37.3665C61.329 37.285 61.1535 41.1062 62.8475 42.8296C63.6344 43.732 66.0423 44.7043 66.0651 46.0701C66.2335 48.0453 63.8576 47.8143 63.8197 46.4042V45.6303H61.8752C61.898 46.2685 61.7812 47.0685 62.1231 47.6336C62.347 48.0023 62.8938 49.0789 64.3522 49.1488C66.5049 49.4222 68.118 48.2156 68.0104 46.211C67.9301 45.3921 68.3249 45.1422 66.6903 43.5004C65.3473 42.3199 63.7969 41.6948 63.7969 40.3525C63.7923 38.5887 66.0077 38.607 66.0886 40.098L66.1062 40.9313H66.1056Z" fill="white"/>
</g>
<defs>
<clipPath id="clip0_2148_10564">
<rect x="33.333" y="23.2227" width="40" height="40" rx="8" fill="white"/>
</clipPath>
</defs>
</svg>
