<svg width="32" height="32" viewBox="0 0 32 32" fill="none" xmlns="http://www.w3.org/2000/svg">
<g id="&#236;&#160;&#149;&#235;&#185;&#132;">
<path id="Rectangle 3518" d="M9.38151 6.7019L6.82683 9.02068C6.43591 9.37551 6.40664 9.98007 6.76147 10.371L7.62643 11.3239L11.5968 7.7202L10.7318 6.76725C10.377 6.37633 9.77244 6.34707 9.38151 6.7019Z" fill="white" stroke="#1A1A1A" stroke-width="1.5"/>
<path id="Rectangle 3517" d="M25.5676 9.20697V24.0805C25.5676 25.6178 24.3214 26.864 22.7841 26.864H9.37329C7.83604 26.864 6.58984 25.6178 6.58984 24.0805V13.1653C6.58984 12.3816 6.92022 11.6342 7.49981 11.1067L11.8492 7.14841C12.3617 6.682 13.0297 6.42352 13.7227 6.42352H22.7841C24.3214 6.42352 25.5676 7.66971 25.5676 9.20697Z" fill="white" stroke="#1A1A1A" stroke-width="1.5"/>
<path id="Rectangle 3517_2" d="M14.4729 9.41162L20.6797 9.06255C21.6403 9.00852 22.4489 9.77292 22.4489 10.735C22.4489 11.6602 21.6989 12.4102 20.7738 12.4102H12.102C11.4507 12.4102 11.0637 11.6826 11.4278 11.1426C12.1164 10.1212 13.2431 9.48078 14.4729 9.41162Z" fill="white" stroke="#1A1A1A" stroke-width="1.5"/>
<path id="Ellipse 170" d="M18.4851 20.0047C18.4851 21.4818 17.2572 22.6792 15.7426 22.6792C14.2279 22.6792 13 21.4818 13 20.0047C13 18.5277 15.7426 15 15.7426 15C15.7426 15 18.4851 18.5277 18.4851 20.0047Z" fill="white" stroke="#FF3333" stroke-width="1.5" stroke-linejoin="round"/>
</g>
</svg>
