<svg width="48" height="48" viewBox="0 0 48 48" fill="none" xmlns="http://www.w3.org/2000/svg">
<g id="icon_kakaotalk">
<path id="Rectangle 11" d="M0 24C0 10.7452 10.7452 0 24 0C37.2548 0 48 10.7452 48 24C48 37.2548 37.2548 48 24 48C10.7452 48 0 37.2548 0 24Z" fill="#FFF200"/>
<path id="Vector" d="M23.999 14C17.9233 14 13 18.0202 13 22.9825C13 26.1745 15.0405 28.9708 18.1043 30.569L17.0643 34.5698C17.0489 34.6191 17.045 34.6714 17.0528 34.7225C17.0607 34.7737 17.0801 34.8222 17.1095 34.8641C17.1389 34.906 17.1774 34.9401 17.222 34.9638C17.2665 34.9874 17.3158 34.9998 17.3659 35C17.4374 34.9966 17.506 34.9695 17.5614 34.9226L22.0167 31.8101C22.6726 31.9076 23.3343 31.9572 23.9969 31.9585C30.0704 31.9585 35 27.9405 35 22.9739C35 18.0073 30.0746 14 23.999 14Z" fill="#392020"/>
</g>
</svg>
