<svg width="48" height="48" viewBox="0 0 48 48" fill="none" xmlns="http://www.w3.org/2000/svg">
<g id="logo_pass">
<g clip-path="url(#clip0_2434_52696)">
<path id="Vector" d="M48 0H0V48H48V0Z" fill="#FF3A4A"/>
<path id="Vector_2" d="M10.2501 17.0908C7.56267 17.0908 6.47189 17.1111 6.47189 17.1111V31.0274H8.63858V26.7778H10.5829C10.5829 26.7778 13.5968 26.7496 13.5968 23.7639V20.1118C13.5968 20.1118 13.9163 17.0908 10.2501 17.0908ZM11.5139 23.2917C11.5139 24.6386 10.2775 24.5281 10.2775 24.5281H8.63858V19.223C8.63858 19.223 9.05516 19.2434 10.2845 19.2434C11.5139 19.2434 11.5139 20.4727 11.5139 20.4727V23.2917Z" fill="white"/>
<path id="Vector_3" d="M20.5346 17.0908H17.2223L14.7777 31.0274H17.1111L17.5551 28.5554H20.201L20.645 31.0274H22.9785L20.5346 17.0908ZM17.7775 26.4724L18.8785 19.97L19.9794 26.4724H17.7783H17.7775Z" fill="white"/>
<path id="Vector_4" d="M29.7707 21.2503H32.0556C31.928 20.3279 32.7047 17.2646 28.7222 16.9726C24.0388 16.8747 23.8281 21.4602 25.8609 23.5282C26.8053 24.6112 29.6947 25.7779 29.7221 27.4168C29.9241 29.7871 27.0731 29.5099 27.0277 27.8178V26.8891H24.6942C24.7216 27.6549 24.5814 28.6149 24.9917 29.293C25.2603 29.7354 25.9165 31.0275 27.6666 31.1112C30.2499 31.4393 32.1856 29.9915 32.0564 27.586C31.9601 26.6032 32.4338 26.3033 30.4723 24.3332C28.8608 22.9167 27.0003 22.1665 27.0003 20.5558C26.9948 18.4392 29.6532 18.4611 29.7503 20.2504L29.7715 21.2503H29.7707Z" fill="white"/>
<path id="Vector_5" d="M39.327 21.2503H41.6119C41.4843 20.3279 42.2611 17.2646 38.2785 16.9726C33.5951 16.8747 33.3844 21.4602 35.4172 23.5282C36.3616 24.6112 39.251 25.7779 39.2784 27.4168C39.4805 29.7871 36.6294 29.5099 36.584 27.8178V26.8891H34.2505C34.2779 27.6549 34.1377 28.6149 34.548 29.293C34.8166 29.7354 35.4728 31.0275 37.2229 31.1112C39.8062 31.4393 41.7419 29.9915 41.6127 27.586C41.5164 26.6032 41.9901 26.3033 40.0286 24.3332C38.4171 22.9167 36.5566 22.1665 36.5566 20.5558C36.5511 18.4392 39.2095 18.4611 39.3066 20.2504L39.3278 21.2503H39.327Z" fill="white"/>
</g>
</g>
<defs>
<clipPath id="clip0_2434_52696">
<rect width="48" height="48" rx="10" fill="white"/>
</clipPath>
</defs>
</svg>
