<svg width="17" height="18" viewBox="0 0 17 18" fill="none" xmlns="http://www.w3.org/2000/svg">
<path d="M5.36719 7.78516L11.5661 4.18516" stroke="#CCCCCC" stroke-width="1.5" stroke-linecap="round" stroke-linejoin="round"/>
<path d="M5.36719 10.8008L11.5661 14.4008" stroke="#CCCCCC" stroke-width="1.5" stroke-linecap="round" stroke-linejoin="round"/>
<path d="M5.36842 9.00078C5.36842 10.4919 4.16666 11.7008 2.68421 11.7008C1.20176 11.7008 1.7443e-07 10.492 1.1237e-07 9.00078C5.03098e-08 7.50961 1.20176 6.30078 2.68421 6.30078C4.16666 6.30078 5.36842 7.50961 5.36842 9.00078Z" fill="#CCCCCC"/>
<path d="M17.0012 2.7C17.0012 4.19117 15.7995 5.4 14.317 5.4C12.8346 5.4 11.6328 4.19117 11.6328 2.7C11.6328 1.20883 12.8346 -5.50092e-08 14.317 -1.22866e-07C15.7995 -1.90724e-07 17.0012 1.20883 17.0012 2.7Z" fill="#CCCCCC"/>
<path d="M17.0012 15.3016C17.0012 16.7927 15.7995 18.0016 14.317 18.0016C12.8346 18.0016 11.6328 16.7927 11.6328 15.3016C11.6328 13.8104 12.8346 12.6016 14.317 12.6016C15.7995 12.6016 17.0012 13.8104 17.0012 15.3016Z" fill="#CCCCCC"/>
</svg>
