<svg width="38" height="26" viewBox="0 0 38 26" fill="none" xmlns="http://www.w3.org/2000/svg">
<g filter="url(#filter0_d_186_1172)">
<rect x="4" width="30" height="18" rx="5" fill="#646F81"/>
</g>
<path d="M10.7108 5.23V6.07H14.6908V5.23H10.7108ZM11.9808 7.24V9.45H13.0108V7.24H11.9808ZM14.2708 5.23V5.77C14.2708 6.35 14.2708 7.1 14.0608 8.12L15.0808 8.21C15.3108 7.17 15.3108 6.35 15.3108 5.77V5.23H14.2708ZM16.3908 4.69V10.33H17.4508V4.69H16.3908ZM17.0008 7.07V7.94H18.6608V7.07H17.0008ZM10.2708 9.82C11.9008 9.82 14.0208 9.78 15.9008 9.46L15.8308 8.71C14.0008 8.95 11.8108 8.97 10.1608 8.97L10.2708 9.82ZM14.4408 10.44C12.5308 10.44 11.3508 11.07 11.3508 12.12C11.3508 13.19 12.5308 13.81 14.4408 13.81C16.3508 13.81 17.5308 13.19 17.5308 12.12C17.5308 11.07 16.3508 10.44 14.4408 10.44ZM14.4408 11.25C15.7208 11.25 16.4608 11.56 16.4608 12.12C16.4608 12.69 15.7208 12.99 14.4408 12.99C13.1608 12.99 12.4108 12.69 12.4108 12.12C12.4108 11.56 13.1608 11.25 14.4408 11.25ZM20.32 5.54V6.39H26.16V5.54H20.32ZM19.46 11.77V12.63H27.72V11.77H19.46ZM22.54 8.56V12.2H23.59V8.56H22.54ZM25.77 5.54V6.43C25.77 7.53 25.77 8.83 25.42 10.61L26.47 10.73C26.82 8.84 26.82 7.57 26.82 6.43V5.54H25.77Z" fill="#D7D7C7"/>
<defs>
<filter id="filter0_d_186_1172" x="0" y="0" width="38" height="26" filterUnits="userSpaceOnUse" color-interpolation-filters="sRGB">
<feFlood flood-opacity="0" result="BackgroundImageFix"/>
<feColorMatrix in="SourceAlpha" type="matrix" values="0 0 0 0 0 0 0 0 0 0 0 0 0 0 0 0 0 0 127 0" result="hardAlpha"/>
<feOffset dy="4"/>
<feGaussianBlur stdDeviation="2"/>
<feComposite in2="hardAlpha" operator="out"/>
<feColorMatrix type="matrix" values="0 0 0 0 0 0 0 0 0 0 0 0 0 0 0 0 0 0 0.25 0"/>
<feBlend mode="normal" in2="BackgroundImageFix" result="effect1_dropShadow_186_1172"/>
<feBlend mode="normal" in="SourceGraphic" in2="effect1_dropShadow_186_1172" result="shape"/>
</filter>
</defs>
</svg>
