<svg width="19" height="18" viewBox="0 0 19 18" fill="none" xmlns="http://www.w3.org/2000/svg">
<path d="M17.6316 12.7946V7.43692C17.6316 3.32951 14.0295 0 9.58579 0H9.41368C4.97053 0 1.36842 3.32951 1.36842 7.43692V12.7946H0V18H19V12.7946H17.6316ZM10.5282 13.8031C10.5282 13.9982 10.405 14.1568 10.2529 14.1568H8.61789C8.46579 14.1568 8.34263 13.9986 8.34263 13.8031V12.6715C8.34263 12.4764 8.46579 12.3178 8.61789 12.3178H10.1532C10.3053 12.3178 10.5282 12.4759 10.5282 12.6715V13.8031ZM10.9842 5.00004L10.5453 10.3076C10.5263 10.5338 10.3563 10.707 10.1532 10.707H8.80316C8.59947 10.707 8.42947 10.5333 8.41105 10.3071L7.98158 5.00053V4.90031C7.98158 4.64588 8.16632 4.43961 8.39421 4.43961C8.62211 4.43961 10.5721 4.43961 10.5721 4.43961C10.8 4.43961 10.9847 4.64588 10.9847 4.90031L10.9842 5.00004Z" fill="#CCCCCC"/>
</svg>
