<svg width="21" height="18" viewBox="0 0 21 18" fill="none" xmlns="http://www.w3.org/2000/svg">
<path d="M7.86737 0L5.37727 0.0384457C4.67409 0.124949 4.03709 0.595909 3.71446 1.33599L1.95236 5.32474H0V7.79487H0.959637V11.7836V16.7143H4.14464V13.3887H7.87564" fill="#CCCCCC"/>
<path d="M13.1342 0L14.9922 0.0384457C15.7779 0.124949 16.4897 0.595909 16.8502 1.33599L18.8191 5.32474H21.0006V7.79487H19.9284V11.7836V16.7143H16.3695V13.3887H13.125" fill="#CCCCCC"/>
<path d="M10.5 2.57143L10.5 0" stroke="#CCCCCC" stroke-miterlimit="10"/>
<path d="M10.5 6.4269L10.5 3.85547" stroke="#CCCCCC" stroke-miterlimit="10"/>
<path d="M10.5 10.2863L10.5 7.71484" stroke="#CCCCCC" stroke-miterlimit="10"/>
<path d="M10.5 14.1417L10.5 11.5703" stroke="#CCCCCC" stroke-miterlimit="10"/>
<path d="M10.5 18.0011L10.5 15.4297" stroke="#CCCCCC" stroke-miterlimit="10"/>
</svg>
