<svg width="10" height="10" viewBox="0 0 10 10" fill="none" xmlns="http://www.w3.org/2000/svg">
<path fill-rule="evenodd" clip-rule="evenodd" d="M0.34841 1.47852C-0.283363 2.75648 -0.3129 4.6911 2.49543 7.49867C6.74581 11.7479 8.99602 9.49832 9.99611 8.4985C9.91283 8.53626 9.81727 8.56878 9.71004 8.59417C9.86778 8.22896 9.79735 7.78889 9.49884 7.49046L7.91297 5.90502C7.52239 5.51454 6.88939 5.5143 6.49881 5.90477L6.4557 5.94787C6.1823 6.2212 5.83416 6.71869 5.77906 7.31778C5.25462 6.94097 4.69659 6.46905 4.11096 5.88357C3.49067 5.26345 2.99782 4.6743 2.61045 4.12321C3.20119 4.06259 3.69117 3.71902 3.96167 3.4486L4.00466 3.40563C4.39523 3.01515 4.39511 2.38219 4.00454 1.99172L2.41867 0.406277C2.15283 0.140505 1.77467 0.0555164 1.43709 0.151464C1.45464 0.0971907 1.47416 0.0466671 1.49534 0C1.43205 0.0632658 1.36377 0.131536 1.29244 0.205C1.18816 0.253091 1.09047 0.320101 1.00451 0.406035L0.9614 0.449132C0.741732 0.668741 0.473815 1.03306 0.34841 1.47852Z" fill="#DA291C"/>
</svg>
