<svg width="32" height="32" viewBox="0 0 32 32" fill="none" xmlns="http://www.w3.org/2000/svg">
<path d="M9.59999 14.3398C8.86999 14.3398 8.20999 14.7498 7.87999 15.3898L6.26999 18.5198H4.48999V20.4598H5.36999V27.4698H8.26999V24.8598H18.09V27.4698H20.99V21.3598" stroke="#999999" stroke-linejoin="round"/>
<path d="M20.0801 18.5195H21.8701V20.4595H20.9901V23.5895" stroke="#999999" stroke-linejoin="round"/>
<path d="M27.4901 10.0204L27.1201 10.7604C23.9501 17.1304 14.8701 17.1304 11.7101 10.7604L11.3401 10.0204L11.7101 9.28043C14.8801 2.91043 23.9601 2.91043 27.1201 9.28043L27.4901 10.0204Z" stroke="#999999" stroke-linejoin="round"/>
<path d="M19.42 13.4304C21.3033 13.4304 22.83 11.9036 22.83 10.0204C22.83 8.13706 21.3033 6.61035 19.42 6.61035C17.5367 6.61035 16.01 8.13706 16.01 10.0204C16.01 11.9036 17.5367 13.4304 19.42 13.4304Z" stroke="#999999" stroke-linejoin="round"/>
</svg>
