<svg width="39" height="42" viewBox="0 0 39 42" fill="none" xmlns="http://www.w3.org/2000/svg">
<path d="M34.4083 17.5V29.45C34.4083 37.7 31.0675 41 22.7154 41H12.6929C4.34083 41 1 37.7 1 29.45V19.55C1 11.3 4.34083 8 12.6929 8H17.7042" stroke="black" stroke-width="1.5" stroke-linecap="round" stroke-linejoin="round"/>
<path d="M11.1231 24C12.8004 24 14.1602 22.433 14.1602 20.5C14.1602 18.567 12.8004 17 11.1231 17C9.4457 17 8.08594 18.567 8.08594 20.5C8.08594 22.433 9.4457 24 11.1231 24Z" fill="#F9F9F9" stroke="black" stroke-width="1.5" stroke-linecap="round" stroke-linejoin="round"/>
<path d="M2.01172 36L10.2741 30.2869C11.5981 29.3722 13.5087 29.4757 14.6986 30.5286L15.2517 31.0291C16.5589 32.1855 18.6706 32.1855 19.9778 31.0291L26.9497 24.8673C28.257 23.7109 30.3687 23.7109 31.6759 24.8673L34.4077 27.2837" fill="#F9F9F9"/>
<path d="M2.01172 36L10.2741 30.2869C11.5981 29.3722 13.5087 29.4757 14.6986 30.5286L15.2517 31.0291C16.5589 32.1855 18.6706 32.1855 19.9778 31.0291L26.9497 24.8673C28.257 23.7109 30.3687 23.7109 31.6759 24.8673L34.4077 27.2837" stroke="black" stroke-width="1.5" stroke-linecap="round" stroke-linejoin="round"/>
<path d="M37.2648 10.1998C37.3125 11.9641 36.8362 13.6342 35.9789 15.0691C35.5026 15.9159 34.8596 16.6922 34.1452 17.3274C32.5021 18.8328 30.3349 19.7502 27.9297 19.8208C24.4529 19.8913 21.3809 18.1271 19.6901 15.422C18.7852 14.0342 18.2375 12.3641 18.2137 10.5998C18.1422 7.63595 19.4758 4.95429 21.6191 3.19007C23.2384 1.87279 25.2864 1.0495 27.5249 1.00246C32.7878 0.884844 37.1458 5.00129 37.2648 10.1998Z" fill="#F9F9F9" stroke="#DA291C" stroke-width="1.5" stroke-miterlimit="10" stroke-linecap="round" stroke-linejoin="round"/>
<path d="M28.3359 13.5078V5.50781" stroke="#DA291C" stroke-width="1.5" stroke-linecap="round" stroke-linejoin="round"/>
<path d="M25.2969 10.5078L28.334 13.5078L31.3711 10.5078" fill="#F9F9F9"/>
<path d="M25.2969 10.5078L28.334 13.5078L31.3711 10.5078" stroke="#DA291C" stroke-width="1.5" stroke-linecap="round" stroke-linejoin="round"/>
<path d="M24.2852 16C26.9106 16 29.7587 16 32.3841 16L24.2852 16Z" fill="#F9F9F9"/>
<path d="M24.2852 16C26.9106 16 29.7587 16 32.3841 16" stroke="#DA291C" stroke-width="1.5" stroke-linecap="round" stroke-linejoin="round"/>
</svg>
