<svg width="21" height="21" viewBox="0 0 21 21" fill="none" xmlns="http://www.w3.org/2000/svg">
<path d="M14.7813 16.995H5.38125C4.96125 16.995 4.49125 16.665 4.35125 16.265L0.211254 4.685C-0.378746 3.025 0.311254 2.515 1.73125 3.535L5.63125 6.325C6.28125 6.775 7.02125 6.545 7.30125 5.815L9.06125 1.125C9.62125 -0.375 10.5513 -0.375 11.1113 1.125L12.8713 5.815C13.1513 6.545 13.8913 6.775 14.5313 6.325L18.1913 3.715C19.7513 2.595 20.5013 3.165 19.8613 4.975L15.8213 16.285C15.6713 16.665 15.2013 16.995 14.7813 16.995Z" fill="#666666"/>
<path d="M4.58105 20.0151H15.5811" stroke="#666666" stroke-width="1.5" stroke-linecap="round" stroke-linejoin="round"/>
<path d="M7.58105 12.0151H12.5811" stroke="white" stroke-width="1.5" stroke-linecap="round" stroke-linejoin="round"/>
</svg>
