<svg width="32" height="32" viewBox="0 0 32 32" fill="none" xmlns="http://www.w3.org/2000/svg">
<path d="M20.9699 6.04004C22.5799 6.04004 24.0899 6.67004 25.2299 7.80004C27.5799 10.15 27.5799 13.97 25.2299 16.32L21.9199 19.63L15.9999 25.54L6.76988 16.32C5.62988 15.18 5.00988 13.67 5.00988 12.06C5.00988 10.45 5.63988 8.94004 6.76988 7.80004C7.90988 6.66004 9.41988 6.04004 11.0299 6.04004C12.6399 6.04004 14.1499 6.67004 15.2899 7.80004L15.9999 8.51004L16.7099 7.80004C17.8499 6.66004 19.3599 6.04004 20.9699 6.04004ZM20.9699 5.04004C19.1699 5.04004 17.3799 5.73004 15.9999 7.10004C14.6299 5.73004 12.8299 5.04004 11.0299 5.04004C9.22988 5.04004 7.43988 5.73004 6.05988 7.10004C3.31988 9.84004 3.31988 14.29 6.05988 17.03L15.9899 26.96L22.6099 20.34L25.9199 17.03C28.6599 14.29 28.6599 9.84004 25.9199 7.10004C24.5499 5.73004 22.7499 5.04004 20.9499 5.04004H20.9699Z" fill="#999999"/>
</svg>
