<svg width="15" height="15" viewBox="0 0 15 15" fill="none" xmlns="http://www.w3.org/2000/svg">
<path fill-rule="evenodd" clip-rule="evenodd" d="M6.39156 3.07981L3.60394 0.292939C3.32541 0.0144873 2.92357 -0.0654829 2.57428 0.053153C2.58083 0.0376226 2.5875 0.0223736 2.59429 0.00740781C2.57448 0.0272117 2.55432 0.0473657 2.53384 0.0678727C2.40847 0.116599 2.29094 0.191562 2.18971 0.292768L1.84624 0.636151C1.53828 0.944023 1.16262 1.45497 0.987202 2.07968C0.103114 3.86953 0.0628999 6.57863 3.99496 10.5096C9.94781 16.4609 13.0993 13.3102 14.5 11.9099C14.4195 11.9465 14.3308 11.9795 14.2342 12.0081C14.4691 11.6232 14.4199 11.1139 14.0869 10.781L11.2993 7.99411C10.9087 7.60364 10.2756 7.60347 9.88502 7.99394L9.54155 8.33732C9.15858 8.72019 8.67091 9.41709 8.59385 10.2563C7.85934 9.72855 7.0778 9.06761 6.25758 8.24762C5.38873 7.379 4.69841 6.55377 4.15586 5.78186C4.98319 5.69695 5.66942 5.21578 6.04825 4.83704L6.39169 4.4937C6.78226 4.10323 6.78213 3.47028 6.39156 3.07981Z" fill="#DA291C"/>
</svg>
