<svg width="14" height="14" viewBox="0 0 14 14" fill="none" xmlns="http://www.w3.org/2000/svg">
<path d="M13 11.3659L9 11.3659M9 11.3659C9 10.6295 8.40305 10.0326 7.66667 10.0326C6.93029 10.0326 6.33333 10.6295 6.33333 11.3659M9 11.3659C9 12.1023 8.40305 12.6992 7.66667 12.6992C6.93029 12.6992 6.33333 12.1023 6.33333 11.3659M6.33333 11.3659H1M13 6.69922L6.33333 6.69922M6.33333 6.69922C6.33333 5.96284 5.73638 5.36589 5 5.36589C4.26362 5.36589 3.66667 5.96284 3.66667 6.69922M6.33333 6.69922C6.33333 7.4356 5.73638 8.03255 5 8.03255C4.26362 8.03255 3.66667 7.4356 3.66667 6.69922M3.66667 6.69922H1M13 2.03255H10.3333M10.3333 2.03255C10.3333 1.29617 9.73638 0.699219 9 0.699219C8.26362 0.699219 7.66667 1.29617 7.66667 2.03255M10.3333 2.03255C10.3333 2.76893 9.73638 3.36589 9 3.36589C8.26362 3.36589 7.66667 2.76893 7.66667 2.03255M7.66667 2.03255H1" stroke="white" stroke-width="1.2" stroke-linecap="round" stroke-linejoin="round"/>
</svg>
