<svg width="18" height="18" viewBox="0 0 18 18" fill="none" xmlns="http://www.w3.org/2000/svg">
<path d="M15.75 14.25L11.25 14.25M11.25 14.25C11.25 13.4216 10.5784 12.75 9.75 12.75C8.92157 12.75 8.25 13.4216 8.25 14.25M11.25 14.25C11.25 15.0784 10.5784 15.75 9.75 15.75C8.92157 15.75 8.25 15.0784 8.25 14.25M8.25 14.25H2.25M15.75 9H8.25M8.25 9C8.25 8.17157 7.57843 7.5 6.75 7.5C5.92157 7.5 5.25 8.17157 5.25 9M8.25 9C8.25 9.82843 7.57843 10.5 6.75 10.5C5.92157 10.5 5.25 9.82843 5.25 9M5.25 9H2.25M15.75 3.75H12.75M12.75 3.75C12.75 2.92157 12.0784 2.25 11.25 2.25C10.4216 2.25 9.75 2.92157 9.75 3.75C9.75 4.57843 10.4216 5.25 11.25 5.25C12.0784 5.25 12.75 4.57843 12.75 3.75ZM9.75 3.75H2.25" stroke="#303030" stroke-width="1.5" stroke-linecap="round" stroke-linejoin="round"/>
</svg>
