<svg width="28" height="30" viewBox="0 0 28 30" fill="none" xmlns="http://www.w3.org/2000/svg">
<path d="M21.36 7.81977L22.9226 13.489C22.9235 13.4924 22.924 13.4958 22.924 13.4993C22.924 13.5167 22.9358 13.5319 22.9526 13.5365C23.6765 13.7344 24.317 14.165 24.7768 14.7633C25.2427 15.3695 25.4969 16.1139 25.5 16.8809V20.5204C25.498 21.2383 25.2759 21.938 24.8641 22.5236C24.5192 23.0141 24.0554 23.4044 23.5194 23.6588C23.3126 23.757 23.083 23.7912 22.8541 23.7912H5.14592C4.917 23.7912 4.68736 23.757 4.48057 23.6588C3.94463 23.4044 3.48079 23.0141 3.13588 22.5236C2.72411 21.938 2.502 21.2383 2.5 20.5204V16.8809C2.50308 16.1139 2.7573 15.3695 3.22315 14.7633C3.45196 14.4656 3.72553 14.2094 4.03185 14.0027C4.623 13.6039 5.19197 13.1055 5.38038 12.4178L6.64 7.81977C6.87857 7.13919 7.32109 6.55029 7.90626 6.13466C8.49144 5.71903 9.19029 5.49724 9.906 5.50003H18.094C18.8097 5.49724 19.5086 5.71903 20.0937 6.13466C20.6789 6.55029 21.1214 7.13919 21.36 7.81977Z" stroke="#666666" stroke-width="1.5" stroke-linejoin="round"/>
<rect y="12.7031" width="27.98" height="1.5" rx="0.75" fill="#666666"/>
<path d="M4.39844 23.2031H5.89844V26.4531C5.89844 26.8673 5.56265 27.2031 5.14844 27.2031C4.73422 27.2031 4.39844 26.8673 4.39844 26.4531V23.2031Z" fill="#666666"/>
<path d="M22.1992 23.2031H23.6992V26.4531C23.6992 26.8673 23.3634 27.2031 22.9492 27.2031C22.535 27.2031 22.1992 26.8673 22.1992 26.4531V23.2031Z" fill="#666666"/>
<rect x="12" y="1" width="3.5" height="28" rx="1.75" fill="#666666" stroke="white" stroke-width="2"/>
</svg>
